<?xml version="1.0" encoding="UTF-8"?>
<svg id="Layer_1" xmlns="http://www.w3.org/2000/svg" version="1.1" viewBox="0 0 35.47 35.47">
  <!-- Generator: Adobe Illustrator 29.5.0, SVG Export Plug-In . SVG Version: 2.1.0 Build 137)  -->
  <defs>
    <style>
      .st0 {
        fill: #f75a55;
      }

      .st1 {
        fill: #0e1120;
      }
    </style>
  </defs>
  <path class="st0" d="M20.03,15.39c-.32,0-.59.11-.82.34-.23.23-.34.5-.34.82s.11.59.34.82c.23.23.5.34.82.34s.59-.11.82-.34c.23-.23.34-.5.34-.82s-.11-.59-.34-.82c-.22-.23-.5-.34-.82-.34ZM24.17,14.56c-.22-1.62-1.61-2.88-3.29-2.88-.49,0-.95.11-1.37.3-.82-1.22-2.21-2.03-3.8-2.03-2.48,0-4.5,1.98-4.57,4.45-1.37.64-2.32,2.03-2.32,3.64,0,2.22,1.8,4.02,4.02,4.02h9.93c2.14,0,3.88-1.74,3.88-3.88,0-1.65-1.03-3.05-2.48-3.62ZM13.82,17.36c.23.23.5.34.82.34s.59-.11.82-.34c.02-.02.04-.03.05-.04.03-.06.08-.12.13-.17.15-.15.33-.22.55-.22s.4.07.55.22c.15.15.23.33.23.55s-.07.4-.22.54c0,0-.01.01-.02.02-.04.06-.1.12-.17.19-.53.53-1.16.79-1.91.79s-1.38-.27-1.91-.79c-.53-.53-.79-1.16-.79-1.91s.26-1.38.79-1.91c.53-.53,1.16-.79,1.91-.79s1.38.26,1.91.79c.07.07.12.13.16.19,0,0,.01.01.02.01.15.15.22.34.22.55s-.07.39-.23.55c-.15.15-.33.23-.55.23s-.39-.08-.55-.23c-.05-.05-.1-.11-.13-.16-.02,0-.03-.02-.05-.04-.23-.23-.5-.34-.82-.34s-.59.11-.82.34c-.23.23-.34.5-.34.82s.11.59.34.82ZM21.94,18.45c-.53.53-1.16.79-1.91.79s-1.38-.27-1.91-.79c-.53-.53-.79-1.16-.79-1.91s.26-1.38.79-1.91c.53-.53,1.17-.79,1.91-.79s1.38.26,1.91.79c.53.53.79,1.16.79,1.91s-.26,1.38-.79,1.91ZM24.26,19.53c.08,0,.16.03.22.09.06.06.09.13.09.22s-.03.16-.09.22c-.06.06-.13.09-.22.09h-1.15c-.08,0-.16-.03-.22-.09-.06-.06-.09-.13-.09-.22s.03-.16.09-.22c.02-.02.04-.04.07-.05h0s.96-.8.96-.8c.03-.05.04-.1.04-.15,0-.08-.03-.16-.09-.22-.06-.06-.13-.09-.22-.09s-.16.03-.22.09c-.04.06-.08.1-.1.13-.06.06-.13.09-.22.09s-.16-.03-.22-.09c-.06-.06-.09-.13-.09-.22,0-.07.02-.13.06-.18.03-.05.07-.1.13-.16.18-.18.4-.27.65-.27s.47.09.65.27c.18.18.27.39.27.65,0,.23-.05.38-.15.46h0l-.48.46h.32Z"/>
  <g>
    <path class="st1" d="M17.74,32.81c-8.31,0-15.08-6.76-15.08-15.08S9.42,2.66,17.74,2.66c.28,0,.52.23.52.52s-.23.52-.52.52c-7.75,0-14.05,6.3-14.05,14.05s6.02,13.77,13.53,14.04v-6.4c0-.28.23-.52.52-.52s.52.23.52.52v6.92c0,.28-.23.52-.52.52Z"/>
    <polygon class="st1" points="19.48 27.43 17.74 25.68 15.99 27.43 15.99 25.95 17.74 24.2 19.48 25.95 19.48 27.43"/>
  </g>
  <g>
    <path class="st1" d="M27.16,29.35c-.15,0-.29-.06-.39-.18-.18-.22-.16-.54.06-.73.1-.09.21-.18.31-.27.21-.19.54-.17.73.04.19.21.17.54-.04.73-.11.1-.22.19-.33.29-.1.08-.22.12-.33.12Z"/>
    <path class="st1" d="M28.67,27.87c-.12,0-.24-.04-.34-.13-.21-.19-.23-.51-.05-.73.18-.2.35-.41.52-.63.18-.22.5-.26.72-.09s.26.5.09.72c-.18.23-.37.45-.56.67-.1.12-.24.17-.39.17ZM30.17,25.83c-.09,0-.19-.02-.27-.08-.24-.15-.32-.47-.17-.71.14-.23.28-.47.4-.71.13-.25.45-.35.7-.21.25.13.35.45.21.7-.14.26-.28.51-.43.76-.1.16-.27.25-.44.25ZM31.3,23.57c-.06,0-.13-.01-.19-.04-.26-.1-.4-.4-.29-.67.1-.25.19-.51.28-.77.09-.27.38-.42.65-.33.27.09.42.38.33.65-.09.28-.19.55-.3.82-.08.2-.27.33-.48.33ZM32.01,21.14s-.07,0-.1-.01c-.28-.06-.46-.33-.4-.61.05-.26.1-.53.14-.8.04-.28.3-.48.58-.44.28.04.48.3.44.58-.04.29-.09.58-.15.86-.05.24-.26.41-.51.41ZM32.29,18.63h-.01c-.28,0-.51-.24-.5-.53,0-.12,0-.24,0-.36,0-.15,0-.3,0-.45,0-.28.21-.52.5-.53.27-.02.52.21.53.5,0,.16,0,.32,0,.49,0,.13,0,.26,0,.39,0,.28-.24.5-.52.5ZM32.14,16.1c-.25,0-.47-.18-.51-.44-.04-.27-.09-.54-.14-.8-.06-.28.12-.55.4-.61.28-.06.55.12.61.4.06.28.11.57.15.86.04.28-.15.54-.44.59-.03,0-.05,0-.08,0ZM31.55,13.64c-.22,0-.42-.14-.49-.35-.09-.26-.18-.51-.28-.77-.11-.26.02-.56.29-.67.26-.1.56.02.67.29.11.27.21.54.3.82.09.27-.06.56-.33.65-.05.02-.11.03-.16.03ZM30.54,11.31c-.18,0-.36-.1-.45-.27-.13-.24-.27-.47-.41-.71-.15-.24-.08-.56.17-.71.24-.15.56-.08.71.17.15.25.3.5.44.76.14.25.04.56-.21.7-.08.04-.16.06-.25.06ZM29.15,9.2c-.15,0-.3-.07-.4-.2-.17-.21-.34-.42-.53-.62-.19-.21-.17-.54.04-.73.21-.19.54-.17.73.04.19.22.38.44.56.67.18.22.14.55-.08.72-.1.08-.21.11-.32.11ZM27.41,7.36c-.12,0-.24-.04-.34-.13-.2-.18-.41-.35-.62-.52-.22-.18-.26-.5-.08-.72.18-.22.5-.26.72-.08.23.18.45.37.67.56.21.19.23.52.04.73-.1.11-.24.17-.39.17ZM25.38,5.85c-.09,0-.19-.02-.27-.08-.23-.14-.47-.28-.7-.41-.25-.14-.34-.45-.21-.7.14-.25.45-.34.7-.21.26.14.51.28.76.44.24.15.32.47.17.71-.1.16-.27.24-.44.24ZM23.12,4.72c-.06,0-.13-.01-.19-.04-.25-.1-.51-.19-.76-.28-.27-.09-.42-.38-.33-.65.09-.27.38-.42.65-.33.28.09.55.19.82.3.26.11.39.41.29.67-.08.2-.27.33-.48.33ZM20.7,3.99s-.07,0-.1-.01c-.26-.05-.53-.1-.8-.14-.28-.04-.48-.3-.44-.59.04-.28.3-.47.59-.44.29.04.58.09.86.15.28.06.46.33.4.61-.05.24-.27.41-.5.41Z"/>
    <path class="st1" d="M18.16,3.69h-.02c-.14,0-.27,0-.41,0-.28,0-.52-.23-.52-.52s.23-.52.52-.52c.15,0,.29,0,.44,0,.28,0,.51.25.5.53,0,.28-.24.5-.52.5Z"/>
  </g>
</svg>