<?xml version="1.0" encoding="UTF-8"?>
<svg id="Layer_1" xmlns="http://www.w3.org/2000/svg" version="1.1" viewBox="0 0 35.47 35.47">
  <!-- Generator: Adobe Illustrator 29.5.0, SVG Export Plug-In . SVG Version: 2.1.0 Build 137)  -->
  <defs>
    <style>
      .st0 {
        fill: #0e1120;
      }

      .st1 {
        fill: #f75a55;
      }
    </style>
  </defs>
  <g>
    <path class="st1" d="M10.78,17.52c-.17,0-.32-.14-.32-.32v-5.84c0-.1.05-.2.14-.26l6.96-4.77c.11-.07.25-.07.36,0l6.96,4.77c.09.06.14.16.14.26v5.56c0,.17-.14.32-.32.32s-.32-.14-.32-.32v-5.39l-6.64-4.55-6.64,4.55v5.67c0,.17-.14.32-.32.32Z"/>
    <path class="st0" d="M22.86,23.01c-.86,0-1.29-.48-1.67-.91-.35-.39-.62-.7-1.2-.7s-.85.31-1.2.7c-.38.43-.81.91-1.67.91s-1.29-.48-1.67-.91c-.35-.39-.62-.7-1.2-.7s-.85.31-1.2.7c-.38.43-.81.91-1.67.91s-1.29-.48-1.67-.91c-.16-.18-.31-.35-.49-.48-.14-.1-.17-.3-.07-.44.1-.14.3-.17.44-.07.23.17.41.37.59.57.35.39.62.7,1.2.7s.85-.31,1.2-.7c.38-.43.81-.91,1.67-.91s1.29.48,1.67.91c.35.39.62.7,1.2.7s.85-.31,1.2-.7c.38-.43.81-.91,1.67-.91s1.29.48,1.67.91c.35.39.62.7,1.2.7s.85-.31,1.2-.7c.38-.43.81-.91,1.67-.91.26,0,.49.04.72.14.16.07.24.25.17.41-.07.16-.25.24-.41.17-.14-.06-.3-.09-.47-.09-.58,0-.85.31-1.2.7-.38.43-.81.91-1.67.91Z"/>
    <path class="st0" d="M27.68,17.62"/>
    <path class="st0" d="M22.86,19.8c-.86,0-1.29-.48-1.67-.91-.16-.18-.31-.35-.49-.48-.14-.1-.17-.3-.07-.44.1-.14.3-.18.44-.07.23.17.41.37.59.57.35.39.62.7,1.2.7s.85-.31,1.2-.7c.38-.43.81-.91,1.67-.91.78,0,1.14.33,1.5.73.12.13.11.33-.02.45-.13.12-.33.11-.45-.02-.3-.33-.49-.52-1.03-.52-.58,0-.85.31-1.2.7-.38.43-.81.91-1.67.91Z"/>
    <path class="st0" d="M22.86,19.8c-.86,0-1.29-.48-1.67-.91-.35-.39-.62-.7-1.2-.7s-.85.31-1.2.7c-.38.43-.81.91-1.67.91s-1.29-.48-1.67-.91c-.35-.39-.62-.7-1.2-.7s-.85.31-1.2.7c-.38.43-.81.91-1.67.91s-1.29-.48-1.67-.91c-.16-.18-.31-.35-.49-.48,0,0-.01-.01-.02-.02-.2-.15-.38-.23-.57-.25-.17-.02-.3-.17-.28-.35.02-.17.17-.3.35-.28.32.03.61.16.92.39,0,0,0,0,0,0,.22.16.39.36.56.55.35.39.62.7,1.2.7s.85-.31,1.2-.7c.38-.43.81-.91,1.67-.91s1.29.48,1.67.91c.35.39.62.7,1.2.7s.85-.31,1.2-.7c.38-.43.81-.91,1.67-.91s1.29.48,1.67.91c.35.39.62.7,1.2.7s.85-.31,1.2-.7c.38-.43.81-.91,1.67-.91.26,0,.49.04.72.14.16.07.24.25.17.41-.07.16-.25.24-.41.17-.14-.06-.3-.09-.47-.09-.58,0-.85.31-1.2.7-.38.43-.81.91-1.67.91Z"/>
  </g>
  <path class="st0" d="M17.02,26.38c-.89,0-1.33-.5-1.73-.94-.36-.41-.65-.73-1.25-.73s-.89.32-1.25.73c-.07.08-.15.17-.22.25-.12.13-.32.13-.45,0-.13-.12-.13-.32,0-.45.07-.07.14-.15.21-.23.39-.44.84-.94,1.73-.94s1.33.5,1.73.94c.36.41.65.73,1.25.73s.89-.32,1.25-.73c.39-.44.84-.94,1.73-.94s1.33.5,1.73.94c.3.34.56.63,1,.71.17.03.29.2.26.37-.03.17-.19.29-.37.26-.66-.12-1.03-.54-1.36-.91-.36-.41-.65-.73-1.26-.73s-.89.32-1.25.73c-.39.44-.84.94-1.73.94Z"/>
  <path class="st0" d="M17.74,33.83c-.1,0-.2-.03-.29-.09-3.36-2.25-6.15-5.1-8.28-8.45-4.56-7.16-4.73-14.57-4.43-18.35.01-.14.08-.27.18-.36,1.27-1.08,2.66-2,4.13-2.74,2.67-1.34,5.59-2.08,8.67-2.19,3.12.12,6.04.85,8.71,2.2,1.47.74,2.86,1.66,4.13,2.74.11.09.17.22.18.36.3,3.78.13,11.19-4.43,18.35h0c-2.13,3.35-4.92,6.19-8.28,8.45-.09.06-.19.09-.29.09ZM5.77,7.24c-.27,3.71-.02,10.71,4.28,17.48,2,3.13,4.58,5.8,7.69,7.94,3.11-2.14,5.69-4.81,7.68-7.94h0c4.31-6.76,4.55-13.77,4.28-17.48-1.16-.97-2.42-1.79-3.75-2.46-2.53-1.27-5.31-1.97-8.24-2.08-2.89.11-5.66.81-8.2,2.08-1.33.67-2.59,1.49-3.75,2.46Z"/>
</svg>