<?xml version="1.0" encoding="UTF-8"?>
<svg id="Layer_1" xmlns="http://www.w3.org/2000/svg" version="1.1" viewBox="0 0 35.47 35.47">
  <!-- Generator: Adobe Illustrator 29.5.0, SVG Export Plug-In . SVG Version: 2.1.0 Build 137)  -->
  <defs>
    <style>
      .st0 {
        fill: #fff;
      }

      .st1 {
        opacity: .5;
      }

      .st1, .st2 {
        fill: #f75a55;
      }
    </style>
  </defs>
  <path class="st0" d="M34.39,34.39H13.9v-12.84H1.08V1.08h20.48v12.83h12.84v20.49ZM15.4,32.89h17.49V15.4h-12.84V2.58H2.58v17.48h12.83v12.84Z"/>
  <path class="st2" d="M23.96,26.42c-1.25,0-2.27-1.02-2.27-2.27s1.02-2.27,2.27-2.27,2.27,1.02,2.27,2.27-1.02,2.27-2.27,2.27ZM23.96,22.51c-.91,0-1.64.74-1.64,1.64s.74,1.64,1.64,1.64,1.64-.74,1.64-1.64-.74-1.64-1.64-1.64Z"/>
  <rect class="st2" x="17.13" y="10.37" width=".62" height="14.53" transform="translate(-7.36 17.5) rotate(-45)"/>
  <path class="st1" d="M21.55,21.55h-7.65v-7.65h7.65v7.65ZM15.4,20.05h4.65v-4.65h-4.65v4.65Z"/>
  <path class="st2" d="M11.12,13.58c-1.25,0-2.27-1.02-2.27-2.27s1.02-2.27,2.27-2.27,2.27,1.02,2.27,2.27-1.02,2.27-2.27,2.27ZM11.12,9.67c-.91,0-1.64.74-1.64,1.64s.74,1.64,1.64,1.64,1.64-.74,1.64-1.64-.74-1.64-1.64-1.64Z"/>
</svg>