<?xml version="1.0" encoding="UTF-8"?>
<svg id="Layer_1" xmlns="http://www.w3.org/2000/svg" version="1.1" viewBox="0 0 35.47 35.47">
  <!-- Generator: Adobe Illustrator 29.5.0, SVG Export Plug-In . SVG Version: 2.1.0 Build 137)  -->
  <defs>
    <style>
      .st0 {
        fill: #0e1120;
      }

      .st1 {
        fill: #f75a55;
      }
    </style>
  </defs>
  <rect class="st0" x="19.59" y="7.27" width="8.7" height="12.12" rx="1.11" ry="1.11"/>
  <rect class="st0" x="18" y="22.5" width="9.72" height="4.95" rx="1.26" ry="1.26"/>
  <path class="st0" d="M16.34,20.28v6.07c0,.6-.49,1.1-1.09,1.1h-6.35c-.61,0-1.1-.49-1.1-1.1v-6.07c0-.6.49-1.1,1.1-1.1h6.35c.6,0,1.09.49,1.09,1.1Z"/>
  <path class="st1" d="M17.68,9.07v7c0,.68-.55,1.23-1.24,1.23h-7.41c-.68,0-1.24-.55-1.24-1.23v-7c0-.68.55-1.24,1.24-1.24h7.41c.68,0,1.24.55,1.24,1.24Z"/>
  <polygon class="st0" points="33.26 11.03 31.82 11.03 31.82 3.78 25.39 3.78 25.39 2.34 33.26 2.34 33.26 11.03"/>
  <polygon class="st0" points="3.65 11.03 2.21 11.03 2.21 2.34 10.08 2.34 10.08 3.78 3.65 3.78 3.65 11.03"/>
  <polygon class="st0" points="33.26 33.13 25.39 33.13 25.39 31.69 31.82 31.69 31.82 24.44 33.26 24.44 33.26 33.13"/>
  <polygon class="st0" points="10.08 33.13 2.21 33.13 2.21 24.44 3.65 24.44 3.65 31.69 10.08 31.69 10.08 33.13"/>
</svg>