<?xml version="1.0" encoding="UTF-8"?>
<svg id="Layer_1" xmlns="http://www.w3.org/2000/svg" version="1.1" viewBox="0 0 35.47 35.47">
  <!-- Generator: Adobe Illustrator 29.5.0, SVG Export Plug-In . SVG Version: 2.1.0 Build 137)  -->
  <defs>
    <style>
      .st0 {
        fill: #0e1120;
      }

      .st1 {
        fill: #f75a55;
      }

      .st2 {
        fill: none;
        stroke: #0e1120;
        stroke-linecap: round;
        stroke-miterlimit: 10;
        stroke-width: 1.04px;
      }

      .st3 {
        fill: #0e1120;
      }

      .st4 {
        fill: #f75a55;
      }
    </style>
  </defs>
  <g>
    <path class="st0" d="M5.94,18.93h1.85c.77,0,1.4.63,1.4,1.4v6.96c0,.77-.63,1.4-1.4,1.4h-1.85c-.77,0-1.4-.63-1.4-1.4v-6.96c0-.77.63-1.4,1.4-1.4Z"/>
    <rect class="st0" x="11.26" y="15.82" width="4.66" height="12.87" rx="1.4" ry="1.4"/>
    <path class="st0" d="M19.91,12.72h1.85c.77,0,1.4.63,1.4,1.4v13.17c0,.77-.63,1.4-1.4,1.4h-1.85c-.77,0-1.4-.63-1.4-1.4v-13.17c0-.77.63-1.4,1.4-1.4Z"/>
    <path class="st0" d="M27.16,10.13h2.37c.77,0,1.4.63,1.4,1.4v15.76c0,.77-.63,1.4-1.4,1.4h-2.37c-.77,0-1.4-.63-1.4-1.4v-15.76c0-.77.63-1.4,1.4-1.4Z"/>
  </g>
  <path class="st1" d="M28.35,4.73c-.5,0-.92-.41-.92-.92s.41-.92.92-.92.92.41.92.92-.41.92-.92.92ZM28.35,3.29c-.29,0-.53.24-.53.53s.24.53.53.53.53-.24.53-.53-.24-.53-.53-.53Z"/>
  <circle class="st1" cx="20.76" cy="9.2" r=".87"/>
  <circle class="st1" cx="13.54" cy="7.25" r=".87"/>
  <circle class="st1" cx="7.49" cy="12.29" r=".87"/>
  <g>
    <line class="st2" x1="4.82" y1="32.57" x2="29.75" y2="32.57"/>
    <polygon class="st3" points="27.69 34.33 29.45 32.57 27.69 30.82 29.18 30.82 30.94 32.57 29.18 34.33 27.69 34.33"/>
  </g>
  <path class="st4" d="M7.55,12.49c-.07,0-.15-.03-.2-.09-.09-.11-.08-.27.03-.37l6.15-5.17,7.26,2.2,6.78-4.96c.12-.09.28-.06.36.06s.06.28-.06.36l-6.99,5.11-7.24-2.19-5.93,4.99s-.11.06-.17.06Z"/>
</svg>