<?xml version="1.0" encoding="UTF-8"?>
<svg id="Layer_1" data-name="Layer 1" xmlns="http://www.w3.org/2000/svg" viewBox="0 0 34.45 34.34">
  <path d="M34.41,18.68c-.04.62-.36,1.13-.66,1.56-.52.73-1.2,1.31-2.03,1.72-.1.05-.2.09-.31.14-.04,0-.07.03-.1.04.04.11.11.23.18.36.08.15.16.29.23.44.35.75.33,1.5.32,2.17-.02.62-.22,1.07-.41,1.47l-.09.2c-.15.36-.48.57-.87.57-.06,0-.12,0-.17-.01-.17-.02-.31-.11-.41-.24-.1-.14-.14-.3-.11-.46.04-.27.24-.47.5-.52l.04-.07c.13-.3.27-.6.28-.89,0-.66.03-1.21-.2-1.7-.05-.1-.11-.2-.16-.3-.15-.26-.27-.47-.36-.73-.33-.04-.55-.27-.58-.55-.03-.34.22-.64.56-.68h.12c.07,0,.14.01.21.02.19-.13.38-.21.55-.27.08-.03.16-.06.23-.1.64-.32,1.17-.76,1.57-1.33.21-.3.41-.62.44-.94.04-.59.04-1.11,0-1.6-.02-.2-.07-.39-.17-.61-.19-.4-.41-.75-.68-1.05-.05.03-.09.05-.13.08-.58.37-1.12.44-1.62.47h-.04c-.32,0-.59-.26-.61-.58-.03-.34.23-.64.58-.66.38-.02.7-.07.95-.23.37-.24.61-.38.75-.62.4-.68.53-1.2.44-1.72-.1-.59-.35-1.06-.74-1.41-.41-.35-.9-.61-1.47-.76-.15-.04-.62-.09-.78-.09h-.02c-.39,0-.65-.24-.68-.55-.04-.32.17-.6.47-.67.02-.1.04-.19.06-.28.05-.21.1-.41.1-.6.02-.83-.3-1.46-.98-2-.39-.3-.82-.51-1.29-.63-.11-.02-.25-.03-.43-.03h-.29s-.15-.01-.15-.01c-.01.04-.02.07-.03.11-.09.44-.24,1-.65,1.48-.17.2-.4.3-.67.3-.08,0-.15-.01-.2-.01-.35-.05-.61-.37-.57-.69.04-.32.28-.56.59-.56v.07c.16-.25.24-.59.29-.84.03-.17.08-.36.17-.56-.06-.15-.09-.29-.13-.43-.02-.1-.04-.18-.06-.25-.23-.74-.71-1.32-1.52-1.81-.65-.4-1.31-.6-1.97-.6-1.39.03-2.44.52-3.22,1.46-.03.04-.06.09-.1.14-.08.12-.17.24-.28.35-.06.06-.12.12-.19.17,0,.34,0,.69-.01,1.03,0,.77-.01,1.56.03,2.32,0,.17-.05.32-.16.45-.11.12-.26.19-.43.2h-.03c-.33,0-.6-.26-.62-.59-.04-.79-.03-1.6-.03-2.37.01-.35.01-.69.01-1.03-.05-.04-.11-.08-.17-.14-.15-.14-.26-.29-.36-.43-.06-.08-.11-.16-.17-.22-.7-.78-1.54-1.2-2.57-1.29-.16-.02-.32-.02-.48-.02-1.38,0-2.45.57-3.25,1.75-.19.28-.29.63-.4,1.02l-.04.15c-.17.58-.46.82-1,.82h-.14s-.49-.05-.49-.05c-.16-.01-.31-.09-.42-.22-.1-.13-.15-.29-.14-.45.03-.32.3-.57.62-.57l.4.04v-.05c.14-.44.28-.94.58-1.39C9.67.8,11.12.03,12.93.03c.18,0,.37.01.57.02,1.33.12,2.47.69,3.38,1.7.09.1.17.2.25.31.05.07.09.14.14.19.03-.03.05-.07.07-.1.07-.09.12-.17.18-.24,1.01-1.23,2.38-1.88,4.07-1.91.98,0,1.87.27,2.72.78,1.07.66,1.74,1.48,2.05,2.51.03.1.06.21.09.32.01.06.03.12.04.18.04,0,.43,0,.43,0,.21,0,.44.01.68.07.64.15,1.24.44,1.76.86.99.77,1.48,1.77,1.46,2.99,0,.31-.07.59-.13.85-.01.04-.01.07-.02.1.03,0,.06,0,.08.02.76.2,1.42.55,1.96,1.03.62.54,1.01,1.26,1.16,2.13.18,1.06-.23,1.93-.6,2.56-.01.02-.03.04-.04.06.35.4.66.86.89,1.38.16.35.25.67.28,1,.06.56.06,1.16.01,1.83Z" fill="#e7556c"></path>
  <path d="M13.39,28.1c-.12,0-.23-.03-.33-.09l-.2-.12c-1.1-.62-1.79-1.61-2.06-2.94-.06-.3-.07-.58-.07-.85,0-.17,0-.29-.02-.42-.01-.16.04-.32.15-.45.11-.13.26-.2.42-.22h0c.36,0,.64.25.66.57.01.16.02.32.02.48,0,.23,0,.44.05.64.2.98.67,1.67,1.45,2.1.06.04.12.07.18.11.36.22.45.61.27.9-.11.18-.31.29-.53.29Z" fill="#e7556c"></path>
  <path d="M6.1,17.79c-.15-.04-.29-.14-.37-.28-.08-.14-.11-.31-.07-.47l.11-.43c.33-1.38,1.1-2.43,2.3-3.11.25-.14.51-.23.76-.32.12-.04.22-.08.32-.11.07-.03.14-.04.22-.04.25,0,.49.16.58.4.06.15.06.32-.01.47-.07.15-.19.27-.34.33-.11.04-.22.08-.34.12-.21.07-.4.14-.57.23-.89.5-1.46,1.28-1.71,2.31l-.11.46c-.07.27-.31.46-.6.46l-.16-.02Z" fill="#e7556c"></path>
  <path d="M29.67,28.03c-.07-.28-.32-.48-.6-.48l-.14.02c-.18.04-.34.16-.42.32-.2.09-.43.16-.69.23l-.39.11c-.71.19-.94.51-.93,1.34.01.77-.3,1.48-.94,2.17-.58.62-1.35,1.04-2.27,1.25-.33.08-.68.12-1.03.12-.38,0-.77-.05-1.15-.14-1.14-.27-1.99-.81-2.59-1.64-.03-.05-.06-.09-.11-.17-.11-.18-.24-.4-.47-.59t-.02-.01h0c0-.21-.01-.41-.02-.6,0-.15-.01-.3-.01-.46,0-.89.01-4.74.01-4.74v-.21c-.01-.07-.02-.13-.02-.2.13-.01.26-.02.38-.02h.29c.6-.01,1.07.06,1.49.2.78.25,1.21,1.07,1.23,1.78-.09.03-.17.08-.24.13-.44.31-.71.72-.76,1.18-.03.3.02.75.45,1.19.36.38.76.58,1.18.58.37,0,.74-.16,1.12-.46.31-.26.49-.66.49-1.12,0-.49-.2-.95-.54-1.23-.15-.12-.31-.21-.46-.28-.03-1.19-.75-2.51-2.08-2.95-.55-.18-1.14-.27-1.88-.27-.11,0-.21.01-.32.01-.13.01-.25.01-.37.03,0-.08,0-.18.02-.28.01-.15.02-.3.02-.45-.01-.43-.01-.86-.01-1.3v-.91h-.47c-.34-.02-.61-.31-.6-.65.01-.34.28-.6.63-.6h.44c.01-.87.01-1.75,0-2.64v-.18h.28c.34,0,.69,0,1.03-.02h.52c.9-.03,1.83-.05,2.76-.22l.33-.05c.58-.1,1.18-.2,1.77-.48.43-.2.98-.5,1.42-1.06.52-.65.79-1.38.83-2.19h0c.3-.15.64-.36.85-.78.19-.4.21-.86.06-1.28-.15-.38-.44-.69-.79-.84-.16-.07-.32-.13-.49-.17-.04-.01-.08-.01-.15-.01h-.09c-.4.04-.86.14-1.22.58-.3.37-.42.86-.33,1.33.1.47.39.86.81,1.08.03.02.07.04.1.05-.03.54-.21,1.03-.55,1.46-.22.28-.52.5-.97.71-.44.21-.94.29-1.46.38l-.33.05c-.83.15-1.7.17-2.58.19h-.52c-.4.02-.8.03-1.2.03h-.08c.01-.93.01-1.87,0-2.8h1.1c.54,0,1.08-.1,1.64-.31.7-.26,1.2-.75,1.56-1.54.21-.45.25-.9.29-1.29,0-.02,0-.03,0-.05.17-.09.32-.18.46-.28.35-.27.55-.71.56-1.18,0-.5-.23-.98-.61-1.28-.27-.21-.63-.33-1-.33-.29,0-.58.07-.81.2-.6.36-.93,1.08-.78,1.71.13.51.44.89.91,1.09.01,0,.02.01.03.01-.03.33-.06.62-.18.88-.23.48-.49.75-.88.9-.41.15-.82.23-1.22.23h-1.08c.01-.26,0-.54,0-.82,0-.48,0-.98.03-1.46.02-.34-.24-.63-.62-.66-.33,0-.6.26-.62.59-.03.52-.03,1.04-.03,1.62.01.24.01.49,0,.73,0,.21.05.39.09.53.01.04.03.09.03.09,0,.02-.02.06-.03.1-.04.12-.09.29-.09.49.01.96.01,1.92,0,2.87,0,.21.05.38.09.5.01.04.02.07.03.07,0,.03-.02.07-.03.12-.04.12-.09.29-.09.48v.22c.01.89.01,1.77,0,2.66,0,.2.05.37.08.48,0,.03.02.07.03.07-.01.05-.02.1-.04.16-.03.13-.07.3-.07.49v.93c0,.44,0,.89.01,1.33,0,.1-.01.2-.02.32-.02.3-.05.66.09,1.04-.09.29-.09.58-.08.8v.18s0,3.84,0,4.74c0,.17.01.34.02.52,0,.18,0,.35,0,.51-.03.02-.05.04-.08.06-.17.15-.27.31-.35.44l-.07.11c-.68.99-1.6,1.61-2.74,1.85-.37.08-.74.12-1.1.12-.83,0-1.63-.22-2.38-.63-.86-.49-1.46-1.18-1.77-2.05-.09-.25-.13-.55-.14-.87v-.12c.01-.12.02-.29-.03-.49.06-.13.11-.25.16-.38.15-.35.28-.66.52-.85.27-.21.32-.6.11-.87-.12-.15-.29-.24-.49-.24-.13,0-.27.04-.38.13-.5.39-.72.93-.91,1.38-.01.03-.03.07-.04.1-.06.13-.11.26-.19.39-.1.19-.09.41.02.62v.23s0,.07,0,.1c0,.47.08.9.21,1.28.42,1.17,1.2,2.08,2.34,2.72.93.52,1.93.78,2.97.78.45,0,.9-.04,1.36-.14,1.46-.31,2.65-1.1,3.51-2.36l.1-.15s.04.07.06.11c.05.08.11.17.17.26.77,1.07,1.88,1.78,3.3,2.11.48.12.97.17,1.44.17.44,0,.88-.04,1.31-.14,1.16-.27,2.14-.81,2.89-1.61.88-.94,1.29-1.93,1.28-3.04v-.12s.41-.12.41-.12c.34-.09.69-.19,1.05-.38.38-.19.55-.52.47-.9ZM21.73,27.47s.1-.06.15-.09l.04.02c.1.04.2.09.26.13.04.04.09.14.09.27,0,.11-.03.16-.04.17-.14.12-.25.18-.33.18-.03,0-.11,0-.28-.19-.05-.05-.12-.14-.11-.21,0-.07.07-.18.22-.28ZM25.96,10.37s.11-.09.3-.12c.07.02.14.05.21.08.03.01.08.06.11.14.03.1.03.2-.01.3-.04.08-.12.13-.33.22-.05-.03-.11-.06-.19-.08-.08-.05-.14-.13-.16-.23-.02-.11,0-.22.07-.31ZM21.72,7.08s.08-.03.18-.03c.06,0,.16.01.24.07s.13.17.13.29c0,.11-.04.18-.07.2-.08.06-.16.12-.26.17-.08-.04-.16-.08-.23-.11-.08-.03-.16-.09-.19-.25-.02-.07.05-.25.2-.34Z" fill="#e7556c"></path>
  <path d="M4.62,22.07c-.03.12-.07.24-.12.34-.09.22-.2.4-.31.57-.09.14-.17.27-.23.41-.12.29-.19.61-.22.97,0,.12-.02.24-.04.36v.14c-.05.31-.32.55-.63.55h-.06c-.35-.05-.59-.36-.56-.69l.02-.16c.02-.1.03-.19.04-.29.03-.49.14-.94.31-1.36.09-.21.21-.4.32-.59.04-.06.07-.12.11-.17.07-.12.13-.24.16-.36.06-.27.32-.48.6-.48l.14.02c.34.08.54.41.47.74Z" fill="#e7556c"></path>
  <path d="M7.08,10.21c-.06.28-.31.48-.6.48l-.14-.02c-.27-.06-.45-.29-.48-.55l-.05-.04c-.18-.11-.42-.17-.68-.23-.18-.05-.35-.09-.51-.14-.2.1-.4.15-.57.19-.1.03-.19.05-.27.08-1.02.37-1.58.94-1.84,1.86-.16.57-.06,1.14.31,1.8l.14.17s.05.06.06.09c.27.4.25.86-.07,1.24-.01.02-.03.04-.05.06-.32.35-.64.73-.81,1.17-.24.61-.32,1.13-.26,1.64.16,1.27.87,2.19,2.24,2.9.05.02.1.05.16.07.15.06.31.13.46.23.07-.02.14-.03.21-.03s.15.01.22.03c.32.1.51.44.42.77-.06.23-.25.39-.47.43.05-.1.09-.22.12-.34.07-.33-.13-.66-.47-.74l-.14-.02c-.28,0-.54.21-.6.48-.03.12-.09.24-.16.36-.01,0-.03-.01-.05-.02-.11-.05-.19-.08-.28-.12-1.74-.9-2.68-2.16-2.89-3.86-.09-.71.02-1.43.34-2.23.22-.58.58-1.04.95-1.45-.06-.09-.11-.15-.15-.22-.54-.97-.67-1.84-.42-2.74.36-1.31,1.21-2.19,2.61-2.69.11-.04.22-.07.33-.1.07-.02.14-.04.2-.06-.01-.05-.02-.1-.03-.15-.28-1.03-.13-2.01.44-2.91.22-.34.5-.64.83-.87.07-.24.27-.42.52-.46h.02c.39,0,.64.22.68.53.05.36-.1.68-.42.89-.23.14-.43.34-.59.58-.38.6-.48,1.23-.29,1.92.04.12.06.25.08.38.1.02.19.04.29.07.34.08.71.18,1.07.4.22.14.76.48.59,1.17Z" fill="#e7556c"></path>
  <path d="M6.81,29.23v.23c-.33-.08-.63-.2-.9-.3l-.23-.09c-.9-.34-1.7-.95-2.35-1.8-.1-.12-.15-.29-.13-.45.03-.17.11-.31.24-.41.11-.09.24-.13.38-.13.19,0,.37.08.49.24.51.66,1.13,1.13,1.81,1.39l.24.1c.22.08.42.16.62.21-.06.13-.11.26-.19.39-.1.19-.09.41.02.62Z" fill="#e7556c"></path>
  <path d="M11.34,9.74c-.34,0-.62-.28-.62-.62v-.32c0-.23.13-.44.33-.55l.17-.09c.12-.06.22-.11.31-.17.84-.49,1.3-1.16,1.41-2.03.03-.31.31-.55.62-.55.23.02.38.11.48.24s.15.29.13.46c-.15,1.27-.83,2.26-2.01,2.96-.06.04-.13.07-.19.11-.03.31-.3.56-.62.56Z" fill="#e7556c"></path>
  <path d="M11.97,19.72c-.17,0-.32-.08-.43-.21-.11-.12-.17-.28-.16-.45.02-.32.3-.58.62-.58.53-.32.77-.81.77-1.57,0-.34.28-.62.62-.62.17,0,.32.06.44.18.12.12.18.27.18.44,0,1.19-.44,2.05-1.34,2.63-.19.12-.39.18-.62.18h-.07Z" fill="#e7556c"></path>
  <path d="M27.19,23.2c-.11-.08-.24-.16-.37-.22-.03-.86-.36-1.65-.99-2.35-.61-.68-1.4-.97-2.16-1.2-.84-.26-1.69-.32-2.53-.38-.87-.06-1.75-.08-2.6-.09l-.65-.02h-.44c-.35-.01-.62.25-.63.59-.01.34.26.63.6.64h.47s.66.03.66.03c.82.01,1.68.03,2.56.09.74.05,1.5.11,2.19.32.62.19,1.21.4,1.61.85.44.48.66.99.68,1.56-.13.06-.25.13-.37.22-.41.31-.62.79-.58,1.32.05.57.39,1.09.89,1.36.2.1.43.16.66.16.2,0,.4-.04.59-.11.45-.18.82-.54.98-.97.25-.68.03-1.39-.57-1.8ZM26.6,24.57c-.04.1-.14.19-.26.24-.04.01-.07.02-.12.02-.03,0-.07,0-.11-.01-.13-.07-.22-.21-.23-.36-.01-.1.02-.18.09-.24.06-.04.13-.07.26-.14,0,0,0-.01.02-.01.09.05.17.1.24.15.11.08.18.17.11.35Z" fill="#e7556c"></path>
</svg>