<?xml version="1.0" encoding="UTF-8"?>
<svg id="Layer_1" data-name="Layer 1" xmlns="http://www.w3.org/2000/svg" viewBox="0 0 35.47 35.47">
  <path d="M20.34,17.74c0,1.44-1.17,2.6-2.6,2.6s-2.61-1.16-2.61-2.6,1.17-2.6,2.61-2.6,2.6,1.16,2.6,2.6Z" fill="#F75A55" isolation="isolate" opacity=".06"></path>
  <path d="M17.74,3.54c-7.85,0-14.21,6.36-14.21,14.2s6.36,14.21,14.21,14.21,14.2-6.36,14.2-14.21S25.58,3.54,17.74,3.54ZM17.74,28c-5.67,0-10.26-4.59-10.26-10.26s4.59-10.26,10.26-10.26,10.25,4.59,10.25,10.26-4.59,10.26-10.25,10.26Z" fill="#F75A55" isolation="isolate" opacity=".06"></path>
  <path d="M17.74,5.9c-6.54,0-11.84,5.3-11.84,11.84s5.3,11.84,11.84,11.84,11.83-5.3,11.83-11.84-5.3-11.84-11.83-11.84ZM17.74,28c-5.67,0-10.26-4.59-10.26-10.26s4.59-10.26,10.26-10.26,10.25,4.59,10.25,10.26-4.59,10.26-10.25,10.26Z" fill="#F75A55" isolation="isolate" opacity=".08"></path>
  <path d="M20.34,17.74c0,1.44-1.17,2.6-2.6,2.6s-2.61-1.16-2.61-2.6,1.17-2.6,2.61-2.6,2.6,1.16,2.6,2.6Z" fill="#F75A55"></path>
  <line x1="17.74" y1=".29" x2="17.74" y2="12.61" fill="none" stroke="#F75A55" stroke-linecap="round" stroke-linejoin="round" stroke-width=".58"></line>
  <line x1="17.74" y1="22.86" x2="17.74" y2="35.18" fill="none" stroke="#F75A55" stroke-linecap="round" stroke-linejoin="round" stroke-width=".58"></line>
  <g>
    <line x1="35.18" y1="17.74" x2="22.86" y2="17.74" fill="none" stroke="#F75A55" stroke-linecap="round" stroke-linejoin="round" stroke-width=".58"></line>
    <line x1="12.61" y1="17.74" x2=".29" y2="17.74" fill="none" stroke="#F75A55" stroke-linecap="round" stroke-linejoin="round" stroke-width=".58"></line>
  </g>
</svg>