<?xml version="1.0" encoding="UTF-8"?>
<svg id="Layer_1" xmlns="http://www.w3.org/2000/svg" version="1.1" viewBox="0 0 32.05 31.73">
  <!-- Generator: Adobe Illustrator 29.5.0, SVG Export Plug-In . SVG Version: 2.1.0 Build 137)  -->
  <defs>
    <style>
      .st0 {
        opacity: .5;
      }

      .st0, .st1 {
        fill: #e7556c;
      }
    </style>
  </defs>
  <path class="st1" d="M16.02,29.44c-.06,0-.11-.01-.16-.04l-13.37-7.43c-.11-.06-.18-.18-.17-.3,0-.13.08-.24.19-.29l4.03-1.95c.1-.05.21-.04.31,0l9.18,5.1,9.19-5.1c.09-.05.21-.06.31,0l4.03,1.95c.11.05.19.17.19.29,0,.13-.06.24-.17.3l-13.38,7.43c-.05.03-.11.04-.16.04ZM3.38,21.7l12.65,7.03,12.65-7.03-3.29-1.59-9.2,5.11c-.1.06-.22.06-.33,0l-9.19-5.11-3.29,1.59Z"/>
  <g>
    <polygon class="st0" points="29.4 17.48 25.37 19.72 16.02 24.92 6.68 19.72 2.65 17.48 6.68 15.53 10.71 17.77 16.02 20.72 21.34 17.77 25.37 15.53 29.4 17.48"/>
    <path class="st1" d="M16.02,25.25c-.06,0-.11-.01-.16-.04l-13.37-7.43c-.11-.06-.18-.18-.17-.3,0-.13.08-.24.19-.29l4.03-1.95c.1-.05.21-.04.31,0l9.18,5.1,9.19-5.1c.09-.05.21-.06.31,0l4.03,1.95c.11.05.19.17.19.29,0,.13-.06.24-.17.3l-13.38,7.43c-.05.03-.11.04-.16.04ZM3.38,17.51l12.65,7.03,12.65-7.03-3.29-1.59-9.2,5.11c-.1.06-.22.06-.33,0l-9.19-5.11-3.29,1.59Z"/>
  </g>
  <path class="st1" d="M16.02,21.06c-.06,0-.11-.01-.16-.04L2.49,13.59c-.11-.06-.18-.18-.17-.3,0-.13.08-.24.19-.29l4.03-1.95c.1-.05.21-.04.31,0l9.18,5.1,9.19-5.1c.09-.05.21-.06.31,0l4.03,1.95c.11.05.19.17.19.29,0,.13-.06.24-.17.3l-13.38,7.43c-.05.03-.11.04-.16.04ZM3.38,13.31l12.65,7.03,12.65-7.03-3.29-1.59-9.2,5.11c-.1.06-.22.06-.33,0l-9.19-5.11-3.29,1.59Z"/>
  <path class="st1" d="M16.02,16.87c-.06,0-.11-.01-.16-.04L2.49,9.39c-.11-.06-.18-.18-.17-.3,0-.13.08-.24.19-.29L15.88,2.32c.09-.04.2-.04.29,0l13.38,6.48c.11.05.19.17.19.29,0,.13-.06.24-.17.3l-13.38,7.43c-.05.03-.11.04-.16.04ZM3.38,9.12l12.65,7.03,12.65-7.03-12.65-6.13L3.38,9.12Z"/>
</svg>