<?xml version="1.0" encoding="UTF-8"?>
<svg id="Layer_1" xmlns="http://www.w3.org/2000/svg" version="1.1" viewBox="0 0 35.47 35.47">
  <!-- Generator: Adobe Illustrator 29.5.0, SVG Export Plug-In . SVG Version: 2.1.0 Build 137)  -->
  <defs>
    <style>
      .st0 {
        fill: #f75a55;
      }

      .st1 {
        fill: #0e1120;
      }
    </style>
  </defs>
  <g>
    <path class="st1" d="M29.11,8.76v2.4h-3.96v-.56h3.4v-1.84c.09.03.18.04.28.04s.19-.02.28-.05Z"/>
    <path class="st1" d="M28.83,6.71c-.65,0-1.18.53-1.18,1.19,0,.56.39,1.03.91,1.15.09.02.18.03.28.03s.19-.01.28-.03c.52-.13.91-.59.91-1.15,0-.65-.53-1.19-1.19-1.19ZM29.11,8.76c-.09.03-.18.05-.28.05s-.19-.02-.28-.04c-.37-.12-.63-.46-.63-.86,0-.5.41-.91.91-.91s.91.41.91.91c0,.4-.26.75-.63.86Z"/>
  </g>
  <g>
    <path class="st1" d="M29.74,23.77v2.4c-.09-.03-.18-.04-.28-.04s-.19.02-.28.05v-1.84h-3.4v-.56h3.96Z"/>
    <path class="st1" d="M29.74,25.89c-.09-.03-.18-.04-.28-.04s-.19.01-.28.04c-.52.12-.91.59-.91,1.15,0,.66.53,1.19,1.19,1.19s1.18-.53,1.18-1.19c0-.56-.39-1.03-.91-1.15ZM29.47,27.95c-.5,0-.91-.41-.91-.91,0-.4.26-.75.63-.86.09-.03.18-.05.28-.05s.19.02.28.04c.37.12.63.46.63.86,0,.5-.41.91-.91.91Z"/>
  </g>
  <g>
    <path class="st1" d="M10.01,10.61v.56h-3.96v-2.4c.09.03.18.04.28.04s.19-.02.28-.05v1.85h3.4Z"/>
    <path class="st1" d="M6.33,6.71c-.65,0-1.18.53-1.18,1.19,0,.56.39,1.03.91,1.15.09.02.18.03.28.03s.19-.01.28-.03c.52-.13.91-.59.91-1.15,0-.65-.53-1.19-1.19-1.19ZM6.61,8.76c-.09.03-.18.05-.28.05s-.19-.02-.28-.04c-.37-.12-.63-.46-.63-.86,0-.5.41-.91.91-.91s.91.41.91.91c0,.4-.26.75-.63.86Z"/>
  </g>
  <g>
    <path class="st1" d="M10.01,23.77v.56h-3.4v1.84c-.09-.03-.18-.05-.28-.05s-.19.02-.28.04v-2.4h3.96Z"/>
    <path class="st1" d="M6.61,25.89c-.09-.03-.18-.04-.28-.04s-.19.01-.28.04c-.52.12-.91.59-.91,1.15,0,.66.53,1.19,1.18,1.19s1.19-.53,1.19-1.19c0-.56-.39-1.02-.91-1.15ZM6.33,27.95c-.5,0-.91-.41-.91-.91,0-.4.26-.75.63-.86.09-.03.18-.04.28-.04s.19.02.28.05c.36.11.63.46.63.86,0,.5-.41.91-.91.91Z"/>
  </g>
  <g>
    <path class="st1" d="M31.78,17.71c0,.1.02.19.04.28h-3.52v-.56h3.52c-.03.09-.05.18-.05.28Z"/>
    <path class="st1" d="M32.69,16.52c-.56,0-1.03.38-1.15.91-.02.09-.03.18-.03.28s.01.19.03.28c.12.52.59.91,1.15.91.66,0,1.19-.53,1.19-1.18s-.53-1.19-1.19-1.19ZM32.69,18.61c-.4,0-.75-.26-.86-.63-.03-.09-.04-.18-.04-.28s.02-.19.05-.28c.11-.37.46-.63.86-.63.5,0,.91.41.91.91s-.41.91-.91.91Z"/>
  </g>
  <g>
    <path class="st1" d="M7.65,17.42v.56h-4c.03-.09.04-.18.04-.28s-.02-.19-.05-.28h4Z"/>
    <path class="st1" d="M3.93,17.42c-.12-.52-.59-.91-1.15-.91-.65,0-1.19.53-1.19,1.19s.53,1.18,1.19,1.18c.56,0,1.03-.39,1.15-.91.02-.09.03-.18.03-.28s-.01-.19-.03-.28ZM2.78,18.61c-.5,0-.91-.41-.91-.91s.41-.91.91-.91c.4,0,.75.26.86.63.03.09.05.18.05.28s-.02.19-.04.28c-.12.37-.46.63-.86.63Z"/>
  </g>
  <path class="st1" d="M17.75,28.26c-5.8,0-10.52-4.72-10.52-10.52s4.72-10.52,10.52-10.52,10.52,4.72,10.52,10.52-4.72,10.52-10.52,10.52ZM17.75,7.87c-5.44,0-9.86,4.43-9.86,9.86s4.42,9.86,9.86,9.86,9.86-4.43,9.86-9.86-4.42-9.86-9.86-9.86Z"/>
  <path class="st0" d="M22.63,15.9l-5.33,14.13c-.05.13-.2.22-.36.22-.02,0-.04,0-.06,0-.18-.02-.32-.15-.32-.31v-10.56h-3.32c-.12,0-.24-.05-.31-.13-.08-.08-.09-.19-.05-.28,2.12-5.09,5.3-12.85,5.4-13.42h0c0-.18.17-.31.38-.31s.38.15.38.33v9.94h3.23c.11,0,.23.04.31.13.07.08.09.18.05.28Z"/>
</svg>