<svg xmlns="http://www.w3.org/2000/svg" viewBox="0 0 48 48">
  <path d="M12 26c0-7 5-12 12-12s12 5 12 12v10a3 3 0 0 1-3 3H15a3 3 0 0 1-3-3z" fill="#7e22ce"/>
  <path d="M14 14l4 6M34 14l-4 6" stroke="#7e22ce" stroke-width="3" stroke-linecap="round"/>
  <circle cx="19" cy="27" r="3" fill="#fde68a"/>
  <circle cx="29" cy="27" r="3" fill="#fde68a"/>
  <circle cx="19" cy="27" r="1.3" fill="#0b1220"/>
  <circle cx="29" cy="27" r="1.3" fill="#0b1220"/>
  <path d="M19 34h10l-2 3h-6z" fill="#0b1220"/>
  <rect x="22.5" y="18" width="3" height="6" rx="1.5" fill="#f87171"/>
  <path d="M24 16a4 4 0 1 0 0 0" fill="none" stroke="#f87171" stroke-width="2"/>
</svg>
