<?xml version="1.0" encoding="UTF-8"?>
<svg id="Layer_2" data-name="Layer 2" xmlns="http://www.w3.org/2000/svg" xmlns:xlink="http://www.w3.org/1999/xlink" viewBox="0 0 1280 800">
  <defs>
    <style>
      .cls-1 {
        letter-spacing: -.02em;
      }

      .cls-2 {
        letter-spacing: 0em;
      }

      .cls-3 {
        letter-spacing: -.03em;
      }

      .cls-4 {
        letter-spacing: -.02em;
      }

      .cls-5 {
        stroke: #e6e6e6;
        stroke-dasharray: 2.38 2.38;
      }

      .cls-5, .cls-6 {
        stroke-width: .79px;
      }

      .cls-5, .cls-6, .cls-7 {
        fill: none;
      }

      .cls-8 {
        letter-spacing: -.05em;
      }

      .cls-9 {
        fill: #9ca3af;
        font-size: 7.92px;
      }

      .cls-9, .cls-10, .cls-11 {
        isolation: isolate;
      }

      .cls-9, .cls-11 {
        font-family: Stolzl-Light, Stolzl;
        font-weight: 300;
      }

      .cls-12 {
        letter-spacing: -.08em;
      }

      .cls-6 {
        stroke: #666;
      }

      .cls-7 {
        stroke: #ed6359;
        stroke-miterlimit: 10;
      }

      .cls-13 {
        letter-spacing: 0em;
      }

      .cls-14 {
        fill: url(#linear-gradient);
        fill-opacity: .3;
        opacity: .28;
      }

      .cls-15 {
        letter-spacing: -.03em;
      }

      .cls-16 {
        letter-spacing: -.01em;
      }

      .cls-17 {
        letter-spacing: 0em;
      }

      .cls-11 {
        fill: #95a5a6;
        font-size: 7.13px;
      }
    </style>
    <linearGradient id="linear-gradient" x1="592.89" y1="746.74" x2="592.89" y2="492.73" gradientUnits="userSpaceOnUse">
      <stop offset="0" stop-color="#fff" stop-opacity=".5"/>
      <stop offset="1" stop-color="#ed6359"/>
    </linearGradient>
  </defs>
  <path id="recharts-area-_r_6p_" data-name="recharts-area- r 6p " class="cls-14" d="M155.75,617.34c1.75,4.66,3.49,9.32,5.24,12.38,1.74,3.06,3.49,5.99,5.24,5.99s3.49-.13,5.23-.4c1.75-.27,3.49-1.73,5.24-2,1.75-.27,3.49-.13,5.24-.4,1.74-.27,3.49-56.31,5.24-65.1,1.74-8.79,3.49-13.18,5.23-13.18s3.49,11.58,5.24,11.58,3.49-.53,5.24-1.6c1.75-1.07,3.49-28.36,5.24-40.34,1.74-11.98,3.49-31.55,5.24-31.55s3.49,17.84,5.23,24.36c1.75,6.52,3.49,14.78,5.24,14.78s3.49-2.8,5.24-2.8,3.49,10.85,5.24,18.77c1.74,7.92,3.49,24.76,5.23,28.76,1.75,3.99,3.49,3.79,5.24,5.99,1.75,2.2,3.49,7.19,5.24,7.19s3.49-4.39,5.24-4.39,3.49,13.18,5.24,13.18,3.49-2.8,5.23-2.8,3.49,4.66,5.24,6.39c1.75,1.73,3.49,1.33,5.24,3.99,1.74,2.66,3.49,21.03,5.24,22.37,1.74,1.33,3.49.93,5.23,2,1.75,1.07,3.49,4.39,5.24,4.39s3.49-2.4,5.24-2.4,3.49.4,5.24.4,3.49-3.2,5.24-9.59c1.74-6.39,3.49-52.72,5.23-52.72s3.49.8,5.24.8,3.49-39.54,5.24-39.54,3.49,26.76,5.24,26.76,3.49-20.37,5.23-20.37,3.49,23.7,5.24,35.55c1.75,11.85,3.49,35.55,5.24,35.55s3.49-4.66,5.24-7.99c1.74-3.33,3.49-4.99,5.24-11.98,1.74-6.99,3.49-29.95,5.23-29.95s3.49,10.78,5.24,10.78h5.24c1.75,0,3.49,5.72,5.24,5.99,1.74.27,3.49.13,5.23.4,1.75.27,3.49,17.91,5.24,23.16,1.75,5.26,3.49,6.46,5.24,8.39,1.75,1.93,3.49,1.86,5.24,3.2,1.74,1.33,3.49,2.13,5.24,4.79,1.74,2.66,3.49,8.39,5.23,11.18,1.75,2.8,3.49,4.79,5.24,5.59,1.75.8,3.49.93,5.24,1.2s3.49.4,5.24.4h5.23c1.75,0,3.49-3.59,5.24-10.78,1.75-7.19,3.49-59.11,5.24-59.11s3.49,9.59,5.24,9.59,3.49-22.77,5.24-22.77,3.49,35.15,5.23,53.12c1.75,17.97,3.49,54.72,5.24,54.72s3.49-1.6,5.24-4.79c1.75-3.2,3.49-7.19,5.24-14.38,1.74-7.19,3.49-19.97,5.23-28.76,1.75-8.79,3.49-15.91,5.24-23.96,1.75-8.05,3.49-12.45,5.24-24.36,1.75-11.92,3.49-43.93,5.24-47.13,1.74-3.2,3.49-3.59,5.24-4.79,1.74-1.2,3.49-2.4,5.23-2.4s3.49,24.83,5.24,39.94c1.75,15.11,3.49,45.13,5.24,50.72,1.75,5.59,3.49,8.39,5.24,8.39s3.49-2,5.23-2,3.49,6.92,5.24,11.98c1.75,5.06,3.49,18.37,5.24,18.37s3.49-1.86,5.24-2.4c1.74-.53,3.49-.47,5.24-.8,1.74-.33,3.49-1.2,5.23-1.2s3.49,2,5.24,2,3.49-2,5.24-5.99c1.75-3.99,3.49-50.46,5.24-52.32,1.74-1.86,3.49-.93,5.23-2.8,1.75-1.86,3.49-16.84,5.24-21.97,1.75-5.13,3.49-6.92,5.24-8.79,1.75-1.86,3.49-2.8,5.24-2.8h5.24c1.74,0,3.49,38.34,5.23,38.34s3.49-25.56,5.24-25.56,3.49,7.26,5.24,11.18c1.75,3.93,3.49,10.25,5.24,12.38,1.74,2.13,3.49,3.19,5.24,3.19s3.49-3.99,5.23-3.99,3.49,8.92,5.24,10.78c1.75,1.86,3.49.93,5.24,2.8,1.74,1.86,3.49,14.18,5.24,18.37,1.74,4.19,3.49,4.79,5.23,6.79,1.75,2,3.49,3.26,5.24,5.19,1.75,1.93,3.49,4.53,5.24,6.39,1.75,1.86,3.49,3.66,5.24,4.79,1.74,1.13,3.49,2,5.24,2s3.49-2.8,5.23-3.99c1.75-1.2,3.49-3.2,5.24-3.2s3.49,5.19,5.24,5.19,3.49-.27,5.24-.8c1.74-.53,3.49-51.52,5.23-51.52s3.49,6.39,5.24,6.39,3.49-2.26,5.24-6.79c1.75-4.53,3.49-44.2,5.24-47.13,1.74-2.93,3.49-2,5.24-4.39,1.74-2.4,3.49-9.99,5.23-9.99s3.49,5.06,5.24,6.79c1.75,1.73,3.49,3.59,5.24,3.59s3.49-1.6,5.24-1.6,3.49,5.26,5.23,15.18c1.75,9.92,3.49,44.33,5.24,44.33s3.49-2.46,5.24-4.39c1.75-1.93,3.49-7.19,5.24-7.19s3.49,13.05,5.24,13.58c1.74.53,3.49.27,5.23.8,1.75.53,3.49,16.51,5.24,19.17s3.49,2.26,5.24,3.99c1.74,1.73,3.49,6.39,5.24,6.39s3.49-23.96,5.23-23.96,3.49,32.22,5.24,35.95c1.75,3.73,3.49,5.59,5.24,5.59s3.49-2.26,5.24-2.8c1.74-.53,3.49-.27,5.24-.8,1.74-.53,3.49-1.4,5.23-2.4,1.75-1,3.49-1.2,5.24-3.59s3.49-63.1,5.24-63.1,3.49,6.39,5.24,6.39,3.49-17.57,5.23-17.57,3.49,7.99,5.24,7.99,3.49-29.56,5.24-29.56,3.49,13.05,5.24,17.97c1.74,4.93,3.49,3.86,5.24,11.58,1.74,7.72,3.49,43.53,5.23,43.53s3.49-37.01,5.24-43.93c1.75-6.92,3.49-10.38,5.24-10.38s3.49,5.32,5.24,7.19c1.74,1.86,3.49,2,5.23,3.99,1.75,2,3.49,3.93,5.24,7.99,1.75,4.06,3.49,10.85,5.24,16.38,1.75,5.52,3.49,16.77,5.24,16.77s3.49-.8,5.24-2.4c1.74-1.6,3.49-26.36,5.23-26.36s3.49,57.51,5.24,57.51,3.49-37.14,5.24-37.14,3.49,1.07,5.24,2.4c1.74,1.33,3.49,1.86,5.23,5.59,1.75,3.73,3.49,24.36,5.24,24.36s3.49-.27,5.24-.8c1.75-.53,3.49-5.06,5.24-15.18,1.74-10.12,3.49-51.92,5.24-51.92s3.49,17.84,5.23,24.76c1.75,6.92,3.49,16.77,5.24,16.77h5.24c1.74,0,3.49-64.3,5.24-64.3s3.49,24.3,5.23,33.55c1.75,9.25,3.49,16.71,5.24,21.97,1.75,5.26,3.49,9.59,5.24,9.59s3.49-31.02,5.24-39.94c1.74-8.92,3.49-13.58,5.24-13.58s3.49.27,5.23.8c1.75.53,3.49,3,5.24,6.79,1.75,3.79,3.49,10.92,5.24,15.98,1.74,5.06,3.49,6.79,5.24,14.38,1.74,7.59,3.49,29.29,5.23,31.15,1.75,1.86,3.49,2.8,5.24,2.8s3.49-1.4,5.24-2.8v133.4H155.75v-129.4Z"/>
  <g>
    <g>
      <line class="cls-5" x1="155.22" y1="364.93" x2="1032.67" y2="364.93"/>
      <line class="cls-5" x1="155.22" y1="281.68" x2="1032.67" y2="281.68"/>
      <line class="cls-5" x1="155.22" y1="198.44" x2="1032.67" y2="198.44"/>
      <line class="cls-5" x1="155.22" y1="115.19" x2="1032.67" y2="115.19"/>
      <line class="cls-5" x1="155.22" y1="31.95" x2="1032.67" y2="31.95"/>
    </g>
    <g>
      <line class="cls-5" x1="155.22" y1="31.95" x2="155.22" y2="364.93"/>
      <line class="cls-5" x1="229.89" y1="31.95" x2="229.89" y2="364.93"/>
      <line class="cls-5" x1="297.54" y1="31.95" x2="297.54" y2="364.93"/>
      <line class="cls-5" x1="371.7" y1="31.95" x2="371.7" y2="364.93"/>
      <line class="cls-5" x1="443.86" y1="31.95" x2="443.86" y2="364.93"/>
      <line class="cls-5" x1="518.53" y1="31.95" x2="518.53" y2="364.93"/>
      <line class="cls-5" x1="590.69" y1="31.95" x2="590.69" y2="364.93"/>
      <line class="cls-5" x1="665.35" y1="31.95" x2="665.35" y2="364.93"/>
      <line class="cls-5" x1="740.02" y1="31.95" x2="740.02" y2="364.93"/>
      <line class="cls-5" x1="812.18" y1="31.95" x2="812.18" y2="364.93"/>
      <line class="cls-5" x1="886.85" y1="31.95" x2="886.85" y2="364.93"/>
      <line class="cls-5" x1="959.01" y1="31.95" x2="959.01" y2="364.93"/>
      <line class="cls-5" x1="1032.67" y1="31.95" x2="1032.67" y2="364.93"/>
    </g>
  </g>
  <path class="cls-7" d="M155.22,230.07c.17,8.12.33,16.23.5,16.23s.33-113.21.5-113.21.33,11.65.5,24.56c.17,12.9.33,38.5.5,52.86.17,14.36.33,33.3.5,33.3s.33-62.43.5-62.43.33,3.33.5,3.33.33-3.75.5-3.75.33,28.44.5,39.54c.17,11.1.33,27.06.5,27.06s.33-62.43.5-62.43.33,68.68.5,68.68.33-134.44.5-134.44.33,80.61.5,98.64c.17,18.04.33,27.05.5,27.05s.33-84.49.5-84.49.33.42.5,1.25c.17.83.33,22.27.5,34.96s.33,37.88.5,41.21c.17,3.33.33,4.99.5,4.99s.33-100.17.5-104.06c.17-3.89.33-5.83.5-5.83s.33,59.66.5,64.1c.17,4.44.33,2.22.5,6.66.17,4.44.33,37.04.5,37.04s.33-72.56.5-72.84c.17-.28.33-.42.5-.42s.33,20.4.5,26.22.33,4.44.5,8.74.33,17.07.5,17.07.33-77.83.5-77.83.33,4.02.5,12.07c.17,8.05.33,60.35.5,72.01.17,11.65.33,17.48.5,17.48s.33-51.13.5-69.09c.17-17.97.33-25.25.5-38.71s.33-42.04.5-42.04.33,109.19.5,132.77c.17,23.59.33,35.38.5,35.38s.33-101.14.5-101.14.33,52.03.5,52.03.33-104.06.5-104.06.33,104.61.5,117.37c.17,12.76.33,19.15.5,19.15s.33-44.19.5-61.18c.17-17,.33-40.79.5-40.79s.33,7.91.5,23.73c.17,15.82.33,77,.5,77s.33-5.76.5-8.74c.17-2.98.33-3.33.5-9.16s.33-25.81.5-25.81.33,8.95.5,15.82c.17,6.87.33,25.39.5,25.39s.33-2.91.5-2.91.33,8.74.5,8.74.33-58.69.5-58.69.33,17.76.5,25.81c.17,8.05.33,22.48.5,22.48s.33-67.43.5-67.43.33,12.07.5,12.07.33-7.91.5-7.91.33,33.51.5,43.7c.17,10.2.33,17.48.5,17.48s.33-46.2.5-46.2.33,71.59.5,71.59.33-109.05.5-109.05.33,50.36.5,64.93c.17,14.57.33,22.48.5,22.48s.33-65.9.5-87.82c.17-21.92.33-43.7.5-43.7s.33,27.26.5,49.95c.17,22.68.33,86.16.5,86.16s.33-1.66.5-4.99c.17-3.33.33-61.18.5-61.18s.33,2.08.5,6.24c.17,4.16.33,15.82.5,26.22.17,10.41.33,36.21.5,36.21s.33-52.03.5-64.51c.17-12.49.33-12.14.5-18.73.17-6.59.33-20.81.5-20.81s.33,54.25.5,72.01c.17,17.76.33,34.55.5,34.55s.33-45.72.5-66.6c.17-20.88.33-58.69.5-58.69s.33,41.97.5,58.69c.17,16.72.33,31.7.5,41.62.17,9.92.33,17.9.5,17.9s.33-32.88.5-52.86c.17-19.98.33-67.01.5-67.01s.33,40.03.5,58.69c.17,18.66.33,43.29.5,53.28.17,9.99.33,14.98.5,14.98s.33-82,.5-82,.33,44.54.5,44.54.33-28.3.5-28.3.33,52.86.5,56.19c.17,3.33.33,4.99.5,4.99s.33-59.1.5-59.1.33,7.28.5,12.49c.17,5.2.33,11.79.5,18.73.17,6.94.33,22.89.5,22.89s.33-29.14.5-43.29c.17-14.15.33-29.41.5-41.62.17-12.21.33-31.63.5-31.63s.33,94.34.5,108.22c.17,13.87.33,20.81.5,20.81s.33-41.27.5-59.52c.17-18.24.33-35.66.5-49.95s.33-35.79.5-35.79.33,118.21.5,127.36c.17,9.16.33,13.74.5,13.74s.33-67.84.5-67.84.33,3.33.5,3.33.33-60.77.5-60.77.33,83.94.5,103.64c.17,19.7.33,29.55.5,29.55s.33-50.36.5-50.36.33,8.74.5,8.74.33-16.23.5-16.23.33,50.36.5,50.36.33-9.02.5-15.4c.17-6.38.33-9.16.5-22.89.17-13.74.33-59.52.5-59.52s.33,47.24.5,63.68c.17,16.44.33,34.96.5,34.96s.33-60.77.5-60.77.33,96.98.5,96.98.33-105.3.5-105.3.33,29.27.5,41.21c.17,11.93.33,30.38.5,30.38s.33-84.49.5-84.49.33,50.36.5,50.36.33-30.8.5-30.8.33,26.43.5,36.63c.17,10.2.33,24.56.5,24.56s.33-19.77.5-32.88.33-30.18.5-45.78c.17-15.61.33-47.87.5-47.87s.33,98.37.5,108.63c.17,10.27.33,12.9.5,15.4.17,2.5.33,1.25.5,3.75.17,2.5.33,27.05.5,27.05s.33-82,.5-82,.33,51.2.5,51.2.33-1.11.5-3.33.33-87.41.5-87.41.33,3.75.5,11.24c.17,7.49.33,32.19.5,45.37.17,13.18.33,33.71.5,33.71s.33-53.69.5-54.53c.17-.83.33-1.25.5-1.25s.33,14.64.5,22.48c.17,7.84.33,16.51.5,24.56.17,8.05.33,23.72.5,23.72s.33-52.44.5-52.44.33,114.88.5,114.88.33-130.28.5-130.28.33,36.42.5,49.53c.17,13.11.33,29.14.5,29.14s.33-20.4.5-20.4.33,19.56.5,19.56.33-75.34.5-75.34.33,35.1.5,47.03c.17,11.93.33,24.56.5,24.56s.33-64.93.5-64.93.33,38.29.5,38.29.33-71.17.5-71.17.33,60.08.5,65.35c.17,5.27.33,5.06.5,7.91.17,2.84.33,9.16.5,9.16s.33-92.82.5-92.82.33,14.22.5,28.3c.17,14.08.33,56.19.5,56.19s.33-8.32.5-8.32.33,39.12.5,39.12.33-136.52.5-136.52.33,80.33.5,89.49c.17,9.16.33,13.74.5,13.74s.33-35.93.5-53.28c.17-17.34.33-50.78.5-50.78s.33,2.08.5,6.24c.17,4.16.33,76.45.5,82.83s.33,9.57.5,9.57.33-43.01.5-60.35c.17-17.34.33-43.7.5-43.7s.33,5.27.5,15.82c.17,10.54.33,77.83.5,85.33.17,7.49.33,11.24.5,11.24s.33-86.57.5-86.57.33.56.5,1.67c.17,1.11.33,8.53.5,23.31.17,14.78.33,65.35.5,65.35s.33-5.55.5-16.65c.17-11.1.33-63.27.5-63.27s.33,3.47.5,10.41c.17,6.94.33,19.63.5,31.22.17,11.58.33,38.29.5,38.29s.33-41.07.5-60.35c.17-19.29.33-55.36.5-55.36s.33,31.42.5,47.87.33,37.88.5,50.78c.17,12.9.33,26.64.5,26.64s.33-61.25.5-82c.17-20.74.33-31.77.5-42.45.17-10.68.33-21.64.5-21.64s.33,93.23.5,113.21.33,29.97.5,29.97.33-140.82.5-159.41c.17-18.59.33-27.89.5-27.89s.33,5.97.5,17.9c.17,11.93.33,96.98.5,119.46.17,22.48.33,29.83.5,33.71.17,3.89.33,1.94.5,5.83.17,3.89.33,34.96.5,34.96s.33-154.83.5-154.83.33,114.46.5,114.46.33-3.75.5-11.24c.17-7.49.33-61.6.5-61.6s.33,9.99.5,14.98c.17,4.99.33,4.99.5,14.98s.33,49.11.5,49.11.33-51.2.5-51.2.33,27.47.5,27.47.33-40.37.5-40.37.33,17.13.5,24.97c.17,7.84.33,22.06.5,22.06s.33-60.77.5-60.77.33,183.97.5,183.97.33-208.94.5-208.94.33,25.32.5,34.96c.17,9.64.33,22.89.5,22.89s.33-5.83.5-5.83.33,135.69.5,135.69.33-196.46.5-196.46.33,62.85.5,72.84c.17,9.99.33,10.96.5,14.98.17,4.02.33,9.16.5,9.16s.33-4.58.5-13.74.33-125.7.5-125.7.33,139.85.5,139.85.33-1.25.5-3.75c.17-2.5.33-57.58.5-78.67.17-21.09.33-47.87.5-47.87s.33,22.61.5,46.2c.17,23.59.33,95.31.5,95.31s.33-70.76.5-70.76.33,33.3.5,33.3.33-41.21.5-41.21.33,36.49.5,50.36c.17,13.87.33,32.88.5,32.88s.33-62.43.5-74.92c.17-12.49.33-18.73.5-18.73s.33,28.09.5,39.12c.17,11.03.33,18.31.5,27.05.17,8.74.33,19.63.5,25.39.17,5.76.33,9.16.5,9.16s.33-61.88.5-64.93c.17-3.05.33-4.58.5-4.58s.33,38.99.5,47.87c.17,8.88.33,13.32.5,13.32s.33-70.76.5-70.76.33,113.63.5,113.63.33-115.29.5-115.29.33,64.51.5,64.51.33-7.98.5-10.82c.17-2.84.33-4.51.5-6.24.17-1.73.33-1.39.5-4.16s.33-26.64.5-26.64.33,49.95.5,49.95.33-26.22.5-42.45.33-54.94.5-54.94.33,16.09.5,24.97c.17,8.88.33,18.94.5,28.3.17,9.36.33,27.89.5,27.89s.33-58.13.5-67.01c.17-8.88.33-9.57.5-13.32.17-3.75.33-9.16.5-9.16s.33,46.2.5,59.94c.17,13.74.33,22.48.5,22.48s.33-32.47.5-32.47.33,98.64.5,98.64.33-192.29.5-192.29.33,124.17.5,127.78c.17,3.61.33,5.41.5,5.41s.33-54.11.5-54.11.33,166.91.5,166.91.33-178.14.5-178.14.33,54.94.5,54.94.33-5.83.5-5.83.33,111.13.5,111.13.33-42.52.5-66.6c.17-24.07.33-77.83.5-77.83s.33,37.04.5,37.04.33-26.22.5-26.22.33,178.14.5,178.14.33-99.89.5-128.2c.17-28.3.33-42.45.5-42.45s.33,19.15.5,19.15.33-20.81.5-20.81.33,173.56.5,173.56.33-178.98.5-178.98.33,22.2.5,29.97c.17,7.77.33,5.55.5,16.65.17,11.1.33,30.11.5,50.78.17,20.67.33,73.25.5,73.25s.33-276.79.5-276.79.33,114.46.5,128.61c.17,14.15.33,7.08.5,21.23.17,14.15.33,94.76.5,104.47.17,9.71.33,14.57.5,14.57s.33-216.85.5-216.85.33,101.14.5,101.14.33-17.48.5-17.48.33,104.06.5,104.06.33-58.13.5-79.08c.17-20.95.33-46.62.5-46.62s.33,37.46.5,37.46.33-6.66.5-6.66.33,142.35.5,142.35.33-49.11.5-76.17.33-86.16.5-86.16.33,25.25.5,25.81c.17.56.33.28.5.83.17.56.33,131.53.5,131.53s.33-168.15.5-168.15.33,13.04.5,18.73c.17,5.69.33,15.4.5,15.4s.33-19.98.5-19.98.33,68.26.5,68.26.33-102.81.5-102.81.33,40.65.5,48.7c.17,8.05.33,4.02.5,12.07.17,8.05.33,28.79.5,40.79.17,12,.33,31.22.5,31.22s.33-128.2.5-128.2.33,47.03.5,47.03.33-4.99.5-4.99.33,6.1.5,18.31c.17,12.21.33,63.27.5,63.27s.33-127.78.5-127.78.33,48.7.5,48.7.33-52.86.5-52.86.33,62.02.5,62.02.33-74.5.5-74.5.33,19.7.5,32.05c.17,12.35.33,42.04.5,42.04s.33-7.08.5-7.08.33,98.64.5,98.64.33-204.78.5-204.78.33,57.09.5,73.67c.17,16.58.33,25.81.5,25.81s.33-42.87.5-42.87.33,72.42.5,72.42.33-66.87.5-69.92c.17-3.05.33-4.58.5-4.58s.33,34.06.5,48.28c.17,14.22.33,17.76.5,37.04.17,19.28.33,78.67.5,78.67s.33-165.24.5-165.24.33,38.99.5,39.54c.17.56.33.83.5.83s.33-5.97.5-9.16c.17-3.19.33-9.43.5-9.99.17-.56.33-.83.5-.83s.33,9.37.5,14.15c.17,4.79.33,4.86.5,14.57.17,9.71.33,146.51.5,146.51s.33-60.07.5-89.49c.17-29.41.33-86.99.5-86.99s.33,11.17.5,16.65.33,5.41.5,16.23c.17,10.82.33,135.69.5,135.69s.33-189.8.5-189.8.33,7.42.5,12.9c.17,5.48.33,6.66.5,19.98s.33,63.34.5,90.32c.17,26.99.33,71.59.5,71.59s.33-223.93.5-223.93.33,70.06.5,80.33c.17,10.27.33,5.13.5,15.4.17,10.27.33,59.52.5,59.52s.33-.55.5-1.66c.17-1.11.33-128.61.5-128.61s.33,77.83.5,77.83.33-15.4.5-15.4.33,2.22.5,6.66c.17,4.44.33,78.25.5,78.25s.33-118.62.5-118.62.33,52.86.5,52.86.33-39.19.5-53.28.33-31.22.5-31.22.33,13.25.5,20.81.33,17.34.5,24.56c.17,7.21.33,18.73.5,18.73s.33-76.58.5-76.58.33,96.98.5,96.98.33-49.95.5-49.95.33,12.56.5,17.9c.17,5.34.33,4.72.5,14.15.17,9.43.33,116.96.5,116.96s.33-59.8.5-88.24c.17-28.44.33-82.41.5-82.41s.33,21.85.5,29.55c.17,7.7.33,5.55.5,16.65.17,11.1.33,137.63.5,139.85.17,2.22.33,3.33.5,3.33s.33-223.93.5-223.93.33,94.07.5,94.07.33-8.32.5-8.32.33,36.7.5,56.61c.17,19.91.33,62.85.5,62.85s.33-156.5.5-156.5.33,44.54.5,44.54.33-46.2.5-46.2.33,40.03.5,52.44c.17,12.42.33,22.06.5,22.06s.33-66.18.5-66.18.33,17.2.5,25.81c.17,8.6.33,10.23.5,25.81.17,15.57.33,67.64.5,67.64s.33-103.43.5-105.93c.17-2.5.33-3.75.5-3.75s.33,10.41.5,21.23c.17,10.82.33,30.14.5,43.7.17,13.56.33,37.67.5,37.67s.33-95.16.5-98.02c.17-2.86.33-4.29.5-4.29s.33,9.35.5,14.48c.17,5.13.33,9.31.5,16.32.17,7.01.33,25.72.5,25.72s.33-96.48.5-96.48.33,61.31.5,61.31.33-4.16.5-4.16.33,119.04.5,119.04.33-4.58.5-13.74c.17-9.16.33-150.67.5-150.67s.33,42.32.5,43.7c.17,1.39.33.69.5,2.08s.33,143.18.5,143.18.33-7.22.5-21.64c.17-14.43.33-145.26.5-145.26s.33,29.55.5,29.55.33-28.72.5-28.72.33,166.49.5,166.49.33-91.15.5-112.8c.17-21.64.33-32.46.5-32.46s.33,9.99.5,9.99.33-14.57.5-14.57.33,148.18.5,148.18.33-165.66.5-165.66.33,13.46.5,19.15c.17,5.69.33,8.46.5,14.98.17,6.52.33,8.05.5,24.14.17,16.09.33,107.39.5,107.39s.33-168.15.5-168.15.33,34.13.5,34.13.33-.83.5-.83.33,118.35.5,125.28c.17,6.94.33,10.41.5,10.41s.33-166.49.5-166.49.33,31.22.5,31.22.33-60.35.5-60.35.33,195.21.5,195.21.33-9.43.5-28.3c.17-18.87.33-131.11.5-131.11s.33,18.31.5,18.31.33-18.73.5-18.73.33,157.33.5,157.33.33-83.52.5-109.05c.17-25.53.33-44.12.5-44.12s.33,9.99.5,9.99.33-2.64.5-6.24c.17-3.61.33-15.4.5-15.4s.33,5.41.5,5.41.33-4.16.5-4.16.33,15.4.5,15.4.33-39.96.5-39.96.33,177.31.5,177.31.33-203.12.5-203.12.33,87.41.5,87.41.33-14.98.5-14.98.33,130.69.5,134.86c.17,4.16.33,6.24.5,6.24s.33-159.41.5-159.41.33,34.96.5,34.96.33-47.87.5-47.87.33,159.41.5,159.41.33-1.66.5-4.99c.17-3.33.33-115.71.5-115.71s.33,10.82.5,10.82.33-27.05.5-27.05.33,29.27.5,40.37c.17,11.1.33,26.22.5,26.22s.33-57.02.5-57.02.33,2.5.5,7.49c.17,4.99.33,61.05.5,83.25.17,22.2.33,49.95.5,49.95s.33-95.04.5-111.96c.17-16.93.33-25.39.5-25.39s.33,20.81.5,20.81.33-17.48.5-17.48.33,94.07.5,94.07.33-119.04.5-119.04.33,33.71.5,33.71.33-16.23.5-16.23.33,43.84.5,66.18c.17,22.34.33,67.84.5,67.84s.33-150.67.5-150.67.33,34.55.5,34.55.33-63.27.5-63.27.33,173.56.5,173.56.33-143.18.5-143.18.33,2.22.5,6.66.33,30.8.5,30.8.33-32.46.5-32.46.33,72.42.5,72.42.33-38.57.5-46.62c.17-8.05.33-12.07.5-12.07s.33,12.07.5,12.07.33-24.14.5-24.14.33,94.9.5,94.9.33-22.89.5-37.88c.17-14.98.33-52.03.5-52.03s.33,12.9.5,12.9.33-54.53.5-54.53.33,85.74.5,85.74.33-71.59.5-71.59.33,47.03.5,47.03.33-9.16.5-9.16.33,20.88.5,41.21c.17,20.33.33,80.75.5,80.75s.33-140.68.5-140.68.33,27.89.5,27.89.33-3.75.5-3.75.33,106.69.5,109.47.33,4.16.5,4.16.33-134.86.5-134.86.33,25.81.5,25.81.33-46.62.5-46.62.33,49.11.5,49.11.33-66.18.5-66.18.33,33.64.5,44.12c.17,10.47.33,18.73.5,18.73s.33-92.82.5-92.82.33,221.85.5,221.85.33-144.85.5-146.51c.17-1.66.33-2.5.5-2.5s.33,2.08.5,6.24c.17,4.16.33,20.74.5,32.88.17,12.14.33,39.96.5,39.96s.33-145.26.5-145.26.33,82.83.5,82.83.33-8.74.5-8.74.33,79.5.5,102.81c.17,23.31.33,37.04.5,37.04s.33-147.76.5-147.76.33,13.32.5,13.32.33-26.64.5-26.64.33,161.91.5,161.91h.5c.17,0,.33-145.26.5-145.26s.33,15.05.5,19.98c.17,4.93.33,3.19.5,9.57.17,6.38.33,116.13.5,116.13s.33-1.66.5-4.99c.17-3.33.33-136.52.5-136.52s.33,5.41.5,16.23.33,98.84.5,99.48.33.96.5.96.33-13.15.5-30.93c.17-17.78.33-75.75.5-75.75s.33,7.21.5,21.64c.17,14.43.33,99.34.5,102.39.17,3.05.33,4.58.5,4.58s.33-187.72.5-187.72.33,69.09.5,72.42c.17,3.33.33,1.66.5,4.99.17,3.33.33,109.47.5,109.47s.33-3.61.5-10.82c.17-7.22.33-119.46.5-119.46s.33,26.22.5,26.22.33-30.8.5-30.8.33,136.1.5,136.1.33-5.69.5-17.07c.17-11.38.33-114.05.5-114.05s.33,18.59.5,26.64c.17,8.05.33,10.47.5,21.64.17,11.17.33,45.37.5,45.37s.33-10.89.5-26.22c.17-15.33.33-65.76.5-65.76s.33,12.97.5,24.56.33,44.95.5,44.95.33-3.19.5-9.57.33-26.5.5-36.21c.17-9.71.33-22.06.5-22.06s.33,2.64.5,7.91c.17,5.27.33,13.74.5,26.22.17,12.49.33,48.7.5,48.7s.33-79.5.5-80.33c.17-.83.33-1.25.5-1.25s.33.42.5,1.25c.17.83.33,6.24.5,18.73.17,12.49.33,72.84.5,72.84s.33-119.04.5-119.04.33,26.78.5,28.72.33.97.5,2.91c.17,1.94.33,35.24.5,46.62s.33,21.64.5,21.64.33-88.66.5-88.66.33,15.4.5,15.4.33-10.82.5-10.82.33,65.22.5,87.91c.17,22.68.33,48.2.5,48.2s.33-134.86.5-134.86.33,11.38.5,19.15c.17,7.77.33,9.16.5,27.47.17,18.31.33,91.57.5,91.57s.33-97.53.5-110.3c.17-12.76.33-19.15.5-19.15s.33,6.24.5,18.73c.17,12.49.33,97.81.5,97.81s.33-5.45.5-16.36c.17-10.9.33-74.52.5-76.46.17-1.94.33-1.39.5-2.91.17-1.53.33-6.24.5-6.24s.33,22.88.5,35.09c.17,12.21.33,38.17.5,38.17s.33-88.66.5-88.66.33,22.06.5,22.06.33-19.56.5-19.56.33,120.7.5,120.7.33-3.54.5-10.61.33-127.99.5-127.99.33,21.5.5,32.88c.17,11.38.33,31.08.5,35.38s.33,2.15.5,6.45.33,67.22.5,67.22.33-122.79.5-122.79.33,10.54.5,15.4c.17,4.86.33,8.12.5,13.74.17,5.62.33,19.98.5,19.98s.33-6.87.5-13.74.33-26.08.5-27.47.33-.69.5-2.08c.17-1.39.33-31.22.5-31.22s.33,20.81.5,20.81.33-72.01.5-72.01.33,89.9.5,89.9.33-3.33.5-3.33.33,46.81.5,60.48c.17,13.67.33,21.52.5,21.52s.33-95.73.5-95.73.33,24.14.5,24.14.33-3.75.5-3.75.33,36.97.5,50.78c.17,13.8.33,32.05.5,32.05s.33-93.23.5-93.23.33,16.65.5,16.65.33-9.99.5-9.99.33,4.16.5,12.49c.17,8.32.33,65.35.5,65.35s.33-119.87.5-119.87.33,47.45.5,47.45.33-48.7.5-48.7.33,152.75.5,152.75.33-36.77.5-58.27c.17-21.5.33-70.76.5-70.76s.33,4.3.5,12.9.33,111.96.5,111.96.33-50.92.5-68.88c.17-17.97.33-31.15.5-38.92.17-7.77.33-11.65.5-11.65s.33,6.1.5,13.74c.17,7.63.33,32.05.5,32.05s.33-11.03.5-22.48c.17-11.45.33-46.2.5-46.2s.33,35.79.5,35.79.33-12.07.5-12.07.33,78.25.5,78.25.33-110.72.5-110.72.33,36.21.5,36.21h.5c.17,0,.33,28.93.5,47.45.17,18.52.33,63.68.5,63.68s.33-56.05.5-76.58c.17-20.53.33-46.62.5-46.62s.33,19.15.5,19.15.33-42.45.5-42.45.33,103.64.5,103.64.33-72.84.5-72.84.33,1.39.5,4.16c.17,2.77.33,12,.5,17.48.17,5.48.33,5.13.5,15.4.17,10.27.33,64.1.5,64.1s.33-72.56.5-77c.17-4.44.33-6.66.5-6.66s.33,2.77.5,8.32c.17,5.55.33,83.66.5,83.66s.33-51.33.5-68.68c.17-17.34.33-35.38.5-35.38s.33,17.48.5,17.48.33-21.23.5-21.23.33,36.21.5,36.21.33-24.49.5-32.47c.17-7.98.33-15.4.5-15.4s.33,20.53.5,32.05c.17,11.52.33,37.04.5,37.04s.33-1.66.5-4.99c.17-3.33.33-12.76.5-22.06.17-9.3.33-33.71.5-33.71s.33,18.31.5,18.31.33-18.73.5-18.73.33,121.12.5,121.12.33-65.28.5-87.41c.17-22.13.33-45.37.5-45.37s.33,22.06.5,22.06.33-8.32.5-8.32.33,113.63.5,113.63.33-136.1.5-136.1.33,38.43.5,41.21c.17,2.77.33,1.39.5,4.16.17,2.77.33,101.56.5,101.56s.33-4.81.5-14.44c.17-9.63.33-105.43.5-105.43s.33,22.48.5,22.48.33-19.15.5-19.15.33,116.96.5,116.96.33-1.94.5-5.83c.17-3.89.33-116.54.5-116.54s.33,19.01.5,21.23.33,1.11.5,3.33c.17,2.22.33,21.37.5,37.88.17,16.51.33,61.18.5,61.18s.33-120.29.5-120.29.33,4.86.5,14.57c.17,9.71.33,65.76.5,65.76s.33-101.56.5-101.56.33,39.12.5,39.12.33-19.98.5-19.98.33,2.77.5,8.32c.17,5.55.33,24.63.5,33.71.17,9.09.33,20.81.5,20.81s.33-83.24.5-83.24.33,35.79.5,35.79.33-9.16.5-9.16.33,16.65.5,16.65.33-22.61.5-27.89c.17-5.27.33-7.91.5-7.91s.33,27.47.5,27.47.33-20.4.5-20.4.33,68.54.5,71.59.33,4.58.5,4.58.33-71.17.5-71.17.33,6.38.5,13.74c.17,7.35.33,14.5.5,30.38.17,15.89.33,64.93.5,64.93s.33-83.94.5-96.98c.17-13.04.33-19.56.5-19.56s.33,8.74.5,26.22c.17,17.48.33,101.97.5,101.97s.33-17.2.5-28.3c.17-11.1.33-23.52.5-38.29.17-14.78.33-50.36.5-50.36s.33,4.16.5,12.49c.17,8.32.33,91.71.5,92.82.17,1.11.33,1.66.5,1.66s.33-97.4.5-97.4.33,4.58.5,4.58.33-3.33.5-3.33.33,51.06.5,56.61c.17,5.55.33,8.32.5,8.32s.33-73.25.5-73.25.33,14.15.5,14.15.33-54.94.5-54.94.33,84.42.5,110.3c.17,25.88.33,44.95.5,44.95s.33-115.29.5-115.29.33,2.36.5,7.08.33,15.82.5,25.81c.17,9.99.33,25.6.5,34.13.17,8.53.33,17.07.5,17.07s.33-96.15.5-96.15.33,11.79.5,23.31c.17,11.52.33,28.09.5,45.78.17,17.69.33,60.35.5,60.35s.33-146.09.5-146.09.33,32.74.5,39.96c.17,7.21.33,3.61.5,10.82.17,7.21.33,34.46.5,45.78.17,11.33.33,22.18.5,22.18s.33-12.11.5-25.51c.17-13.41.33-54.94.5-54.94s.33,7.49.5,22.48c.17,14.98.33,75.75.5,75.75s.33-32.6.5-48.7c.17-16.09.33-46.2.5-47.87.17-1.67.33-.83.5-2.5.17-1.66.33-20.39.5-20.39s.33,97.53.5,103.64c.17,6.1.33,9.16.5,9.16s.33-114.46.5-114.46.33,1.94.5,5.83c.17,3.89.33,40.79.5,59.1.17,18.31.33,48,.5,50.78s.33,4.16.5,4.16.33-116.96.5-116.96.33,3.05.5,9.16c.17,6.1.33,70.34.5,78.67.17,8.32.33,12.49.5,12.49s.33-35.45.5-51.2c.17-15.75.33-43.29.5-43.29s.33,5.6.5,12.9c.17,7.3.33,21.73.5,30.93.17,9.19.33,24.22.5,24.22s.33-57.65.5-57.65.33,2.5.5,3.75c.17,1.25.33,1.25.5,3.75.17,2.5.33,101.97.5,101.97s.33-4.58.5-13.74c.17-9.16.33-106.97.5-106.97s.33,19.98.5,19.98.33-17.9.5-17.9.33,121.95.5,121.95.33-42.11.5-61.18c.17-19.08.33-53.28.5-53.28s.33.56.5,1.66c.17,1.11.33,6.66.5,19.98.17,13.32.33,91.57.5,91.57s.33-60.42.5-80.75c.17-20.33.33-41.21.5-41.21s.33,3.33.5,9.99c.17,6.66.33,69.65.5,82.41.17,12.76.33,19.15.5,19.15s.33-6.1.5-18.31c.17-12.21.33-91.99.5-91.99s.33,16.65.5,16.65.33-34.13.5-34.13.33,124.87.5,124.87.33-50.29.5-68.26c.17-17.97.33-39.54.5-39.54s.33,15.57.5,22.06c.17,6.49.33,5.62.5,16.86.17,11.24.33,75.13.5,75.13s.33-111.55.5-111.55.33,3.33.5,3.33.33-17.9.5-17.9.33,5.55.5,16.65c.17,11.1.33,102.81.5,102.81s.33-107.8.5-107.8.33,12.35.5,21.23c.17,8.88.33,17.97.5,32.05.17,14.08.33,52.44.5,52.44s.33-8.74.5-26.22c.17-17.48.33-79.08.5-79.08s.33,9.78.5,18.73c.17,8.95.33,19.56.5,34.96.17,15.4.33,57.44.5,57.44s.33-6.24.5-18.73c.17-12.49.33-83.66.5-83.66s.33,3.75.5,11.24c.17,7.49.33,93.23.5,93.23s.33-1.8.5-5.41c.17-3.61.33-92.82.5-94.48.17-1.66.33-2.5.5-2.5s.33,2.91.5,8.74.33,92.54.5,96.98c.17,4.44.33,6.66.5,6.66s.33-121.54.5-121.54.33,5.83.5,5.83.33-20.39.5-20.39.33,59.66.5,78.87c.17,19.22.33,36.42.5,36.42s.33-114.88.5-114.88.33,24.97.5,24.97.33-11.17.5-21.23c.17-10.06.33-39.12.5-39.12s.33,140.27.5,140.27.33-96.98.5-96.98.33,8.25.5,22.89c.17,14.64.33,64.93.5,64.93s.33-33.23.5-46.62c.17-13.39.33-24.83.5-33.71.17-8.88.33-19.56.5-19.56s.33,6.38.5,19.15c.17,12.76.33,116.54.5,116.54s.33-.97.5-2.91.33-88.24.5-91.57c.17-3.33.33-3.05.5-4.99.17-1.94.33-6.66.5-6.66s.33,3.75.5,11.24c.17,7.49.33,54.11.5,54.11s.33-72.01.5-72.01.33,11.24.5,11.24.33-57.85.5-57.85.33,144.43.5,144.43.33-14.5.5-32.88c.17-18.38.33-77.42.5-77.42s.33,27.05.5,27.05.33-35.79.5-35.79.33,26.92.5,40.37c.17,13.46.33,40.37.5,40.37s.33-79.5.5-79.5.33,17.55.5,29.14c.17,11.58.33,24.9.5,40.37.17,15.47.33,52.44.5,52.44s.33-4.3.5-12.9.33-88.38.5-88.66.33-.42.5-.42.33,98.51.5,100.73c.17,2.22.33,3.33.5,3.33s.33-133.61.5-133.61.33,27.47.5,32.47c.17,4.99.33,2.5.5,7.49s.33,101.97.5,101.97.33-22.34.5-39.96c.17-17.62.33-62.99.5-65.76s.33-1.39.5-4.16.33-12.9.5-12.9.33,124.03.5,124.03.33-4.86.5-14.57c.17-9.71.33-108.63.5-108.63s.33,12.14.5,20.4c.17,8.25.33,29.14.5,29.14s.33-56.19.5-56.19.33,77,.5,77,.33-75.75.5-75.75.33,27.89.5,27.89.33-29.14.5-29.14.33,131.94.5,131.94.33-7.63.5-22.89c.17-15.26.33-116.96.5-116.96s.33,7.08.5,21.23.33,73.53.5,85.74.33,18.31.5,18.31.33-60.21.5-75.75c.17-15.54.33-18.04.5-23.31.17-5.27.33-8.32.5-8.32s.33,3.75.5,11.24c.17,7.49.33,104.89.5,104.89s.33-102.39.5-103.22.33-.42.5-1.25.33-24.56.5-24.56.33,94.48.5,94.48.33-2.08.5-6.24c.17-4.16.33-84.91.5-84.91s.33,20.67.5,23.73c.17,3.05.33,1.53.5,4.58s.33,95.73.5,95.73.33-162.74.5-162.74.33,35.24.5,46.2c.17,10.96.33,6.52.5,19.56.17,13.04.33,82.83.5,82.83s.33-3.89.5-11.65c.17-7.77.33-32.4.5-47.45.17-15.05.33-42.87.5-42.87s.33,13.32.5,13.32.33-56.19.5-56.19.33,135.27.5,135.27.33-68.68.5-71.17c.17-2.5.33-1.94.5-3.75.17-1.8.33-2.36.5-7.08s.33-58.69.5-58.69.33,127.78.5,127.78.33-85.33.5-85.33.33,27.47.5,27.47.33-37.88.5-37.88.33,88.65.5,88.65.33-11.72.5-24.56c.17-12.83.33-52.44.5-52.44s.33,26.22.5,26.22.33-15.4.5-15.4.33,66.18.5,66.18.33-55.08.5-60.35c.17-5.27.33-7.91.5-7.91s.33,14.71.5,17.48.33,2.15.5,4.16c.17,2.01.33,7.91.5,7.91s.33-74.09.5-74.09.33,29.55.5,36.21c.17,6.66.33,3.33.5,9.99.17,6.66.33,61.18.5,61.18s.33-88.1.5-106.14c.17-18.04.33-27.05.5-27.05s.33,59.66.5,64.93c.17,5.27.33,2.64.5,7.91.17,5.27.33,104.89.5,104.89s.33-28.16.5-47.45c.17-19.29.33-68.26.5-68.26s.33,5.41.5,5.41.33-7.08.5-7.08.33,80.19.5,87.41c.17,7.21.33,10.82.5,10.82s.33-97.4.5-97.4.33,11.45.5,14.98c.17,3.54.33,2.08.5,6.24.17,4.16.33,86.99.5,86.99s.33-69.93.5-88.24c.17-18.31.33-27.47.5-27.47s.33,17.13.5,31.63c.17,14.5.33,53.42.5,55.36.17,1.94.33,2.91.5,2.91s.33-64.79.5-70.34c.17-5.55.33-8.32.5-8.32s.33,10.82.5,10.82.33-16.23.5-16.23.33,70.34.5,70.34.33-96.98.5-96.98.33,40.37.5,40.37.33-7.49.5-7.49.33,55.91.5,60.35c.17,4.44.33,6.66.5,6.66s.33-82.41.5-82.41.33,27.47.5,27.47.33-53.69.5-53.69.33,21.5.5,28.72c.17,7.21.33,14.57.5,14.57s.33-7.08.5-7.08.33,3.26.5,8.74c.17,5.48.33,9.09.5,24.14.17,15.05.33,66.18.5,66.18s.33-146.51.5-146.51.33,37.6.5,43.7c.17,6.1.33,6.31.5,9.16.17,2.84.33,2.64.5,7.91.17,5.27.33,85.33.5,85.33s.33-25.88.5-42.04c.17-16.16.33-54.94.5-54.94s.33,2.77.5,8.32.33,90.74.5,90.74.33-21.57.5-34.96c.17-13.39.33-42.32.5-45.37.17-3.05.33-1.53.5-4.58.17-3.05.33-26.64.5-26.64s.33,36.21.5,36.21.33-13.46.5-19.98c.17-6.52.33-19.15.5-19.15s.33,31.63.5,31.63.33-39.54.5-39.54.33,106.69.5,111.13c.17,4.44.33,6.66.5,6.66s.33-87.41.5-87.41.33,9.37.5,14.57c.17,5.2.33,5.55.5,16.65.17,11.1.33,78.67.5,78.67s.33-34.96.5-54.11.33-60.77.5-60.77.33,19.15.5,21.64c.17,2.5.33,1.25.5,3.75.17,2.5.33,84.49.5,84.49s.33-144.85.5-144.85.33,37.6.5,44.54.33,3.47.5,10.41c.17,6.94.33,78.94.5,79.5.17.56.33.83.5.83s.33-118.62.5-118.62.33,34.13.5,34.13.33-9.16.5-9.16.33,51.75.5,71.59c.17,19.84.33,47.45.5,47.45s.33-123.2.5-123.2.33,10.82.5,10.82.33-26.64.5-26.64.33,100.45.5,110.72c.17,10.27.33,15.4.5,15.4s.33-112.38.5-112.38.33,15.68.5,16.23c.17.56.33.28.5.83.17.56.33,109.47.5,109.47s.33-3.47.5-10.41c.17-6.94.33-128.2.5-128.2s.33,15.68.5,25.39c.17,9.71.33,27.97.5,32.88.17,4.91.33,7.37.5,7.37s.33-2.46.5-7.37.33-49.53.5-49.53.33,22.48.5,22.48.33-34.55.5-34.55.33,37.46.5,37.46.33-86.16.5-86.16.33,80.33.5,80.33.33-14.15.5-14.15.33,36.97.5,50.36.33,29.97.5,29.97.33-94.9.5-94.9.33,32.05.5,32.05.33-57.44.5-57.44.33,156.92.5,156.92.33-11.52.5-32.05c.17-20.53.33-91.15.5-91.15s.33,18.31.5,18.31.33-42.87.5-42.87.33,5.97.5,17.9c.17,11.93.33,114.04.5,114.04s.33-102.81.5-102.81.33,7.21.5,21.64c.17,14.43.33,79.08.5,79.08s.33-15.54.5-25.18c.17-9.64.33-20.43.5-32.67.17-12.24.33-40.79.5-40.79s.33,7.91.5,13.74c.17,5.83.33,21.23.5,21.23s.33-3.75.5-11.24c.17-7.49.33-51.2.5-51.2s.33,37.46.5,39.96c.17,2.5.33,1.25.5,3.75.17,2.5.33,39.54.5,39.54s.33-9.02.5-19.56c.17-10.54.33-43.7.5-43.7s.33,18.31.5,18.31.33-4.72.5-7.49.33-9.16.5-9.16.33,35.8.5,35.8.33-49.95.5-49.95.33,39.54.5,39.54.33-6.59.5-16.23c.17-9.64.33-41.62.5-41.62s.33,17.07.5,22.48c.17,5.41.33,5.9.5,9.99.17,4.09.33,4.86.5,14.57.17,9.71.33,60.35.5,67.84.17,7.49.33,11.24.5,11.24s.33-87.82.5-87.82.33,3.33.5,6.24c.17,2.91.33,11.24.5,11.24s.33-5.55.5-8.32c.17-2.77.33-4.37.5-8.32.17-3.95.33-15.4.5-15.4s.33,12.49.5,14.98c.17,2.5.33,1.25.5,3.75.17,2.5.33,119.46.5,119.46s.33-7.91.5-23.73c.17-15.82.33-111.96.5-111.96s.33,26.22.5,26.22.33-45.78.5-45.78.33,152.2.5,153.59c.17,1.39.33,2.08.5,2.08s.33-139.43.5-139.43.33,24.56.5,24.56.33-13.74.5-13.74.33,61.6.5,61.6h.5c.17,0,.33-66.6.5-66.6s.33,6.45.5,11.24c.17,4.79.33,5.83.5,17.48.17,11.65.33,54.94.5,54.94s.33-142.35.5-142.35.33,59.66.5,66.6.33,3.47.5,10.41c.17,6.94.33,114.04.5,114.04s.33-9.43.5-28.3c.17-18.87.33-176.06.5-176.06s.33,96.98.5,96.98.33-8.05.5-12.49c.17-4.44.33-14.15.5-14.15s.33,82.41.5,82.41.33-86.57.5-86.57.33,33.71.5,33.71.33-44.54.5-44.54.33,75.34.5,75.34.33-3.19.5-9.57c.17-6.38.33-50.78.5-50.78s.33,31.63.5,31.63h.5c.17,0,.33,80.33.5,80.33s.33-20.81.5-37.88c.17-17.07.33-64.51.5-64.51s.33,13.94.5,20.4.33,13.6.5,18.31c.17,4.72.33,9.99.5,9.99s.33-52.44.5-52.44.33,6.38.5,9.16.33,2.5.5,7.49.33,70.76.5,70.76.33-119.04.5-119.04.33,2.22.5,6.66.33,35.38.5,35.38.33-2.77.5-8.32c.17-5.55.33-38.71.5-38.71s.33,79.5.5,79.5.33-57.02.5-57.02.33,29.97.5,29.97.33-49.95.5-49.95.33,107.39.5,107.39.33-2.08.5-6.24c.17-4.16.33-64.1.5-64.1s.33,17.07.5,17.07.33-9.57.5-9.57.33,104.47.5,104.47.33-124.87.5-124.87.33,2.77.5,8.32c.17,5.55.33,21.92.5,24.97.17,3.05.33,1.53.5,4.58.17,3.05.33,101.56.5,101.56s.33-101.7.5-109.47c.17-7.77.33-11.65.5-11.65s.33,1.39.5,4.16c.17,2.77.33,93.23.5,93.23s.33-8.88.5-26.64c.17-17.76.33-100.73.5-100.73s.33,32.47.5,32.47.33-9.57.5-9.57.33,128.2.5,128.2.33-6.8.5-20.4c.17-13.6.33-133.19.5-133.19s.33,42.45.5,42.45.33-24.14.5-24.14.33,83.52.5,104.06c.17,20.53.33,30.8.5,30.8s.33-123.62.5-123.62.33,14.15.5,14.15.33-19.56.5-19.56.33,12.9.5,12.9.33-74.5.5-74.5.33,57.02.5,65.35c.17,8.32.33,6.87.5,12.49.17,5.62.33,7.08.5,21.23s.33,77,.5,77,.33-183.55.5-183.55.33,56.05.5,66.59c.17,10.54.33,5.27.5,15.82s.33,97.95.5,99.06c.17,1.11.33,1.66.5,1.66s.33-188.55.5-188.55.33,89.9.5,89.9.33-7.77.5-18.73c.17-10.96.33-47.03.5-47.03s.33,177.73.5,177.73.33-138.19.5-138.19.33,32.05.5,32.05.33-46.2.5-46.2.33,54.94.5,54.94.33-28.3.5-28.3.33.28.5.83c.17.56.33,20.4.5,20.4s.33-19.15.5-19.15.33,106.14.5,106.14.33-5.41.5-16.23c.17-10.82.33-91.99.5-91.99s.33,9.09.5,17.07c.17,7.98.33,17.34.5,30.8.17,13.46.33,49.95.5,49.95s.33-96.15.5-97.81c.17-1.66.33-2.5.5-2.5s.33,8.74.5,8.74.33-16.65.5-16.65.33,28.3.5,28.3.33-77.42.5-77.42.33,66.6.5,66.6.33-6.66.5-6.66.33,33.3.5,33.3.33-41.21.5-41.21.33,1.66.5,4.99c.17,3.33.33,16.65.5,16.65s.33-19.15.5-19.15.33,129.86.5,129.86.33-8.74.5-26.22c.17-17.48.33-104.06.5-104.06s.33,20.81.5,20.81.33-15.4.5-15.4.33,112.8.5,112.8.33-62.71.5-82c.17-19.29.33-33.71.5-33.71s.33,10.61.5,22.89c.17,12.28.33,37.18.5,50.78.17,13.6.33,30.8.5,30.8s.33-100.31.5-100.31.33,1.04.5,2.08.33,1.39.5,4.16.33,63.27.5,81.58c.17,18.31.33,28.3.5,28.3s.33-161.91.5-161.91.33,48.7.5,48.7.33-8.74.5-8.74.33,39.4.5,51.61c.17,12.21.33,21.64.5,21.64s.33-81.16.5-81.16.33,27.89.5,27.89.33-31.63.5-31.63.33,63.68.5,63.68.33-19.22.5-29.55c.17-10.34.33-32.46.5-32.46s.33,30.8.5,30.8.33-52.44.5-52.44.33,163.58.5,163.58.33-163.99.5-163.99.33,29,.5,37.04c.17,8.05.33,12.07.5,12.07s.33-116.13.5-116.13.33,74.5.5,74.5.33-91.15.5-91.15.33,109.6.5,113.21c.17,3.61.33,1.8.5,5.41s.33,26.5.5,41.62c.17,15.12.33,49.11.5,49.11s.33-123.62.5-123.62.33,42.87.5,42.87.33-9.57.5-9.57.33,44.54.5,44.54.33-9.5.5-19.56c.17-10.06.33-40.79.5-40.79s.33,32.88.5,32.88.33-36.63.5-36.63.33,146.93.5,146.93.33-47.24.5-69.09c.17-21.85.33-62.02.5-62.02s.33,24.56.5,24.56.33-48.7.5-48.7.33,118.62.5,118.62.33-63.82.5-74.09c.17-10.27.33-15.4.5-15.4s.33,17.48.5,17.48.33-42.87.5-42.87.33,15.4.5,15.4.33-77.83.5-77.83.33,94.76.5,98.64c.17,3.88.33,1.94.5,5.83.17,3.88.33,20.26.5,27.89.17,7.63.33,17.9.5,17.9s.33-133.19.5-133.19.33,78.25.5,78.25.33-2.64.5-7.91c.17-5.27.33-34.82.5-47.87.17-13.04.33-30.38.5-30.38s.33,35.45.5,51.2c.17,15.75.33,43.29.5,43.29s.33-65.35.5-65.35.33,164.41.5,164.41.33-90.88.5-100.31c.17-9.43.33-14.15.5-14.15s.33,12.49.5,12.49.33-44.54.5-44.54.33,112.38.5,112.38.33-89.07.5-89.07.33,14.29.5,16.23c.17,1.94.33,2.91.5,2.91s.33-85.74.5-85.74.33,201.04.5,201.04.33-170.65.5-170.65.33,38.71.5,44.54c.17,5.83.33,8.74.5,8.74s.33-70.76.5-70.76.33,128.2.5,128.2.33-127.36.5-127.36.33,68.68.5,68.68.33-13.32.5-13.32.33,87.41.5,87.41.33-52.31.5-70.34c.17-18.04.33-37.88.5-37.88s.33,42.45.5,42.45.33-62.85.5-62.85.33,164.41.5,164.41.33-68.26.5-87.41c.17-19.15.33-28.72.5-28.72s.33,21.23.5,21.23.33-84.49.5-84.49.33,15.82.5,15.82.33-45.37.5-45.37.33,60.42.5,78.67c.17,18.24.33,30.8.5,30.8s.33-81.58.5-81.58.33,74.92.5,74.92.33-59.1.5-59.1.33,39.26.5,42.04c.17,2.77.33,4.16.5,4.16s.33-46.2.5-46.2.33,25.39.5,25.39.33-7.08.5-7.08.33,16.09.5,20.81.33,7.49.5,7.49.33-49.11.5-49.11.33,57.02.5,57.02.33-21.23.5-21.23.33,26.64.5,26.64.33-35.86.5-51.61c.17-15.75.33-42.87.5-42.87s.33,13.8.5,19.98c.17,6.17.33,7.22.5,17.07.17,9.85.33,42.04.5,42.04s.33-89.49.5-93.65.33-2.08.5-6.24.33-35.79.5-35.79.33,113.77.5,129.86c.17,16.09.33,24.14.5,24.14s.33-69.92.5-69.92.33,73.67.5,73.67.33-118.62.5-118.62.33,77.42.5,89.07c.17,11.65.33,17.48.5,17.48s.33-42.59.5-59.52c.17-16.93.33-31.77.5-42.04.17-10.27.33-19.56.5-19.56s.33,122.37.5,122.37.33-3.05.5-9.16c.17-6.1.33-46.62.5-46.62s.33,75.75.5,75.75.33-36.21.5-36.21.33,26.22.5,26.22.33-71.17.5-71.17.33,5.62.5,7.91c.17,2.29.33,1.94.5,5.83.17,3.88.33,17.2.5,25.81.17,8.6.33,25.81.5,25.81s.33-64.93.5-64.93.33,22.89.5,22.89.33-6.24.5-6.24.33,26.08.5,31.63c.17,5.55.33,8.32.5,8.32s.33-79.92.5-79.92.33,68.68.5,68.68.33-32.05.5-32.05.33,26.08.5,33.71c.17,7.63.33,12.07.5,12.07s.33-39.96.5-39.96.33,38.29.5,38.29.33-74.5.5-74.5.33,45.37.5,54.53c.17,9.16.33,13.74.5,13.74s.33-74.92.5-74.92.33,33.71.5,33.71.33-4.16.5-4.16.33,48.28.5,48.28.33-79.5.5-79.5.33,96.98.5,96.98.33-26.22.5-40.37c.17-14.15.33-44.54.5-44.54s.33,69.09.5,69.09.33-67.01.5-67.01.33,119.87.5,119.87.33-84.08.5-84.08.33,14.85.5,18.73c.17,3.88.33,5.83.5,5.83s.33-2.77.5-5.83.33-4.16.5-12.49c.17-8.32.33-47.03.5-47.03s.33,33.16.5,44.12c.17,10.96.33,7.49.5,21.64.17,14.15.33,63.27.5,63.27s.33-87.41.5-111.55c.17-24.14.33-36.21.5-36.21s.33,73.25.5,73.25.33-11.24.5-11.24.33,71.59.5,71.59.33-95.73.5-95.73.33,2.36.5,7.08.33,26.64.5,26.64.33-12.28.5-30.38c.17-18.11.33-78.25.5-78.25h.5c.17,0,.33,78.53.5,81.58.17,3.05.33,4.58.5,4.58s.33-3.12.5-7.91c.17-4.79.33-7.56.5-20.81.17-13.25.33-58.69.5-58.69s.33,70.62.5,86.16c.17,15.54.33,23.31.5,23.31s.33-26.57.5-42.87c.17-16.3.33-44.4.5-54.94s.33-15.82.5-15.82.33,110.72.5,113.21c.17,2.5.33,3.75.5,3.75s.33-58.27.5-58.27.33,14.98.5,19.15c.17,4.16.33,2.29.5,6.24s.33,17.48.5,17.48.33-4.58.5-4.58.33,83.25.5,83.25.33-62.99.5-75.75.33-19.15.5-19.15.33,14.98.5,14.98.33-17.9.5-17.9.33,35.38.5,35.38.33-53.28.5-53.28.33,20.74.5,30.8c.17,10.06.33,29.55.5,29.55s.33-49.53.5-49.53.33,18.73.5,18.73.33-35.38.5-35.38.33,32.05.5,42.45c.17,10.41.33,19.98.5,19.98s.33-18.45.5-33.71c.17-15.26.33-41.21.5-57.86.17-16.65.33-42.04.5-42.04s.33,126.67.5,128.61c.17,1.94.33,2.91.5,2.91s.33-54.39.5-55.77.33-.69.5-2.08.33-30.38.5-30.38.33,89.07.5,89.07.33-1.67.5-4.99c.17-3.33.33-84.08.5-84.08s.33,16.93.5,27.47c.17,10.54.33,25.39.5,35.79.17,10.41.33,26.64.5,26.64s.33-37.04.5-37.04.33,58.69.5,58.69.33-65.76.5-65.76.33,12.14.5,19.15c.17,7.01.33,22.89.5,22.89s.33-41.62.5-41.62.33,78.67.5,78.67.33-85.74.5-85.74.33,38.99.5,42.04c.17,3.05.33,4.58.5,4.58s.33-62.85.5-76.17c.17-13.32.33-19.98.5-19.98s.33,26.22.5,39.12c.17,12.9.33,38.29.5,38.29h.5c.17,0,.33-25.39.5-39.12.17-13.74.33-43.29.5-43.29s.33,44.19.5,59.52c.17,15.33.33,32.47.5,32.47h.5c.17,0,.33,81.58.5,81.58s.33-104.75.5-112.8c.17-8.05.33-12.07.5-12.07s.33,53.28.5,53.28.33-65.35.5-65.35.33,75.75.5,75.75.33-85.74.5-85.74.33,64.79.5,75.34c.17,10.54.33,15.82.5,15.82s.33-24.83.5-42.87c.17-18.04.33-65.35.5-65.35s.33,13.8.5,30.38c.17,16.58.33,67.43.5,69.09.17,1.66.33,2.5.5,2.5s.33-65.76.5-65.76.33,34.55.5,34.55.33-2.08.5-2.08.33,24.97.5,24.97.33-.83.5-2.5c.17-1.66.33-73.12.5-73.67.17-.56.33-.83.5-.83s.33,31.56.5,42.45c.17,10.89.33,22.89.5,22.89s.33-4.99.5-4.99.33,42.87.5,42.87.33-54.25.5-56.19c.17-1.94.33-2.91.5-2.91s.33,23.72.5,23.72.33-66.6.5-66.6.33,11.65.5,11.65.33-20.81.5-20.81.33,42.45.5,50.78c.17,8.32.33,12.49.5,12.49s.33-36.42.5-49.95c.17-13.53.33-18.45.5-31.22.17-12.76.33-45.37.5-45.37s.33,92.12.5,99.06c.17,6.94.33,7.63.5,10.41.17,2.77.33,4.65.5,6.24.17,1.6.33,3.33.5,3.33s.33-118.62.5-118.62.33,94.9.5,97.4c.17,2.5.33,1.25.5,3.75.17,2.5.33,41.21.5,41.21s.33-34.27.5-51.61c.17-17.34.33-52.44.5-52.44s.33,97.81.5,97.81.33-14.91.5-25.81c.17-10.89.33-30.11.5-39.54.17-9.43.33-17.07.5-17.07s.33,49.81.5,63.68c.17,13.87.33,20.81.5,20.81s.33-67.01.5-67.01.33,87.82.5,87.82.33-73.25.5-73.25.33,15.61.5,23.31c.17,7.7.33,22.89.5,22.89s.33-54.11.5-54.11.33,2.01.5,4.16c.17,2.15.33,2.98.5,8.74.17,5.76.33,19.49.5,25.81.17,6.31.33,12.07.5,12.07s.33-55.36.5-55.36.33,69.92.5,69.92.33-84.49.5-84.49.33,58.27.5,58.27.33-4.16.5-4.16.33,39.96.5,39.96.33-41.83.5-61.6c.17-19.77.33-57.02.5-57.02s.33,124.03.5,124.03.33-25.11.5-26.22c.17-1.11.33-.56.5-1.67.17-1.11.33-73.25.5-73.25s.33,43.7.5,60.77c.17,17.07.33,41.62.5,41.62s.33-82.83.5-82.83.33,70.34.5,70.34.33-87.82.5-87.82.33,46.62.5,61.18c.17,14.57.33,26.22.5,26.22s.33-52.31.5-69.51c.17-17.2.33-33.71.5-33.71s.33,42.04.5,53.69c.17,11.65.33,11.93.5,17.48.17,5.55.33,15.82.5,15.82s.33-13.74.5-13.74.33,32.05.5,32.05.33-62.43.5-62.43.33,19.98.5,28.72c.17,8.74.33,23.72.5,23.72s.33-58.41.5-73.67c.17-15.26.33-22.89.5-22.89s.33,18.31.5,36.63c.17,18.31.33,73.25.5,73.25s.33-49.95.5-49.95.33,28.72.5,28.72.33-93.23.5-93.23.33,77.14.5,93.23c.17,16.09.33,24.14.5,24.14s.33-30.8.5-30.8.33,5.83.5,5.83.33-81.16.5-81.16.33,51.06.5,67.43c.17,16.37.33,30.8.5,30.8s.33-40.17.5-59.52c.17-19.35.33-56.61.5-56.61s.33,26.78.5,42.45c.17,15.68.33,46.34.5,51.61.17,5.27.33,7.91.5,7.91s.33-26.36.5-37.04c.17-10.68.33-12.07.5-27.05.17-14.98.33-62.85.5-62.85s.33,109.19.5,116.96c.17,7.77.33,11.65.5,11.65s.33-108.63.5-108.63.33,67.29.5,67.84c.17.55.33.28.5.83.17.56.33,52.44.5,52.44s.33-7.49.5-22.48c.17-14.98.33-80.33.5-80.33s.33,22.68.5,36.21c.17,13.53.33,33.16.5,44.95.17,11.79.33,25.81.5,25.81s.33-12.49.5-23.31c.17-10.82.33-41.62.5-41.62s.33.28.5.83c.17.56.33,51.06.5,60.77.17,9.71.33,14.57.5,14.57s.33-50.78.5-69.09c.17-18.31.33-40.79.5-40.79s.33,32.81.5,47.87c.17,15.05.33,37.18.5,42.45.17,5.27.33,7.91.5,7.91s.33-52.03.5-52.03.33,36.21.5,36.21.33-134.02.5-134.02.33,150.26.5,150.26.33-.97.5-2.91c.17-1.94.33-63.68.5-84.49.17-20.81.33-40.37.5-40.37s.33,9.43.5,28.3c.17,18.87.33,98.64.5,98.64s.33-8.32.5-9.16c.17-.83.33-.42.5-1.25s.33-107.8.5-107.8.33,55.08.5,74.92c.17,19.84.33,44.12.5,44.12s.33-50.36.5-50.36.33,37.04.5,37.04.33-42.04.5-42.04.33,39.4.5,43.29c.17,3.88.33,5.83.5,5.83s.33-59.1.5-59.1h.5c.17,0,.33-12.49.5-12.49s.33,33.99.5,44.95c.17,10.96.33,20.81.5,20.81s.33-79.36.5-97.4c.17-18.04.33-27.05.5-27.05s.33,46.89.5,68.26c.17,21.37.33,59.94.5,59.94h.5c.17,0,.33-77,.5-77s.33,22.34.5,29.97c.17,7.63.33,9.16.5,15.82.17,6.66.33,24.14.5,24.14s.33-.14.5-.42c.17-.28.33-33.92.5-44.54.17-10.61.33-19.15.5-19.15s.33,15.95.5,26.64c.17,10.68.33,37.46.5,37.46s.33-33.44.5-51.61c.17-18.17.33-57.44.5-57.44s.33,27.82.5,44.12c.17,16.3.33,39.82.5,53.69.17,13.87.33,29.55.5,29.55s.33-64.51.5-64.51.33,57.02.5,57.02.33-126.11.5-126.11.33,98.23.5,106.55c.17,8.32.33,12.49.5,12.49s.33-108.63.5-108.63.33,72.84.5,72.84.33-10.41.5-10.41.33,43.56.5,44.12c.17.56.33.83.5.83s.33-60.91.5-67.84c.17-6.94.33-10.41.5-10.41s.33,32.4.5,47.03c.17,14.64.33,40.79.5,40.79s.33-4.99.5-11.24c.17-6.24.33-18.45.5-26.22.17-7.77.33-20.4.5-20.4s.33,28.03.5,37.04c.17,9.02.33,17.07.5,17.07s.33-32.26.5-54.11c.17-21.85.33-77,.5-77s.33,29,.5,48.28c.17,19.28.33,62.43.5,67.43.17,4.99.33,7.49.5,7.49s.33-51.61.5-51.61.33,50.36.5,50.36.33-24.97.5-24.97.33,25.53.5,25.81c.17.28.33.42.5.42s.33-34.34.5-50.36c.17-16.02.33-45.78.5-45.78s.33,75.2.5,82.41c.17,7.21.33,10.82.5,10.82s.33-.42.5-1.25c.17-.83.33-68.68.5-68.68s.33,49.95.5,49.95.33-22.06.5-22.06.33,53.28.5,53.28.33-11.17.5-17.9c.17-6.73.33-14.85.5-22.48.17-7.63.33-23.31.5-23.31s.33,34.34.5,45.78c.17,11.45.33,22.89.5,22.89s.33-53.21.5-69.92c.17-16.72.33-30.38.5-30.38s.33,31.29.5,42.87c.17,11.59.33,19.49.5,26.64.17,7.14.33,16.23.5,16.23s.33-31.56.5-51.61c.17-20.05.33-68.68.5-68.68s.33,33.64.5,52.86c.17,19.22.33,54.39.5,62.43.17,8.05.33,12.07.5,12.07s.33-107.39.5-107.39.33,53.42.5,57.85c.17,4.44.33,2.22.5,6.66.17,4.44.33,34.27.5,34.55.17.28.33.42.5.42s.33-77,.5-77,.33,90.74.5,90.74.33-21.44.5-42.87"/>
  <g>
    <line class="cls-6" x1="155.22" y1="31.95" x2="155.22" y2="364.93"/>
    <g>
      <polyline class="cls-6" points="150.47 364.93 155.22 364.93 1032.67 364.93"/>
      <line class="cls-6" x1="150.47" y1="281.68" x2="155.22" y2="281.68"/>
      <line class="cls-6" x1="150.47" y1="198.44" x2="155.22" y2="198.44"/>
      <line class="cls-6" x1="150.47" y1="115.19" x2="155.22" y2="115.19"/>
      <line class="cls-6" x1="150.47" y1="31.95" x2="155.22" y2="31.95"/>
    </g>
  </g>
  <g>
    <g>
      <g class="cls-10">
        <text class="cls-11" transform="translate(148.63 376.32)"><tspan x="0" y="0">Jan</tspan></text>
      </g>
      <g class="cls-10">
        <text class="cls-11" transform="translate(223.16 376.32)"><tspan class="cls-4" x="0" y="0">F</tspan><tspan x="3.94" y="0">eb</tspan></text>
      </g>
      <g class="cls-10">
        <text class="cls-11" transform="translate(290.76 376.32)"><tspan x="0" y="0">Mar</tspan></text>
      </g>
      <g class="cls-10">
        <text class="cls-11" transform="translate(365.28 376.32)"><tspan class="cls-1" x="0" y="0">A</tspan><tspan x="5.04" y="0">pr</tspan></text>
      </g>
      <g class="cls-10">
        <text class="cls-11" transform="translate(436.5 376.32)"><tspan x="0" y="0">May</tspan></text>
      </g>
      <g class="cls-10">
        <text class="cls-11" transform="translate(512.19 376.32)"><tspan x="0" y="0">Jun</tspan></text>
      </g>
      <g class="cls-10">
        <text class="cls-11" transform="translate(585.79 376.32)"><tspan x="0" y="0">Jul</tspan></text>
      </g>
      <g class="cls-10">
        <text class="cls-11" transform="translate(658.27 376.32)"><tspan class="cls-3" x="0" y="0">A</tspan><tspan x="4.95" y="0">ug</tspan></text>
      </g>
      <g class="cls-10">
        <text class="cls-11" transform="translate(732.97 376.32)"><tspan x="0" y="0">Sep</tspan></text>
      </g>
      <g class="cls-10">
        <text class="cls-11" transform="translate(805.03 376.32)"><tspan x="0" y="0">Oct</tspan></text>
      </g>
      <g class="cls-10">
        <text class="cls-11" transform="translate(879.94 376.32)"><tspan x="0" y="0">N</tspan><tspan class="cls-15" x="5.25" y="0">o</tspan><tspan x="9.84" y="0">v</tspan></text>
      </g>
      <g class="cls-10">
        <text class="cls-11" transform="translate(951.74 376.32)"><tspan class="cls-17" x="0" y="0">D</tspan><tspan x="5.26" y="0">ec</tspan></text>
      </g>
    </g>
    <g>
      <g class="cls-10">
        <text class="cls-11" transform="translate(144.09 367.46)"><tspan x="0" y="0">0</tspan></text>
      </g>
      <g class="cls-10">
        <text class="cls-11" transform="translate(139.79 284.21)"><tspan class="cls-16" x="0" y="0">2</tspan><tspan x="4.3" y="0">0</tspan></text>
      </g>
      <g class="cls-10">
        <text class="cls-11" transform="translate(139.66 200.97)"><tspan x="0" y="0">40</tspan></text>
      </g>
      <g class="cls-10">
        <text class="cls-11" transform="translate(139.76 117.72)"><tspan x="0" y="0">60</tspan></text>
      </g>
      <g class="cls-10">
        <text class="cls-11" transform="translate(139.8 34.48)"><tspan x="0" y="0">80</tspan></text>
      </g>
    </g>
    <g class="cls-10">
      <text class="cls-9" transform="translate(114.48 198.44) rotate(-90)"><tspan x="0" y="0">kW</tspan></text>
    </g>
  </g>
  <g>
    <g>
      <line class="cls-5" x1="155.75" y1="746.74" x2="1030.03" y2="746.74"/>
      <line class="cls-5" x1="155.75" y1="666.87" x2="1030.03" y2="666.87"/>
      <line class="cls-5" x1="155.75" y1="586.99" x2="1030.03" y2="586.99"/>
      <line class="cls-5" x1="155.75" y1="507.11" x2="1030.03" y2="507.11"/>
      <line class="cls-5" x1="155.75" y1="427.23" x2="1030.03" y2="427.23"/>
    </g>
    <g>
      <line class="cls-5" x1="155.75" y1="427.23" x2="155.75" y2="746.74"/>
      <line class="cls-5" x1="281.4" y1="427.23" x2="281.4" y2="746.74"/>
      <line class="cls-5" x1="407.04" y1="427.23" x2="407.04" y2="746.74"/>
      <line class="cls-5" x1="532.69" y1="427.23" x2="532.69" y2="746.74"/>
      <line class="cls-5" x1="658.33" y1="427.23" x2="658.33" y2="746.74"/>
      <line class="cls-5" x1="783.98" y1="427.23" x2="783.98" y2="746.74"/>
      <line class="cls-5" x1="909.62" y1="427.23" x2="909.62" y2="746.74"/>
      <line class="cls-5" x1="1030.03" y1="427.23" x2="1030.03" y2="746.74"/>
    </g>
  </g>
  <path class="cls-7" d="M155.75,617.34c1.75,4.66,3.49,9.32,5.24,12.38,1.74,3.06,3.49,5.99,5.24,5.99s3.49-.13,5.23-.4c1.75-.27,3.49-1.73,5.24-2,1.75-.27,3.49-.13,5.24-.4,1.74-.27,3.49-56.31,5.24-65.1,1.74-8.79,3.49-13.18,5.23-13.18s3.49,11.58,5.24,11.58,3.49-.53,5.24-1.6c1.75-1.07,3.49-28.36,5.24-40.34,1.74-11.98,3.49-31.55,5.24-31.55s3.49,17.84,5.23,24.36c1.75,6.52,3.49,14.78,5.24,14.78s3.49-2.8,5.24-2.8,3.49,10.85,5.24,18.77c1.74,7.92,3.49,24.76,5.23,28.76,1.75,3.99,3.49,3.79,5.24,5.99,1.75,2.2,3.49,7.19,5.24,7.19s3.49-4.39,5.24-4.39,3.49,13.18,5.24,13.18,3.49-2.8,5.23-2.8,3.49,4.66,5.24,6.39c1.75,1.73,3.49,1.33,5.24,3.99,1.74,2.66,3.49,21.03,5.24,22.37,1.74,1.33,3.49.93,5.23,2,1.75,1.07,3.49,4.39,5.24,4.39s3.49-2.4,5.24-2.4,3.49.4,5.24.4,3.49-3.2,5.24-9.59c1.74-6.39,3.49-52.72,5.23-52.72s3.49.8,5.24.8,3.49-39.54,5.24-39.54,3.49,26.76,5.24,26.76,3.49-20.37,5.23-20.37,3.49,23.7,5.24,35.55c1.75,11.85,3.49,35.55,5.24,35.55s3.49-4.66,5.24-7.99c1.74-3.33,3.49-4.99,5.24-11.98,1.74-6.99,3.49-29.95,5.23-29.95s3.49,10.78,5.24,10.78h5.24c1.75,0,3.49,5.72,5.24,5.99,1.74.27,3.49.13,5.23.4,1.75.27,3.49,17.91,5.24,23.16,1.75,5.26,3.49,6.46,5.24,8.39,1.75,1.93,3.49,1.86,5.24,3.2,1.74,1.33,3.49,2.13,5.24,4.79,1.74,2.66,3.49,8.39,5.23,11.18,1.75,2.8,3.49,4.79,5.24,5.59,1.75.8,3.49.93,5.24,1.2s3.49.4,5.24.4h5.23c1.75,0,3.49-3.59,5.24-10.78,1.75-7.19,3.49-59.11,5.24-59.11s3.49,9.59,5.24,9.59,3.49-22.77,5.24-22.77,3.49,35.15,5.23,53.12c1.75,17.97,3.49,54.72,5.24,54.72s3.49-1.6,5.24-4.79c1.75-3.2,3.49-7.19,5.24-14.38,1.74-7.19,3.49-19.97,5.23-28.76,1.75-8.79,3.49-15.91,5.24-23.96,1.75-8.05,3.49-12.45,5.24-24.36,1.75-11.92,3.49-43.93,5.24-47.13,1.74-3.2,3.49-3.59,5.24-4.79,1.74-1.2,3.49-2.4,5.23-2.4s3.49,24.83,5.24,39.94c1.75,15.11,3.49,45.13,5.24,50.72,1.75,5.59,3.49,8.39,5.24,8.39s3.49-2,5.23-2,3.49,6.92,5.24,11.98c1.75,5.06,3.49,18.37,5.24,18.37s3.49-1.86,5.24-2.4c1.74-.53,3.49-.47,5.24-.8,1.74-.33,3.49-1.2,5.23-1.2s3.49,2,5.24,2,3.49-2,5.24-5.99c1.75-3.99,3.49-50.46,5.24-52.32,1.74-1.86,3.49-.93,5.23-2.8,1.75-1.86,3.49-16.84,5.24-21.97,1.75-5.13,3.49-6.92,5.24-8.79,1.75-1.86,3.49-2.8,5.24-2.8h5.24c1.74,0,3.49,38.34,5.23,38.34s3.49-25.56,5.24-25.56,3.49,7.26,5.24,11.18c1.75,3.93,3.49,10.25,5.24,12.38,1.74,2.13,3.49,3.19,5.24,3.19s3.49-3.99,5.23-3.99,3.49,8.92,5.24,10.78c1.75,1.86,3.49.93,5.24,2.8,1.74,1.86,3.49,14.18,5.24,18.37,1.74,4.19,3.49,4.79,5.23,6.79,1.75,2,3.49,3.26,5.24,5.19,1.75,1.93,3.49,4.53,5.24,6.39,1.75,1.86,3.49,3.66,5.24,4.79,1.74,1.13,3.49,2,5.24,2s3.49-2.8,5.23-3.99c1.75-1.2,3.49-3.2,5.24-3.2s3.49,5.19,5.24,5.19,3.49-.27,5.24-.8c1.74-.53,3.49-51.52,5.23-51.52s3.49,6.39,5.24,6.39,3.49-2.26,5.24-6.79c1.75-4.53,3.49-44.2,5.24-47.13,1.74-2.93,3.49-2,5.24-4.39,1.74-2.4,3.49-9.99,5.23-9.99s3.49,5.06,5.24,6.79c1.75,1.73,3.49,3.59,5.24,3.59s3.49-1.6,5.24-1.6,3.49,5.26,5.23,15.18c1.75,9.92,3.49,44.33,5.24,44.33s3.49-2.46,5.24-4.39c1.75-1.93,3.49-7.19,5.24-7.19s3.49,13.05,5.24,13.58c1.74.53,3.49.27,5.23.8,1.75.53,3.49,16.51,5.24,19.17s3.49,2.26,5.24,3.99c1.74,1.73,3.49,6.39,5.24,6.39s3.49-23.96,5.23-23.96,3.49,32.22,5.24,35.95c1.75,3.73,3.49,5.59,5.24,5.59s3.49-2.26,5.24-2.8c1.74-.53,3.49-.27,5.24-.8,1.74-.53,3.49-1.4,5.23-2.4,1.75-1,3.49-1.2,5.24-3.59s3.49-63.1,5.24-63.1,3.49,6.39,5.24,6.39,3.49-17.57,5.23-17.57,3.49,7.99,5.24,7.99,3.49-29.56,5.24-29.56,3.49,13.05,5.24,17.97c1.74,4.93,3.49,3.86,5.24,11.58,1.74,7.72,3.49,43.53,5.23,43.53s3.49-37.01,5.24-43.93c1.75-6.92,3.49-10.38,5.24-10.38s3.49,5.32,5.24,7.19c1.74,1.86,3.49,2,5.23,3.99,1.75,2,3.49,3.93,5.24,7.99,1.75,4.06,3.49,10.85,5.24,16.38,1.75,5.52,3.49,16.77,5.24,16.77s3.49-.8,5.24-2.4c1.74-1.6,3.49-26.36,5.23-26.36s3.49,57.51,5.24,57.51,3.49-37.14,5.24-37.14,3.49,1.07,5.24,2.4c1.74,1.33,3.49,1.86,5.23,5.59,1.75,3.73,3.49,24.36,5.24,24.36s3.49-.27,5.24-.8c1.75-.53,3.49-5.06,5.24-15.18,1.74-10.12,3.49-51.92,5.24-51.92s3.49,17.84,5.23,24.76c1.75,6.92,3.49,16.77,5.24,16.77h5.24c1.74,0,3.49-64.3,5.24-64.3s3.49,24.3,5.23,33.55c1.75,9.25,3.49,16.71,5.24,21.97,1.75,5.26,3.49,9.59,5.24,9.59s3.49-31.02,5.24-39.94c1.74-8.92,3.49-13.58,5.24-13.58s3.49.27,5.23.8c1.75.53,3.49,3,5.24,6.79,1.75,3.79,3.49,10.92,5.24,15.98,1.74,5.06,3.49,6.79,5.24,14.38,1.74,7.59,3.49,29.29,5.23,31.15,1.75,1.86,3.49,2.8,5.24,2.8s3.49-1.4,5.24-2.8"/>
  <g>
    <line class="cls-6" x1="155.75" y1="427.23" x2="155.75" y2="746.74"/>
    <g>
      <polyline class="cls-6" points="151 746.74 155.75 746.74 1030.03 746.74"/>
      <line class="cls-6" x1="151" y1="666.87" x2="155.75" y2="666.87"/>
      <line class="cls-6" x1="151" y1="586.99" x2="155.75" y2="586.99"/>
      <line class="cls-6" x1="151" y1="507.11" x2="155.75" y2="507.11"/>
      <line class="cls-6" x1="151" y1="427.23" x2="155.75" y2="427.23"/>
    </g>
  </g>
  <g>
    <g>
      <g class="cls-10">
        <text class="cls-11" transform="translate(146.88 758.14)"><tspan x="0" y="0">Thu 1</tspan></text>
      </g>
      <g class="cls-10">
        <text class="cls-11" transform="translate(273.91 758.14)"><tspan class="cls-16" x="0" y="0">F</tspan><tspan x="4.01" y="0">ri 2</tspan></text>
      </g>
      <g class="cls-10">
        <text class="cls-11" transform="translate(397.28 758.14)"><tspan x="0" y="0">Sat 3</tspan></text>
      </g>
      <g class="cls-10">
        <text class="cls-11" transform="translate(522.73 758.14)"><tspan class="cls-2" x="0" y="0">S</tspan><tspan class="cls-13" x="4.56" y="0">un 4</tspan></text>
      </g>
      <g class="cls-10">
        <text class="cls-11" transform="translate(647.56 758.14)"><tspan x="0" y="0">Mon 5</tspan></text>
      </g>
      <g class="cls-10">
        <text class="cls-11" transform="translate(774.37 758.14)"><tspan class="cls-12" x="0" y="0">T</tspan><tspan x="3.73" y="0">ue 6</tspan></text>
      </g>
      <g class="cls-10">
        <text class="cls-11" transform="translate(898.51 758.14)"><tspan class="cls-8" x="0" y="0">W</tspan><tspan x="6.7" y="0">ed 7</tspan></text>
      </g>
    </g>
    <g>
      <g class="cls-10">
        <text class="cls-11" transform="translate(144.62 749.27)"><tspan x="0" y="0">0</tspan></text>
      </g>
      <g class="cls-10">
        <text class="cls-11" transform="translate(140.32 669.4)"><tspan class="cls-16" x="0" y="0">2</tspan><tspan x="4.3" y="0">0</tspan></text>
      </g>
      <g class="cls-10">
        <text class="cls-11" transform="translate(140.19 589.52)"><tspan x="0" y="0">40</tspan></text>
      </g>
      <g class="cls-10">
        <text class="cls-11" transform="translate(140.29 509.64)"><tspan x="0" y="0">60</tspan></text>
      </g>
      <g class="cls-10">
        <text class="cls-11" transform="translate(140.33 429.76)"><tspan x="0" y="0">80</tspan></text>
      </g>
    </g>
    <g class="cls-10">
      <text class="cls-9" transform="translate(115.01 586.99) rotate(-90)"><tspan x="0" y="0">kW</tspan></text>
    </g>
  </g>
</svg>