<?xml version="1.0" encoding="UTF-8"?>
<svg id="Layer_2" xmlns="http://www.w3.org/2000/svg" version="1.1" xmlns:xlink="http://www.w3.org/1999/xlink" viewBox="0 0 1280 800">
  <!-- Generator: Adobe Illustrator 29.5.0, SVG Export Plug-In . SVG Version: 2.1.0 Build 137)  -->
  <defs>
    <style>
      .st0, .st1, .st2, .st3, .st4, .st5, .st6, .st7, .st8, .st9, .st10, .st11, .st12, .st13, .st14, .st15 {
        fill: none;
      }

      .st0, .st2, .st9, .st11 {
        stroke-width: .64px;
      }

      .st0, .st3, .st8 {
        stroke: #9ca3af;
      }

      .st1 {
        stroke-width: .32px;
      }

      .st1, .st4, .st5, .st6 {
        stroke: #e74c3c;
      }

      .st16 {
        fill: url(#curtailHatch_22);
      }

      .st16, .st17, .st18, .st19, .st20, .st21, .st22, .st23 {
        fill-opacity: .6;
      }

      .st2 {
        stroke: #666;
      }

      .st17, .st24 {
        fill: #9b59b6;
      }

      .st3, .st13, .st14 {
        stroke-width: .64px;
      }

      .st4 {
        stroke-width: 1.5px;
      }

      .st5 {
        stroke-width: .32px;
      }

      .st25, .st26 {
        fill: #fff;
      }

      .st26 {
        fill-rule: evenodd;
      }

      .st27 {
        fill: #ecb01f;
      }

      .st28 {
        fill: #e74c3c;
        fill-opacity: .25;
      }

      .st18 {
        fill: #00aeef;
      }

      .st6 {
        stroke-width: .23px;
      }

      .st8, .st10, .st12, .st15 {
        stroke-width: .46px;
      }

      .st19 {
        fill: url(#curtailHatch_2);
      }

      .st29, .st30, .st31 {
        isolation: isolate;
      }

      .st20 {
        fill: #f2c94c;
      }

      .st21 {
        fill: #666;
      }

      .st32 {
        fill: #ed6359;
      }

      .st9, .st10, .st13 {
        stroke: #f2c94c;
      }

      .st22, .st30 {
        fill: #9ca3af;
      }

      .st11 {
        stroke: #e6e6e6;
        stroke-dasharray: 1.92 1.92;
      }

      .st23 {
        fill: url(#curtailHatch_21);
      }

      .st12, .st14 {
        stroke: #00aeef;
      }

      .st30 {
        font-size: 7.05px;
      }

      .st30, .st31 {
        font-family: Stolzl-Light, Stolzl;
        font-weight: 300;
      }

      .st31 {
        fill: #95a5a6;
        font-size: 5.77px;
      }

      .st15 {
        stroke: #9b59b6;
      }
    </style>
    <pattern id="curtailHatch_2" data-name="curtailHatch 2" x="0" y="0" width="6" height="6" patternTransform="translate(-233.27 -7751.8) rotate(45) scale(.64 -.64)" patternUnits="userSpaceOnUse" viewBox="0 0 6 6">
      <g>
        <rect class="st7" width="6" height="6"/>
        <rect class="st25" width="6" height="6"/>
        <line class="st4" y1="6"/>
      </g>
    </pattern>
    <pattern id="curtailHatch_21" data-name="curtailHatch 2" patternTransform="translate(-235.34 -7743.85) rotate(44.5) scale(.64 -.64) skewX(.99)" xlink:href="#curtailHatch_2"/>
    <pattern id="curtailHatch_22" data-name="curtailHatch 2" patternTransform="translate(-230.55 -7770.35) rotate(27.11) scale(.51 -.41) skewX(30.31)" xlink:href="#curtailHatch_2"/>
  </defs>
  <g>
    <g>
      <line class="st11" x1="305.83" y1="259.02" x2="755.93" y2="259.02"/>
      <line class="st11" x1="305.83" y1="204.5" x2="755.93" y2="204.5"/>
      <line class="st11" x1="305.83" y1="149.98" x2="755.93" y2="149.98"/>
      <line class="st11" x1="305.83" y1="95.46" x2="755.93" y2="95.46"/>
      <line class="st11" x1="305.83" y1="40.94" x2="755.93" y2="40.94"/>
    </g>
    <g>
      <line class="st11" x1="305.83" y1="40.94" x2="305.83" y2="259.02"/>
      <line class="st11" x1="380.84" y1="40.94" x2="380.84" y2="259.02"/>
      <line class="st11" x1="455.86" y1="40.94" x2="455.86" y2="259.02"/>
      <line class="st11" x1="530.88" y1="40.94" x2="530.88" y2="259.02"/>
      <line class="st11" x1="605.89" y1="40.94" x2="605.89" y2="259.02"/>
      <line class="st11" x1="680.91" y1="40.94" x2="680.91" y2="259.02"/>
      <line class="st11" x1="755.93" y1="40.94" x2="755.93" y2="259.02"/>
    </g>
  </g>
  <g>
    <g>
      <path id="recharts-area-_r_9d_" class="st20" d="M305.83,149.98h21.88c1.04,0,2.08-1.09,3.13-3.27,1.04-2.18,2.08-11.72,3.13-17.58,1.04-5.86,2.08-13.52,3.13-17.58,1.04-4.07,2.08-4.41,3.13-6.81,1.04-2.41,2.08-7.63,3.13-7.63s2.08,4,3.13,4.09c1.04.09,2.08.04,3.13.14,1.04.09,2.08,13.79,3.13,19.76,1.04,5.97,2.08,11.27,3.13,16.08s2.08,12.81,3.13,12.81h43.76c1.04,0,2.08-1.18,3.13-3.54,1.04-2.36,2.08-10.95,3.13-17.04s2.08-14.06,3.13-19.49c1.04-5.43,2.08-9.75,3.13-13.09s2.08-6.95,3.13-6.95,2.08.32,3.13.95c1.04.64,2.08,13.54,3.13,18.4s2.08,6.06,3.13,10.77,2.08,12.47,3.13,17.45,2.08,12.31,3.13,12.4c1.04.09,2.08.14,3.13.14h40.63c1.04,0,2.08-1.55,3.13-4.63,1.04-3.09,2.08-19.9,3.13-19.9s2.08,1.18,3.13,3.54c1.04,2.36,2.08,11.86,3.13,11.86s2.08-6.22,3.13-8.59c1.04-2.36,2.08-3.73,3.13-5.59,1.04-1.86,2.08-4.29,3.13-5.59,1.04-1.3,2.08-2.18,3.13-2.18s2.08,14.06,3.13,19.22c1.04,5.16,2.08,11.63,3.13,11.72,1.04.09,2.08.14,3.13.14h40.63c1.04,0,2.08-1.77,3.13-5.32,1.04-3.54,2.08-15.61,3.13-21.81,1.04-6.2,2.08-10.11,3.13-15.4s2.08-16.36,3.13-16.36,2.08,2.86,3.13,2.86,2.08-6,3.13-6,2.08,12.13,3.13,16.08c1.04,3.95,2.08,2.54,3.13,7.63,1.04,5.09,2.08,18.56,3.13,24.94,1.04,6.38,2.08,13.36,3.13,13.36h43.76c1.04,0,2.08-2.89,3.13-8.04,1.04-5.16,2.08-14.67,3.13-22.9,1.04-8.22,2.08-26.44,3.13-26.44s2.08,9.54,3.13,9.54,2.08-3.54,3.13-3.54,2.08,16.49,3.13,16.49,2.08-8.45,3.13-8.45,2.08.95,3.13,2.86c1.04,1.91,2.08,16.99,3.13,23.72,1.04,6.72,2.08,16.54,3.13,16.63,1.04.09,2.08.14,3.13.14h40.63c1.04,0,2.08-4.09,3.13-7.63,1.04-3.54,2.08-13.63,3.13-13.63s2.08,1.14,3.13,3.41,2.08,8.68,3.13,10.22c1.04,1.54,2.08,2.32,3.13,2.32s2.08-18.79,3.13-24.81c1.04-6.02,2.08-11.31,3.13-11.31s2.08,1.23,3.13,3.68c1.04,2.45,2.08,13.77,3.13,20.04,1.04,6.27,2.08,17.49,3.13,17.58,1.04.09,2.08.14,3.13.14h18.75-450.1Z"/>
      <path class="st9" d="M305.83,149.98h21.88c1.04,0,2.08-1.09,3.13-3.27,1.04-2.18,2.08-11.72,3.13-17.58,1.04-5.86,2.08-13.52,3.13-17.58,1.04-4.07,2.08-4.41,3.13-6.81,1.04-2.41,2.08-7.63,3.13-7.63s2.08,4,3.13,4.09c1.04.09,2.08.04,3.13.14,1.04.09,2.08,13.79,3.13,19.76,1.04,5.97,2.08,11.27,3.13,16.08s2.08,12.81,3.13,12.81h43.76c1.04,0,2.08-1.18,3.13-3.54,1.04-2.36,2.08-10.95,3.13-17.04s2.08-14.06,3.13-19.49c1.04-5.43,2.08-9.75,3.13-13.09s2.08-6.95,3.13-6.95,2.08.32,3.13.95c1.04.64,2.08,13.54,3.13,18.4s2.08,6.06,3.13,10.77,2.08,12.47,3.13,17.45,2.08,12.31,3.13,12.4c1.04.09,2.08.14,3.13.14h40.63c1.04,0,2.08-1.55,3.13-4.63,1.04-3.09,2.08-19.9,3.13-19.9s2.08,1.18,3.13,3.54c1.04,2.36,2.08,11.86,3.13,11.86s2.08-6.22,3.13-8.59c1.04-2.36,2.08-3.73,3.13-5.59,1.04-1.86,2.08-4.29,3.13-5.59,1.04-1.3,2.08-2.18,3.13-2.18s2.08,14.06,3.13,19.22c1.04,5.16,2.08,11.63,3.13,11.72,1.04.09,2.08.14,3.13.14h40.63c1.04,0,2.08-1.77,3.13-5.32,1.04-3.54,2.08-15.61,3.13-21.81,1.04-6.2,2.08-10.11,3.13-15.4s2.08-16.36,3.13-16.36,2.08,2.86,3.13,2.86,2.08-6,3.13-6,2.08,12.13,3.13,16.08c1.04,3.95,2.08,2.54,3.13,7.63,1.04,5.09,2.08,18.56,3.13,24.94,1.04,6.38,2.08,13.36,3.13,13.36h43.76c1.04,0,2.08-2.89,3.13-8.04,1.04-5.16,2.08-14.67,3.13-22.9,1.04-8.22,2.08-26.44,3.13-26.44s2.08,9.54,3.13,9.54,2.08-3.54,3.13-3.54,2.08,16.49,3.13,16.49,2.08-8.45,3.13-8.45,2.08.95,3.13,2.86c1.04,1.91,2.08,16.99,3.13,23.72,1.04,6.72,2.08,16.54,3.13,16.63,1.04.09,2.08.14,3.13.14h40.63c1.04,0,2.08-4.09,3.13-7.63,1.04-3.54,2.08-13.63,3.13-13.63s2.08,1.14,3.13,3.41,2.08,8.68,3.13,10.22c1.04,1.54,2.08,2.32,3.13,2.32s2.08-18.79,3.13-24.81c1.04-6.02,2.08-11.31,3.13-11.31s2.08,1.23,3.13,3.68c1.04,2.45,2.08,13.77,3.13,20.04,1.04,6.27,2.08,17.49,3.13,17.58,1.04.09,2.08.14,3.13.14h18.75"/>
    </g>
    <g>
      <path id="recharts-area-_r_9e_" class="st22" d="M305.83,112.77c1.04.68,2.08,1.36,3.13,1.36s2.08-.04,3.13-.14,2.08-.82,3.13-.82,2.08.41,3.13.41,2.08-1.77,3.13-3c1.04-1.23,2.08-1.45,3.13-4.36,1.04-2.91,2.08-19.08,3.13-19.08s2.08,4.63,3.13,4.63,2.08-2.07,3.13-4.36c1.04-2.29,2.08-9.4,3.13-9.4s2.08,3.68,3.13,3.68,2.08-6.09,3.13-8.45,2.08-5.72,3.13-5.72,2.08,1.98,3.13,3.68c1.04,1.7,2.08,6.54,3.13,6.54s2.08-2.29,3.13-4.23c1.04-1.93,2.08-4.86,3.13-7.36s2.08-7.63,3.13-7.63,2.08,9.2,3.13,14.17c1.04,4.97,2.08,11.2,3.13,15.67,1.04,4.48,2.08,8.72,3.13,11.18,1.04,2.45,2.08,2.5,3.13,3.68,1.04,1.18,2.08,3.41,3.13,3.41s2.08-3.68,3.13-3.68,2.08,11.04,3.13,11.04,2.08-.05,3.13-.14c1.04-.09,2.08-.82,3.13-.82s2.08.41,3.13.41,2.08-1.55,3.13-3c1.04-1.45,2.08-1.98,3.13-5.72,1.04-3.75,2.08-9.45,3.13-16.77,1.04-7.31,2.08-27.12,3.13-27.12s2.08.18,3.13.55c1.04.36,2.08,3.95,3.13,3.95s2.08-8.04,3.13-8.04h3.13c1.04,0,2.08-5.59,3.13-5.59s2.08,5.07,3.13,6.54,2.08,2.32,3.13,2.32,2.08-.82,3.13-2.32c1.04-1.5,2.08-6.68,3.13-6.68s2.08,4.34,3.13,6c1.04,1.66,2.08,1.32,3.13,3.95s2.08,15.92,3.13,21.4c1.04,5.47,2.08,10.45,3.13,11.45s2.08,1.11,3.13,1.5c1.04.39,2.08.27,3.13.82,1.04.55,2.08,9.4,3.13,9.4h3.13c1.04,0,2.08,1.5,3.13,1.5s2.08-.68,3.13-.68,2.08.82,3.13.82,2.08-.64,3.13-1.91c1.04-1.27,2.08-17.17,3.13-19.9,1.04-2.73,2.08-4.09,3.13-4.09s2.08,1.77,3.13,5.32,2.08,15.52,3.13,22.49,2.08,14.15,3.13,19.35c1.04,5.2,2.08,11.86,3.13,11.86s2.08-6.22,3.13-8.59c1.04-2.36,2.08-3.73,3.13-5.59,1.04-1.86,2.08-1.86,3.13-5.59,1.04-3.73,2.08-12.43,3.13-19.49,1.04-7.06,2.08-16.63,3.13-22.9,1.04-6.27,2.08-12.36,3.13-14.72,1.04-2.36,2.08-3.54,3.13-3.54s2.08,5.13,3.13,9.95,2.08,14.47,3.13,18.95c1.04,4.48,2.08,6.45,3.13,7.91,1.04,1.45,2.08,1.66,3.13,2.18s2.08.32,3.13.95c1.04.64,2.08,7.5,3.13,7.5s2.08-.73,3.13-.82c1.04-.09,2.08-.04,3.13-.14s2.08-.54,3.13-.54,2.08.41,3.13.41,2.08-.86,3.13-2.59c1.04-1.73,2.08-9.43,3.13-12.81s2.08-7.22,3.13-7.5c1.04-.27,2.08-.14,3.13-.41,1.04-.27,2.08-4.77,3.13-4.77s2.08,3.34,3.13,5.32c1.04,1.98,2.08,4.88,3.13,6.54,1.04,1.66,2.08,3.41,3.13,3.41s2.08-4.32,3.13-6c1.04-1.68,2.08-4.09,3.13-4.09s2.08,3.66,3.13,5.04c1.04,1.39,2.08,3.27,3.13,3.27s2.08-1.73,3.13-2.73,2.08-3.27,3.13-3.27,2.08.5,3.13,1.5,2.08,3.66,3.13,6.13c1.04,2.48,2.08,8.72,3.13,8.72s2.08-4.09,3.13-4.09,2.08,1.86,3.13,3c1.04,1.14,2.08,2.41,3.13,3.82s2.08,4.63,3.13,4.63h3.13c1.04,0,2.08-.86,3.13-.95,1.04-.09,2.08-.04,3.13-.14s2.08-1.14,3.13-3.41c1.04-2.27,2.08-9.2,3.13-12.27s2.08-6.13,3.13-6.13,2.08,1.5,3.13,1.5,2.08-8.72,3.13-8.72,2.08,2,3.13,5.72c1.04,3.73,2.08,16.63,3.13,16.63s2.08-3.54,3.13-3.54,2.08,16.49,3.13,16.49,2.08-5.36,3.13-8.45c1.04-3.09,2.08-7.13,3.13-10.09,1.04-2.95,2.08-4.82,3.13-7.63,1.04-2.82,2.08-9.27,3.13-9.27s2.08.14,3.13.14,2.08-1.09,3.13-1.09,2.08,10.02,3.13,13.09,2.08,4.23,3.13,5.32c1.04,1.09,2.08.57,3.13,1.64,1.04,1.07,2.08,4.77,3.13,4.77s2.08-7.9,3.13-7.9,2.08,6.91,3.13,7.63c1.04.73,2.08,1.09,3.13,1.09s2.08-.27,3.13-.27h3.13c1.04,0,2.08-1,3.13-3,1.04-2,2.08-17.04,3.13-17.04s2.08.14,3.13.41c1.04.27,2.08,10.75,3.13,18.13,1.04,7.38,2.08,23.9,3.13,26.17s2.08,1.14,3.13,3.41,2.08,8.68,3.13,10.22c1.04,1.54,2.08,2.32,3.13,2.32s2.08-18.79,3.13-24.81c1.04-6.02,2.08-7.22,3.13-11.31,1.04-4.09,2.08-8.91,3.13-13.22,1.04-4.32,2.08-9.5,3.13-12.68,1.04-3.18,2.08-4.91,3.13-6.41,1.04-1.5,2.08-2.59,3.13-2.59s2.08.5,3.13,1.5c1.04,1,2.08,2.77,3.13,5.04,1.04,2.27,2.08,8.59,3.13,8.59s2.08-1.09,3.13-1.09,2.08,2.2,3.13,4.63,2.08,6.19,3.13,9.95v47.71h-18.75c-1.04,0-2.08-.05-3.13-.14-1.04-.09-2.08-11.31-3.13-17.58-1.04-6.27-2.08-17.58-3.13-20.04-1.04-2.45-2.08-3.68-3.13-3.68s-2.08,5.29-3.13,11.31c-1.04,6.02-2.08,24.81-3.13,24.81s-2.08-.77-3.13-2.32c-1.04-1.54-2.08-7.95-3.13-10.22s-2.08-3.41-3.13-3.41-2.08,10.09-3.13,13.63c-1.04,3.54-2.08,7.63-3.13,7.63h-40.63c-1.04,0-2.08-.05-3.13-.14-1.04-.09-2.08-9.9-3.13-16.63-1.04-6.72-2.08-21.81-3.13-23.72-1.04-1.91-2.08-2.86-3.13-2.86s-2.08,8.45-3.13,8.45-2.08-16.49-3.13-16.49-2.08,3.54-3.13,3.54-2.08-9.54-3.13-9.54-2.08,18.22-3.13,26.44c-1.04,8.22-2.08,17.74-3.13,22.9-1.04,5.16-2.08,8.04-3.13,8.04h-43.76c-1.04,0-2.08-6.97-3.13-13.36-1.04-6.38-2.08-19.85-3.13-24.94-1.04-5.09-2.08-3.68-3.13-7.63-1.04-3.95-2.08-16.08-3.13-16.08s-2.08,6-3.13,6-2.08-2.86-3.13-2.86-2.08,11.06-3.13,16.36-2.08,9.2-3.13,15.4c-1.04,6.2-2.08,18.26-3.13,21.81-1.04,3.54-2.08,5.32-3.13,5.32h-40.63c-1.04,0-2.08-.05-3.13-.14-1.04-.09-2.08-6.56-3.13-11.72-1.04-5.16-2.08-19.22-3.13-19.22s-2.08.89-3.13,2.18c-1.04,1.29-2.08,3.73-3.13,5.59-1.04,1.86-2.08,3.23-3.13,5.59-1.04,2.36-2.08,8.59-3.13,8.59s-2.08-9.5-3.13-11.86c-1.04-2.36-2.08-3.54-3.13-3.54s-2.08,16.81-3.13,19.9c-1.04,3.09-2.08,4.63-3.13,4.63h-40.63c-1.04,0-2.08-.05-3.13-.14-1.04-.09-2.08-7.43-3.13-12.4s-2.08-12.74-3.13-17.45-2.08-5.91-3.13-10.77-2.08-17.76-3.13-18.4c-1.04-.64-2.08-.95-3.13-.95s-2.08,3.61-3.13,6.95-2.08,7.66-3.13,13.09c-1.04,5.43-2.08,13.4-3.13,19.49s-2.08,14.68-3.13,17.04c-1.04,2.36-2.08,3.54-3.13,3.54h-43.76c-1.04,0-2.08-8-3.13-12.81s-2.08-10.11-3.13-16.08c-1.04-5.97-2.08-19.67-3.13-19.76-1.04-.09-2.08-.05-3.13-.14-1.04-.09-2.08-4.09-3.13-4.09s-2.08,5.22-3.13,7.63c-1.04,2.41-2.08,2.75-3.13,6.82-1.04,4.07-2.08,11.72-3.13,17.58-1.04,5.86-2.08,15.4-3.13,17.58-1.04,2.18-2.08,3.27-3.13,3.27h-21.88v-37.21Z"/>
      <path class="st0" d="M305.83,112.77c1.04.68,2.08,1.36,3.13,1.36s2.08-.04,3.13-.14,2.08-.82,3.13-.82,2.08.41,3.13.41,2.08-1.77,3.13-3c1.04-1.23,2.08-1.45,3.13-4.36,1.04-2.91,2.08-19.08,3.13-19.08s2.08,4.63,3.13,4.63,2.08-2.07,3.13-4.36c1.04-2.29,2.08-9.4,3.13-9.4s2.08,3.68,3.13,3.68,2.08-6.09,3.13-8.45,2.08-5.72,3.13-5.72,2.08,1.98,3.13,3.68c1.04,1.7,2.08,6.54,3.13,6.54s2.08-2.29,3.13-4.23c1.04-1.93,2.08-4.86,3.13-7.36s2.08-7.63,3.13-7.63,2.08,9.2,3.13,14.17c1.04,4.97,2.08,11.2,3.13,15.67,1.04,4.48,2.08,8.72,3.13,11.18,1.04,2.45,2.08,2.5,3.13,3.68,1.04,1.18,2.08,3.41,3.13,3.41s2.08-3.68,3.13-3.68,2.08,11.04,3.13,11.04,2.08-.05,3.13-.14c1.04-.09,2.08-.82,3.13-.82s2.08.41,3.13.41,2.08-1.55,3.13-3c1.04-1.45,2.08-1.98,3.13-5.72,1.04-3.75,2.08-9.45,3.13-16.77,1.04-7.31,2.08-27.12,3.13-27.12s2.08.18,3.13.55c1.04.36,2.08,3.95,3.13,3.95s2.08-8.04,3.13-8.04h3.13c1.04,0,2.08-5.59,3.13-5.59s2.08,5.07,3.13,6.54,2.08,2.32,3.13,2.32,2.08-.82,3.13-2.32c1.04-1.5,2.08-6.68,3.13-6.68s2.08,4.34,3.13,6c1.04,1.66,2.08,1.32,3.13,3.95s2.08,15.92,3.13,21.4c1.04,5.47,2.08,10.45,3.13,11.45s2.08,1.11,3.13,1.5c1.04.39,2.08.27,3.13.82,1.04.55,2.08,9.4,3.13,9.4h3.13c1.04,0,2.08,1.5,3.13,1.5s2.08-.68,3.13-.68,2.08.82,3.13.82,2.08-.64,3.13-1.91c1.04-1.27,2.08-17.17,3.13-19.9,1.04-2.73,2.08-4.09,3.13-4.09s2.08,1.77,3.13,5.32,2.08,15.52,3.13,22.49,2.08,14.15,3.13,19.35c1.04,5.2,2.08,11.86,3.13,11.86s2.08-6.22,3.13-8.59c1.04-2.36,2.08-3.73,3.13-5.59,1.04-1.86,2.08-1.86,3.13-5.59,1.04-3.73,2.08-12.43,3.13-19.49,1.04-7.06,2.08-16.63,3.13-22.9,1.04-6.27,2.08-12.36,3.13-14.72,1.04-2.36,2.08-3.54,3.13-3.54s2.08,5.13,3.13,9.95,2.08,14.47,3.13,18.95c1.04,4.48,2.08,6.45,3.13,7.91,1.04,1.45,2.08,1.66,3.13,2.18s2.08.32,3.13.95c1.04.64,2.08,7.5,3.13,7.5s2.08-.73,3.13-.82c1.04-.09,2.08-.04,3.13-.14s2.08-.54,3.13-.54,2.08.41,3.13.41,2.08-.86,3.13-2.59c1.04-1.73,2.08-9.43,3.13-12.81s2.08-7.22,3.13-7.5c1.04-.27,2.08-.14,3.13-.41,1.04-.27,2.08-4.77,3.13-4.77s2.08,3.34,3.13,5.32c1.04,1.98,2.08,4.88,3.13,6.54,1.04,1.66,2.08,3.41,3.13,3.41s2.08-4.32,3.13-6c1.04-1.68,2.08-4.09,3.13-4.09s2.08,3.66,3.13,5.04c1.04,1.39,2.08,3.27,3.13,3.27s2.08-1.73,3.13-2.73,2.08-3.27,3.13-3.27,2.08.5,3.13,1.5,2.08,3.66,3.13,6.13c1.04,2.48,2.08,8.72,3.13,8.72s2.08-4.09,3.13-4.09,2.08,1.86,3.13,3c1.04,1.14,2.08,2.41,3.13,3.82s2.08,4.63,3.13,4.63h3.13c1.04,0,2.08-.86,3.13-.95,1.04-.09,2.08-.04,3.13-.14s2.08-1.14,3.13-3.41c1.04-2.27,2.08-9.2,3.13-12.27s2.08-6.13,3.13-6.13,2.08,1.5,3.13,1.5,2.08-8.72,3.13-8.72,2.08,2,3.13,5.72c1.04,3.73,2.08,16.63,3.13,16.63s2.08-3.54,3.13-3.54,2.08,16.49,3.13,16.49,2.08-5.36,3.13-8.45c1.04-3.09,2.08-7.13,3.13-10.09,1.04-2.95,2.08-4.82,3.13-7.63,1.04-2.82,2.08-9.27,3.13-9.27s2.08.14,3.13.14,2.08-1.09,3.13-1.09,2.08,10.02,3.13,13.09,2.08,4.23,3.13,5.32c1.04,1.09,2.08.57,3.13,1.64,1.04,1.07,2.08,4.77,3.13,4.77s2.08-7.9,3.13-7.9,2.08,6.91,3.13,7.63c1.04.73,2.08,1.09,3.13,1.09s2.08-.27,3.13-.27h3.13c1.04,0,2.08-1,3.13-3,1.04-2,2.08-17.04,3.13-17.04s2.08.14,3.13.41c1.04.27,2.08,10.75,3.13,18.13,1.04,7.38,2.08,23.9,3.13,26.17s2.08,1.14,3.13,3.41,2.08,8.68,3.13,10.22c1.04,1.54,2.08,2.32,3.13,2.32s2.08-18.79,3.13-24.81c1.04-6.02,2.08-7.22,3.13-11.31,1.04-4.09,2.08-8.91,3.13-13.22,1.04-4.32,2.08-9.5,3.13-12.68,1.04-3.18,2.08-4.91,3.13-6.41,1.04-1.5,2.08-2.59,3.13-2.59s2.08.5,3.13,1.5c1.04,1,2.08,2.77,3.13,5.04,1.04,2.27,2.08,8.59,3.13,8.59s2.08-1.09,3.13-1.09,2.08,2.2,3.13,4.63,2.08,6.19,3.13,9.95"/>
    </g>
    <g>
      <path id="recharts-area-_r_9f_" class="st28" d="M305.83,149.98h178.17c1.04,0,2.08,1.36,3.13,1.36h12.5c1.04,0,2.08-1.36,3.13-1.36h62.51c1.04,0,2.08,1.36,3.13,1.36h3.13c1.04,0,2.08-1.36,3.13-1.36h62.51c1.04,0,2.08,1.36,3.13,1.36h9.38c1.04,0,2.08-1.36,3.13-1.36h53.14c1.04,0,2.08,1.36,3.13,1.36h15.63c1.04,0,2.08-1.36,3.13-1.36h28.13-450.1Z"/>
      <path class="st5" d="M305.83,149.98h178.17c1.04,0,2.08,1.36,3.13,1.36h12.5c1.04,0,2.08-1.36,3.13-1.36h62.51c1.04,0,2.08,1.36,3.13,1.36h3.13c1.04,0,2.08-1.36,3.13-1.36h62.51c1.04,0,2.08,1.36,3.13,1.36h9.38c1.04,0,2.08-1.36,3.13-1.36h53.14c1.04,0,2.08,1.36,3.13,1.36h15.63c1.04,0,2.08-1.36,3.13-1.36h28.13"/>
    </g>
    <g>
      <path id="recharts-area-_r_9g_" class="st19" d="M305.83,149.98h178.17c1.04,0,2.08,16.67,3.13,24.4s2.08,21.94,3.13,21.94,2.08-2.64,3.13-5.32c1.04-2.68,2.08-6.41,3.13-10.77,1.04-4.36,2.08-10.36,3.13-15.4,1.04-5.04,2.08-14.86,3.13-14.86h62.51c1.04,0,2.08,3.68,3.13,3.68s2.08-.18,3.13-.54,2.08-3.13,3.13-3.13h62.51c1.04,0,2.08,22.85,3.13,24.94,1.04,2.09,2.08,2,3.13,3.14,1.04,1.14,2.08,3.68,3.13,3.68s2.08-13.38,3.13-18.67,2.08-13.08,3.13-13.08h53.14c1.04,0,2.08,2.09,3.13,6.27s2.08,12.99,3.13,21.13,2.08,26.31,3.13,27.67,2.08,2.04,3.13,2.04,2.08-10.68,3.13-19.49c1.04-8.81,2.08-30.58,3.13-33.39,1.04-2.82,2.08-4.22,3.13-4.22h28.13-450.1Z"/>
      <path class="st5" d="M305.83,149.98h178.17c1.04,0,2.08,16.67,3.13,24.4s2.08,21.94,3.13,21.94,2.08-2.64,3.13-5.32c1.04-2.68,2.08-6.41,3.13-10.77,1.04-4.36,2.08-10.36,3.13-15.4,1.04-5.04,2.08-14.86,3.13-14.86h62.51c1.04,0,2.08,3.68,3.13,3.68s2.08-.18,3.13-.54,2.08-3.13,3.13-3.13h62.51c1.04,0,2.08,22.85,3.13,24.94,1.04,2.09,2.08,2,3.13,3.14,1.04,1.14,2.08,3.68,3.13,3.68s2.08-13.38,3.13-18.67,2.08-13.08,3.13-13.08h53.14c1.04,0,2.08,2.09,3.13,6.27s2.08,12.99,3.13,21.13,2.08,26.31,3.13,27.67,2.08,2.04,3.13,2.04,2.08-10.68,3.13-19.49c1.04-8.81,2.08-30.58,3.13-33.39,1.04-2.82,2.08-4.22,3.13-4.22h28.13"/>
    </g>
  </g>
  <g>
    <line class="st2" x1="305.83" y1="40.94" x2="305.83" y2="259.02"/>
    <g>
      <line class="st2" x1="301.98" y1="259.02" x2="305.83" y2="259.02"/>
      <line class="st2" x1="301.98" y1="204.5" x2="305.83" y2="204.5"/>
      <line class="st2" x1="301.98" y1="149.98" x2="305.83" y2="149.98"/>
      <line class="st2" x1="301.98" y1="95.46" x2="305.83" y2="95.46"/>
      <line class="st2" x1="301.98" y1="40.94" x2="305.83" y2="40.94"/>
    </g>
  </g>
  <g>
    <g>
      <g class="st29">
        <text class="st31" transform="translate(295.61 268.25)"><tspan x="0" y="0">Wed 12</tspan></text>
      </g>
      <g class="st29">
        <text class="st31" transform="translate(371.9 268.25)"><tspan x="0" y="0">Thu 13</tspan></text>
      </g>
      <g class="st29">
        <text class="st31" transform="translate(448.77 268.25)"><tspan x="0" y="0">Fri 14</tspan></text>
      </g>
      <g class="st29">
        <text class="st31" transform="translate(521.96 268.25)"><tspan x="0" y="0">Sat 15</tspan></text>
      </g>
      <g class="st29">
        <text class="st31" transform="translate(596.87 268.25)"><tspan x="0" y="0">Sun 16</tspan></text>
      </g>
      <g class="st29">
        <text class="st31" transform="translate(671.4 268.25)"><tspan x="0" y="0">Mon 17</tspan></text>
      </g>
      <g class="st29">
        <text class="st31" transform="translate(741.59 268.25)"><tspan x="0" y="0">Tue 18</tspan></text>
      </g>
    </g>
    <g>
      <g class="st29">
        <text class="st31" transform="translate(290.43 261.07)"><tspan x="0" y="0">-80</tspan></text>
      </g>
      <g class="st29">
        <text class="st31" transform="translate(290.31 206.55)"><tspan x="0" y="0">-40</tspan></text>
      </g>
      <g class="st29">
        <text class="st31" transform="translate(296.81 152.03)"><tspan x="0" y="0">0</tspan></text>
      </g>
      <g class="st29">
        <text class="st31" transform="translate(293.22 97.51)"><tspan x="0" y="0">40</tspan></text>
      </g>
      <g class="st29">
        <text class="st31" transform="translate(293.34 44.11)"><tspan x="0" y="0">80</tspan></text>
      </g>
    </g>
    <g class="st29">
      <text class="st30" transform="translate(273.06 149.98) rotate(-90)"><tspan x="0" y="0">kW</tspan></text>
    </g>
  </g>
  <g>
    <g>
      <line class="st11" x1="305.83" y1="503.17" x2="755.93" y2="503.17"/>
      <line class="st11" x1="305.83" y1="448.65" x2="755.93" y2="448.65"/>
      <line class="st11" x1="305.83" y1="394.13" x2="755.93" y2="394.13"/>
      <line class="st11" x1="305.83" y1="339.61" x2="755.93" y2="339.61"/>
      <line class="st11" x1="305.83" y1="285.09" x2="755.93" y2="285.09"/>
    </g>
    <g>
      <line class="st11" x1="305.83" y1="285.09" x2="305.83" y2="503.17"/>
      <line class="st11" x1="380.84" y1="285.09" x2="380.84" y2="503.17"/>
      <line class="st11" x1="455.86" y1="285.09" x2="455.86" y2="503.17"/>
      <line class="st11" x1="530.88" y1="285.09" x2="530.88" y2="503.17"/>
      <line class="st11" x1="605.89" y1="285.09" x2="605.89" y2="503.17"/>
      <line class="st11" x1="680.91" y1="285.09" x2="680.91" y2="503.17"/>
      <line class="st11" x1="755.93" y1="285.09" x2="755.93" y2="503.17"/>
    </g>
  </g>
  <g>
    <line class="st2" x1="305.83" y1="285.09" x2="305.83" y2="503.17"/>
    <g>
      <line class="st2" x1="301.98" y1="503.17" x2="305.83" y2="503.17"/>
      <line class="st2" x1="301.98" y1="448.65" x2="305.83" y2="448.65"/>
      <line class="st2" x1="301.98" y1="394.13" x2="305.83" y2="394.13"/>
      <line class="st2" x1="301.98" y1="339.61" x2="305.83" y2="339.61"/>
      <line class="st2" x1="301.98" y1="285.09" x2="305.83" y2="285.09"/>
    </g>
  </g>
  <g>
    <g>
      <g class="st29">
        <text class="st31" transform="translate(295.61 512.4)"><tspan x="0" y="0">Wed 12</tspan></text>
      </g>
      <g class="st29">
        <text class="st31" transform="translate(371.9 512.4)"><tspan x="0" y="0">Thu 13</tspan></text>
      </g>
      <g class="st29">
        <text class="st31" transform="translate(448.77 512.4)"><tspan x="0" y="0">Fri 14</tspan></text>
      </g>
      <g class="st29">
        <text class="st31" transform="translate(521.96 512.4)"><tspan x="0" y="0">Sat 15</tspan></text>
      </g>
      <g class="st29">
        <text class="st31" transform="translate(596.87 512.4)"><tspan x="0" y="0">Sun 16</tspan></text>
      </g>
      <g class="st29">
        <text class="st31" transform="translate(671.4 512.4)"><tspan x="0" y="0">Mon 17</tspan></text>
      </g>
      <g class="st29">
        <text class="st31" transform="translate(741.59 512.4)"><tspan x="0" y="0">Tue 18</tspan></text>
      </g>
    </g>
    <g>
      <g class="st29">
        <text class="st31" transform="translate(290.43 505.22)"><tspan x="0" y="0">-80</tspan></text>
      </g>
      <g class="st29">
        <text class="st31" transform="translate(290.31 450.7)"><tspan x="0" y="0">-40</tspan></text>
      </g>
      <g class="st29">
        <text class="st31" transform="translate(296.81 396.18)"><tspan x="0" y="0">0</tspan></text>
      </g>
      <g class="st29">
        <text class="st31" transform="translate(293.22 341.66)"><tspan x="0" y="0">40</tspan></text>
      </g>
      <g class="st29">
        <text class="st31" transform="translate(293.34 288.26)"><tspan x="0" y="0">80</tspan></text>
      </g>
    </g>
    <g class="st29">
      <text class="st30" transform="translate(273.06 394.13) rotate(-90)"><tspan x="0" y="0">kW</tspan></text>
    </g>
  </g>
  <g>
    <g>
      <line class="st11" x1="305.83" y1="756.32" x2="755.93" y2="756.32"/>
      <line class="st11" x1="305.83" y1="701.8" x2="755.93" y2="701.8"/>
      <line class="st11" x1="305.83" y1="647.28" x2="755.93" y2="647.28"/>
      <line class="st11" x1="305.83" y1="592.76" x2="755.93" y2="592.76"/>
      <line class="st11" x1="305.83" y1="538.24" x2="755.93" y2="538.24"/>
    </g>
    <g>
      <line class="st11" x1="305.83" y1="538.24" x2="305.83" y2="756.32"/>
      <line class="st11" x1="380.84" y1="538.24" x2="380.84" y2="756.32"/>
      <line class="st11" x1="455.86" y1="538.24" x2="455.86" y2="756.32"/>
      <line class="st11" x1="530.88" y1="538.24" x2="530.88" y2="756.32"/>
      <line class="st11" x1="605.89" y1="538.24" x2="605.89" y2="756.32"/>
      <line class="st11" x1="680.91" y1="538.24" x2="680.91" y2="756.32"/>
      <line class="st11" x1="755.93" y1="538.24" x2="755.93" y2="756.32"/>
    </g>
  </g>
  <g>
    <line class="st2" x1="305.83" y1="538.24" x2="305.83" y2="756.32"/>
    <g>
      <line class="st2" x1="301.98" y1="756.32" x2="305.83" y2="756.32"/>
      <line class="st2" x1="301.98" y1="701.8" x2="305.83" y2="701.8"/>
      <line class="st2" x1="301.98" y1="647.28" x2="305.83" y2="647.28"/>
      <line class="st2" x1="301.98" y1="592.76" x2="305.83" y2="592.76"/>
      <line class="st2" x1="301.98" y1="538.24" x2="305.83" y2="538.24"/>
    </g>
  </g>
  <g>
    <g>
      <g class="st29">
        <text class="st31" transform="translate(295.61 765.55)"><tspan x="0" y="0">Wed 12</tspan></text>
      </g>
      <g class="st29">
        <text class="st31" transform="translate(371.9 765.55)"><tspan x="0" y="0">Thu 13</tspan></text>
      </g>
      <g class="st29">
        <text class="st31" transform="translate(448.77 765.55)"><tspan x="0" y="0">Fri 14</tspan></text>
      </g>
      <g class="st29">
        <text class="st31" transform="translate(521.96 765.55)"><tspan x="0" y="0">Sat 15</tspan></text>
      </g>
      <g class="st29">
        <text class="st31" transform="translate(596.87 765.55)"><tspan x="0" y="0">Sun 16</tspan></text>
      </g>
      <g class="st29">
        <text class="st31" transform="translate(671.4 765.55)"><tspan x="0" y="0">Mon 17</tspan></text>
      </g>
      <g class="st29">
        <text class="st31" transform="translate(741.59 765.55)"><tspan x="0" y="0">Tue 18</tspan></text>
      </g>
    </g>
    <g>
      <g class="st29">
        <text class="st31" transform="translate(290.43 758.37)"><tspan x="0" y="0">-80</tspan></text>
      </g>
      <g class="st29">
        <text class="st31" transform="translate(290.31 703.85)"><tspan x="0" y="0">-40</tspan></text>
      </g>
      <g class="st29">
        <text class="st31" transform="translate(296.81 649.33)"><tspan x="0" y="0">0</tspan></text>
      </g>
      <g class="st29">
        <text class="st31" transform="translate(293.22 594.81)"><tspan x="0" y="0">40</tspan></text>
      </g>
      <g class="st29">
        <text class="st31" transform="translate(293.34 541.41)"><tspan x="0" y="0">80</tspan></text>
      </g>
    </g>
    <g class="st29">
      <text class="st30" transform="translate(273.06 647.28) rotate(-90)"><tspan x="0" y="0">kW</tspan></text>
    </g>
  </g>
  <g>
    <g>
      <path id="recharts-area-_r_9q_" class="st20" d="M306.12,394.21h21.87c1.04,0,2.08-1.07,3.12-3.21,1.04-2.14,2.08-11.51,3.12-17.27,1.04-5.76,2.08-13.28,3.12-17.27,1.04-3.99,2.08-4.33,3.12-6.69,1.04-2.37,2.08-7.5,3.12-7.5s2.08,3.93,3.12,4.02c1.04.09,2.08.04,3.12.13,1.04.09,2.08,13.54,3.12,19.41,1.04,5.87,2.08,11.07,3.12,15.8s2.08,12.58,3.12,12.58h43.73c1.04,0,2.08-1.16,3.12-3.48,1.04-2.32,2.08-10.76,3.12-16.73s2.08-13.81,3.12-19.14c1.04-5.33,2.08-9.57,3.12-12.85s2.08-6.83,3.12-6.83,2.08.31,3.12.94c1.04.62,2.08,13.3,3.12,18.07s2.08,5.96,3.12,10.58,2.08,12.25,3.12,17.14,2.08,12.09,3.12,12.18c1.04.09,2.08.13,3.12.13h40.61c1.04,0,2.08-1.52,3.12-4.55,1.04-3.03,2.08-19.55,3.12-19.55s2.08,1.16,3.12,3.48c1.04,2.32,2.08,11.65,3.12,11.65s2.08-6.11,3.12-8.43c1.04-2.32,2.08-3.66,3.12-5.49,1.04-1.83,2.08-4.22,3.12-5.49,1.04-1.27,2.08-2.14,3.12-2.14s2.08,13.81,3.12,18.88c1.04,5.07,2.08,11.42,3.12,11.51,1.04.09,2.08.13,3.12.13h40.61c1.04,0,2.08-1.74,3.12-5.22,1.04-3.48,2.08-15.33,3.12-21.42,1.04-6.09,2.08-9.93,3.12-15.13s2.08-16.06,3.12-16.06,2.08,2.81,3.12,2.81,2.08-5.89,3.12-5.89,2.08,11.91,3.12,15.8c1.04,3.88,2.08,2.5,3.12,7.5,1.04,5,2.08,18.23,3.12,24.5,1.04,6.27,2.08,13.12,3.12,13.12h43.73c1.04,0,2.08-2.83,3.12-7.9,1.04-5.06,2.08-14.41,3.12-22.49,1.04-8.08,2.08-25.97,3.12-25.97s2.08,9.37,3.12,9.37,2.08-3.48,3.12-3.48,2.08,16.2,3.12,16.2,2.08-8.3,3.12-8.3,2.08.94,3.12,2.81c1.04,1.87,2.08,16.69,3.12,23.29,1.04,6.61,2.08,16.24,3.12,16.33,1.04.09,2.08.13,3.12.13h40.61c1.04,0,2.08-4.02,3.12-7.5,1.04-3.48,2.08-13.39,3.12-13.39s2.08,1.12,3.12,3.35c1.04,2.23,2.08,8.52,3.12,10.04,1.04,1.52,2.08,2.28,3.12,2.28s2.08-18.45,3.12-24.37c1.04-5.91,2.08-11.11,3.12-11.11s2.08,1.2,3.12,3.61c1.04,2.41,2.08,13.52,3.12,19.68,1.04,6.16,2.08,17.18,3.12,17.27,1.04.09,2.08.13,3.12.13h18.74-449.81Z"/>
      <path class="st13" d="M306.12,394.21h21.87c1.04,0,2.08-1.07,3.12-3.21,1.04-2.14,2.08-11.51,3.12-17.27,1.04-5.76,2.08-13.28,3.12-17.27,1.04-3.99,2.08-4.33,3.12-6.69,1.04-2.37,2.08-7.5,3.12-7.5s2.08,3.93,3.12,4.02c1.04.09,2.08.04,3.12.13,1.04.09,2.08,13.54,3.12,19.41,1.04,5.87,2.08,11.07,3.12,15.8s2.08,12.58,3.12,12.58h43.73c1.04,0,2.08-1.16,3.12-3.48,1.04-2.32,2.08-10.76,3.12-16.73s2.08-13.81,3.12-19.14c1.04-5.33,2.08-9.57,3.12-12.85s2.08-6.83,3.12-6.83,2.08.31,3.12.94c1.04.62,2.08,13.3,3.12,18.07s2.08,5.96,3.12,10.58,2.08,12.25,3.12,17.14,2.08,12.09,3.12,12.18c1.04.09,2.08.13,3.12.13h40.61c1.04,0,2.08-1.52,3.12-4.55,1.04-3.03,2.08-19.55,3.12-19.55s2.08,1.16,3.12,3.48c1.04,2.32,2.08,11.65,3.12,11.65s2.08-6.11,3.12-8.43c1.04-2.32,2.08-3.66,3.12-5.49,1.04-1.83,2.08-4.22,3.12-5.49,1.04-1.27,2.08-2.14,3.12-2.14s2.08,13.81,3.12,18.88c1.04,5.07,2.08,11.42,3.12,11.51,1.04.09,2.08.13,3.12.13h40.61c1.04,0,2.08-1.74,3.12-5.22,1.04-3.48,2.08-15.33,3.12-21.42,1.04-6.09,2.08-9.93,3.12-15.13s2.08-16.06,3.12-16.06,2.08,2.81,3.12,2.81,2.08-5.89,3.12-5.89,2.08,11.91,3.12,15.8c1.04,3.88,2.08,2.5,3.12,7.5,1.04,5,2.08,18.23,3.12,24.5,1.04,6.27,2.08,13.12,3.12,13.12h43.73c1.04,0,2.08-2.83,3.12-7.9,1.04-5.06,2.08-14.41,3.12-22.49,1.04-8.08,2.08-25.97,3.12-25.97s2.08,9.37,3.12,9.37,2.08-3.48,3.12-3.48,2.08,16.2,3.12,16.2,2.08-8.3,3.12-8.3,2.08.94,3.12,2.81c1.04,1.87,2.08,16.69,3.12,23.29,1.04,6.61,2.08,16.24,3.12,16.33,1.04.09,2.08.13,3.12.13h40.61c1.04,0,2.08-4.02,3.12-7.5,1.04-3.48,2.08-13.39,3.12-13.39s2.08,1.12,3.12,3.35c1.04,2.23,2.08,8.52,3.12,10.04,1.04,1.52,2.08,2.28,3.12,2.28s2.08-18.45,3.12-24.37c1.04-5.91,2.08-11.11,3.12-11.11s2.08,1.2,3.12,3.61c1.04,2.41,2.08,13.52,3.12,19.68,1.04,6.16,2.08,17.18,3.12,17.27,1.04.09,2.08.13,3.12.13h18.74"/>
    </g>
    <g>
      <path id="recharts-area-_r_9r_" class="st18" d="M306.12,394.21c1.04-.04,2.08-.09,3.12-.27,1.04-.18,2.08-3.03,3.12-4.42,1.04-1.38,2.08-2.43,3.12-3.88,1.04-1.45,2.08-4.82,3.12-4.82s2.08.76,3.12,2.28c1.04,1.52,2.08,5.22,3.12,6.96,1.04,1.74,2.08,3.48,3.12,3.48s2.08-1.12,3.12-3.35,2.08-12.74,3.12-18.88c1.04-6.14,2.08-12.12,3.12-17.94s2.08-12.92,3.12-17c1.04-4.08,2.08-7.5,3.12-7.5s2.08,2.95,3.12,4.02c1.04,1.07,2.08.8,3.12,2.41s2.08,11.18,3.12,17.14,2.08,12.03,3.12,18.61c1.04,6.58,2.08,20.88,3.12,20.88s2.08-2.14,3.12-2.14,2.08.18,3.12.54,2.08,1.78,3.12,1.87c1.04.09,2.08.13,3.12.13s2.08-4.57,3.12-6.29,2.08-4.02,3.12-4.02h3.12c1.04,0,2.08.36,3.12,1.07,1.04.71,2.08,5.09,3.12,6.69,1.04,1.61,2.08,2.77,3.12,2.95,1.04.18,2.08.27,3.12.27s2.08-2.41,3.12-2.41,2.08.94,3.12.94,2.08-.22,3.12-.67,2.08-1.61,3.12-4.82,2.08-14.46,3.12-20.22c1.04-5.76,2.08-8.77,3.12-14.32s2.08-14.06,3.12-19.01c1.04-4.95,2.08-10.71,3.12-10.71s2.08.71,3.12,2.14,2.08,18.16,3.12,22.09c1.04,3.93,2.08,1.96,3.12,5.89,1.04,3.93,2.08,18.74,3.12,22.76s2.08,5.93,3.12,6.02,2.08.13,3.12.13h40.61c1.04,0,2.08-1.52,3.12-4.55,1.04-3.03,2.08-14.32,3.12-14.32s2.08,7.77,3.12,11.65c1.04,3.88,2.08,11.65,3.12,11.65s2.08-6.11,3.12-8.43c1.04-2.32,2.08-3.66,3.12-5.49,1.04-1.83,2.08-3.37,3.12-5.49,1.04-2.12,2.08-7.23,3.12-7.23s2.08,23.56,3.12,23.56,2.08-1.47,3.12-1.47,2.08.13,3.12.13h40.61c1.04,0,2.08-1.74,3.12-5.22,1.04-3.48,2.08-15.33,3.12-21.42,1.04-6.09,2.08-12.99,3.12-15.13,1.04-2.14,2.08-3.21,3.12-3.21s2.08,3.35,3.12,3.35,2.08-5.89,3.12-5.89,2.08,11.91,3.12,15.8c1.04,3.88,2.08,2.5,3.12,7.5,1.04,5,2.08,24.5,3.12,24.5s2.08-.27,3.12-.27h40.61c1.04,0,2.08,13.39,3.12,13.39s2.08-2.83,3.12-7.9c1.04-5.06,2.08-14.41,3.12-22.49,1.04-8.08,2.08-25.97,3.12-25.97s2.08,9.37,3.12,9.37,2.08-3.48,3.12-3.48,2.08,16.2,3.12,16.2,2.08-8.3,3.12-8.3,2.08.94,3.12,2.81c1.04,1.87,2.08,5.53,3.12,9.91,1.04,4.37,2.08,16.24,3.12,16.33s2.08.13,3.12.13h3.12c1.04,0,2.08,13.39,3.12,13.39h34.36c1.04,0,2.08-4.02,3.12-7.5,1.04-3.48,2.08-13.39,3.12-13.39s2.08,1.12,3.12,3.35c1.04,2.23,2.08,8.52,3.12,10.04,1.04,1.52,2.08,2.28,3.12,2.28s2.08-18.45,3.12-24.37c1.04-5.91,2.08-11.11,3.12-11.11s2.08,1.2,3.12,3.61c1.04,2.41,2.08,13.52,3.12,19.68,1.04,6.16,2.08,17.18,3.12,17.27,1.04.09,2.08.13,3.12.13h3.12c1.04,0,2.08-13.39,3.12-13.39h3.12c1.04,0,2.08,13.39,3.12,13.39h6.25-18.74c-1.04,0-2.08-.04-3.12-.13-1.04-.09-2.08-11.11-3.12-17.27-1.04-6.16-2.08-17.27-3.12-19.68-1.04-2.41-2.08-3.61-3.12-3.61s-2.08,5.2-3.12,11.11c-1.04,5.91-2.08,24.37-3.12,24.37s-2.08-.76-3.12-2.28c-1.04-1.52-2.08-7.81-3.12-10.04-1.04-2.23-2.08-3.35-3.12-3.35s-2.08,9.91-3.12,13.39c-1.04,3.48-2.08,7.5-3.12,7.5h-40.61c-1.04,0-2.08-.04-3.12-.13-1.04-.09-2.08-9.73-3.12-16.33-1.04-6.6-2.08-21.42-3.12-23.29-1.04-1.87-2.08-2.81-3.12-2.81s-2.08,8.3-3.12,8.3-2.08-16.2-3.12-16.2-2.08,3.48-3.12,3.48-2.08-9.37-3.12-9.37-2.08,17.9-3.12,25.97c-1.04,8.08-2.08,17.43-3.12,22.49-1.04,5.07-2.08,7.9-3.12,7.9h-43.73c-1.04,0-2.08-6.85-3.12-13.12-1.04-6.27-2.08-19.5-3.12-24.5-1.04-5-2.08-3.61-3.12-7.5-1.04-3.88-2.08-15.8-3.12-15.8s-2.08,5.89-3.12,5.89-2.08-2.81-3.12-2.81-2.08,10.87-3.12,16.06-2.08,9.04-3.12,15.13c-1.04,6.09-2.08,17.94-3.12,21.42-1.04,3.48-2.08,5.22-3.12,5.22h-40.61c-1.04,0-2.08-.04-3.12-.13-1.04-.09-2.08-6.45-3.12-11.51-1.04-5.06-2.08-18.88-3.12-18.88s-2.08.87-3.12,2.14c-1.04,1.27-2.08,3.66-3.12,5.49-1.04,1.83-2.08,3.17-3.12,5.49-1.04,2.32-2.08,8.43-3.12,8.43s-2.08-9.33-3.12-11.65c-1.04-2.32-2.08-3.48-3.12-3.48s-2.08,16.51-3.12,19.55c-1.04,3.03-2.08,4.55-3.12,4.55h-40.61c-1.04,0-2.08-.04-3.12-.13-1.04-.09-2.08-7.3-3.12-12.18s-2.08-12.52-3.12-17.14-2.08-5.8-3.12-10.58-2.08-17.45-3.12-18.07c-1.04-.62-2.08-.94-3.12-.94s-2.08,3.55-3.12,6.83-2.08,7.52-3.12,12.85c-1.04,5.33-2.08,13.16-3.12,19.14s-2.08,14.41-3.12,16.73c-1.04,2.32-2.08,3.48-3.12,3.48h-43.73c-1.04,0-2.08-7.85-3.12-12.58s-2.08-9.93-3.12-15.8c-1.04-5.87-2.08-19.32-3.12-19.41-1.04-.09-2.08-.04-3.12-.13-1.04-.09-2.08-4.02-3.12-4.02s-2.08,5.13-3.12,7.5c-1.04,2.36-2.08,2.7-3.12,6.69-1.04,3.99-2.08,11.51-3.12,17.27-1.04,5.76-2.08,15.13-3.12,17.27-1.04,2.14-2.08,3.21-3.12,3.21h-21.87Z"/>
      <path class="st14" d="M306.12,394.21c1.04-.04,2.08-.09,3.12-.27,1.04-.18,2.08-3.03,3.12-4.42,1.04-1.38,2.08-2.43,3.12-3.88,1.04-1.45,2.08-4.82,3.12-4.82s2.08.76,3.12,2.28c1.04,1.52,2.08,5.22,3.12,6.96,1.04,1.74,2.08,3.48,3.12,3.48s2.08-1.12,3.12-3.35,2.08-12.74,3.12-18.88c1.04-6.14,2.08-12.12,3.12-17.94s2.08-12.92,3.12-17c1.04-4.08,2.08-7.5,3.12-7.5s2.08,2.95,3.12,4.02c1.04,1.07,2.08.8,3.12,2.41s2.08,11.18,3.12,17.14,2.08,12.03,3.12,18.61c1.04,6.58,2.08,20.88,3.12,20.88s2.08-2.14,3.12-2.14,2.08.18,3.12.54,2.08,1.78,3.12,1.87c1.04.09,2.08.13,3.12.13s2.08-4.57,3.12-6.29,2.08-4.02,3.12-4.02h3.12c1.04,0,2.08.36,3.12,1.07,1.04.71,2.08,5.09,3.12,6.69,1.04,1.61,2.08,2.77,3.12,2.95,1.04.18,2.08.27,3.12.27s2.08-2.41,3.12-2.41,2.08.94,3.12.94,2.08-.22,3.12-.67,2.08-1.61,3.12-4.82,2.08-14.46,3.12-20.22c1.04-5.76,2.08-8.77,3.12-14.32s2.08-14.06,3.12-19.01c1.04-4.95,2.08-10.71,3.12-10.71s2.08.71,3.12,2.14,2.08,18.16,3.12,22.09c1.04,3.93,2.08,1.96,3.12,5.89,1.04,3.93,2.08,18.74,3.12,22.76s2.08,5.93,3.12,6.02,2.08.13,3.12.13h40.61c1.04,0,2.08-1.52,3.12-4.55,1.04-3.03,2.08-14.32,3.12-14.32s2.08,7.77,3.12,11.65c1.04,3.88,2.08,11.65,3.12,11.65s2.08-6.11,3.12-8.43c1.04-2.32,2.08-3.66,3.12-5.49,1.04-1.83,2.08-3.37,3.12-5.49,1.04-2.12,2.08-7.23,3.12-7.23s2.08,23.56,3.12,23.56,2.08-1.47,3.12-1.47,2.08.13,3.12.13h40.61c1.04,0,2.08-1.74,3.12-5.22,1.04-3.48,2.08-15.33,3.12-21.42,1.04-6.09,2.08-12.99,3.12-15.13,1.04-2.14,2.08-3.21,3.12-3.21s2.08,3.35,3.12,3.35,2.08-5.89,3.12-5.89,2.08,11.91,3.12,15.8c1.04,3.88,2.08,2.5,3.12,7.5,1.04,5,2.08,24.5,3.12,24.5s2.08-.27,3.12-.27h40.61c1.04,0,2.08,13.39,3.12,13.39s2.08-2.83,3.12-7.9c1.04-5.06,2.08-14.41,3.12-22.49,1.04-8.08,2.08-25.97,3.12-25.97s2.08,9.37,3.12,9.37,2.08-3.48,3.12-3.48,2.08,16.2,3.12,16.2,2.08-8.3,3.12-8.3,2.08.94,3.12,2.81c1.04,1.87,2.08,5.53,3.12,9.91,1.04,4.37,2.08,16.24,3.12,16.33s2.08.13,3.12.13h3.12c1.04,0,2.08,13.39,3.12,13.39h34.36c1.04,0,2.08-4.02,3.12-7.5,1.04-3.48,2.08-13.39,3.12-13.39s2.08,1.12,3.12,3.35c1.04,2.23,2.08,8.52,3.12,10.04,1.04,1.52,2.08,2.28,3.12,2.28s2.08-18.45,3.12-24.37c1.04-5.91,2.08-11.11,3.12-11.11s2.08,1.2,3.12,3.61c1.04,2.41,2.08,13.52,3.12,19.68,1.04,6.16,2.08,17.18,3.12,17.27,1.04.09,2.08.13,3.12.13h3.12c1.04,0,2.08-13.39,3.12-13.39h3.12c1.04,0,2.08,13.39,3.12,13.39h6.25"/>
    </g>
    <g>
      <path id="recharts-area-_r_9s_" class="st22" d="M306.12,357.67c1.04.67,2.08,1.34,3.12,1.34s2.08-.04,3.12-.13,2.08-.8,3.12-.8,2.08.4,3.12.4,2.08-1.74,3.12-2.95c1.04-1.2,2.08-1.43,3.12-4.28,1.04-2.86,2.08-18.74,3.12-18.74s2.08,4.55,3.12,4.55,2.08-2.03,3.12-4.28c1.04-2.25,2.08-9.24,3.12-9.24s2.08,3.61,3.12,3.61,2.08-5.98,3.12-8.3,2.08-5.62,3.12-5.62,2.08,1.94,3.12,3.61c1.04,1.67,2.08,6.43,3.12,6.43s2.08-2.25,3.12-4.15c1.04-1.9,2.08-4.77,3.12-7.23s2.08-7.5,3.12-7.5,2.08,9.04,3.12,13.92c1.04,4.89,2.08,11,3.12,15.4,1.04,4.4,2.08,8.57,3.12,10.98,1.04,2.41,2.08,2.45,3.12,3.61,1.04,1.16,2.08,3.35,3.12,3.35s2.08-3.61,3.12-3.61,2.08,10.84,3.12,10.84,2.08-.04,3.12-.13c1.04-.09,2.08-.8,3.12-.8s2.08.4,3.12.4,2.08-1.52,3.12-2.95c1.04-1.43,2.08-1.94,3.12-5.62,1.04-3.68,2.08-9.28,3.12-16.47,1.04-7.19,2.08-26.64,3.12-26.64s2.08.18,3.12.54c1.04.36,2.08,3.88,3.12,3.88s2.08-7.9,3.12-7.9h3.12c1.04,0,2.08-5.49,3.12-5.49s2.08,4.98,3.12,6.43,2.08,2.28,3.12,2.28,2.08-.8,3.12-2.28c1.04-1.47,2.08-6.56,3.12-6.56s2.08,4.26,3.12,5.89c1.04,1.63,2.08,1.29,3.12,3.88s2.08,15.64,3.12,21.02c1.04,5.38,2.08,10.26,3.12,11.25s2.08,1.09,3.12,1.47c1.04.38,2.08.27,3.12.8,1.04.54,2.08,9.24,3.12,9.24h3.12c1.04,0,2.08,1.47,3.12,1.47s2.08-.67,3.12-.67,2.08.8,3.12.8,2.08-.62,3.12-1.87c1.04-1.25,2.08-16.87,3.12-19.55,1.04-2.68,2.08-4.02,3.12-4.02s2.08,1.74,3.12,5.22,2.08,15.24,3.12,22.09,2.08,13.9,3.12,19.01c1.04,5.11,2.08,11.65,3.12,11.65s2.08-6.11,3.12-8.43c1.04-2.32,2.08-3.66,3.12-5.49,1.04-1.83,2.08-1.83,3.12-5.49,1.04-3.66,2.08-12.21,3.12-19.14,1.04-6.94,2.08-16.33,3.12-22.49,1.04-6.16,2.08-12.14,3.12-14.46,1.04-2.32,2.08-3.48,3.12-3.48s2.08,5.04,3.12,9.77,2.08,14.21,3.12,18.61c1.04,4.4,2.08,6.34,3.12,7.77,1.04,1.43,2.08,1.63,3.12,2.14s2.08.31,3.12.94c1.04.62,2.08,7.36,3.12,7.36s2.08-.71,3.12-.8c1.04-.09,2.08-.04,3.12-.13s2.08-.54,3.12-.54,2.08.4,3.12.4,2.08-.85,3.12-2.54c1.04-1.7,2.08-9.26,3.12-12.58s2.08-7.1,3.12-7.36c1.04-.27,2.08-.13,3.12-.4,1.04-.27,2.08-4.69,3.12-4.69s2.08,3.28,3.12,5.22c1.04,1.94,2.08,4.8,3.12,6.43,1.04,1.63,2.08,3.35,3.12,3.35s2.08-4.24,3.12-5.89c1.04-1.65,2.08-4.02,3.12-4.02s2.08,3.59,3.12,4.95c1.04,1.36,2.08,3.21,3.12,3.21s2.08-1.7,3.12-2.68,2.08-3.21,3.12-3.21,2.08.49,3.12,1.47,2.08,3.59,3.12,6.02c1.04,2.43,2.08,8.57,3.12,8.57s2.08-4.02,3.12-4.02,2.08,1.83,3.12,2.95c1.04,1.12,2.08,2.36,3.12,3.75s2.08,4.55,3.12,4.55h3.12c1.04,0,2.08-.85,3.12-.94,1.04-.09,2.08-.04,3.12-.13s2.08-1.12,3.12-3.35c1.04-2.23,2.08-9.04,3.12-12.05,1.04-3.01,2.08-6.02,3.12-6.02s2.08,1.47,3.12,1.47,2.08-8.57,3.12-8.57,2.08,1.96,3.12,5.62,2.08,16.33,3.12,16.33,2.08-3.48,3.12-3.48,2.08,16.2,3.12,16.2,2.08-5.27,3.12-8.3c1.04-3.03,2.08-7.01,3.12-9.91,1.04-2.9,2.08-4.73,3.12-7.5,1.04-2.77,2.08-9.1,3.12-9.1s2.08.13,3.12.13,2.08-1.07,3.12-1.07,2.08,9.84,3.12,12.85,2.08,4.15,3.12,5.22c1.04,1.07,2.08.56,3.12,1.61,1.04,1.05,2.08,4.69,3.12,4.69s2.08-7.76,3.12-7.76,2.08,6.78,3.12,7.5c1.04.71,2.08,1.07,3.12,1.07s2.08-.27,3.12-.27h3.12c1.04,0,2.08-.98,3.12-2.95,1.04-1.96,2.08-16.73,3.12-16.73s2.08.13,3.12.4c1.04.27,2.08,10.55,3.12,17.81,1.04,7.25,2.08,23.47,3.12,25.7s2.08,1.12,3.12,3.35c1.04,2.23,2.08,8.52,3.12,10.04,1.04,1.52,2.08,2.28,3.12,2.28s2.08-18.45,3.12-24.37c1.04-5.91,2.08-7.1,3.12-11.11,1.04-4.02,2.08-8.75,3.12-12.99,1.04-4.24,2.08-9.33,3.12-12.45,1.04-3.12,2.08-4.82,3.12-6.29,1.04-1.47,2.08-2.54,3.12-2.54s2.08.49,3.12,1.47c1.04.98,2.08,2.72,3.12,4.95,1.04,2.23,2.08,8.43,3.12,8.43s2.08-1.07,3.12-1.07,2.08,2.16,3.12,4.55c1.04,2.39,2.08,6.08,3.12,9.77v46.86h-6.25c-1.04,0-2.08-13.39-3.12-13.39h-3.12c-1.04,0-2.08,13.39-3.12,13.39h-3.12c-1.04,0-2.08-.04-3.12-.13-1.04-.09-2.08-11.11-3.12-17.27-1.04-6.16-2.08-17.27-3.12-19.68-1.04-2.41-2.08-3.61-3.12-3.61s-2.08,5.2-3.12,11.11c-1.04,5.91-2.08,24.37-3.12,24.37s-2.08-.76-3.12-2.28c-1.04-1.52-2.08-7.81-3.12-10.04-1.04-2.23-2.08-3.35-3.12-3.35s-2.08,9.91-3.12,13.39c-1.04,3.48-2.08,7.5-3.12,7.5h-34.36c-1.04,0-2.08-13.39-3.12-13.39h-3.12c-1.04,0-2.08-.04-3.12-.13s-2.08-11.96-3.12-16.33c-1.04-4.37-2.08-8.03-3.12-9.91-1.04-1.87-2.08-2.81-3.12-2.81s-2.08,8.3-3.12,8.3-2.08-16.2-3.12-16.2-2.08,3.48-3.12,3.48-2.08-9.37-3.12-9.37-2.08,17.9-3.12,25.97c-1.04,8.08-2.08,17.43-3.12,22.49-1.04,5.07-2.08,7.9-3.12,7.9s-2.08-13.39-3.12-13.39h-40.61c-1.04,0-2.08.27-3.12.27s-2.08-19.5-3.12-24.5c-1.04-5-2.08-3.61-3.12-7.5-1.04-3.88-2.08-15.8-3.12-15.8s-2.08,5.89-3.12,5.89-2.08-3.35-3.12-3.35-2.08,1.07-3.12,3.21c-1.04,2.14-2.08,9.04-3.12,15.13-1.04,6.09-2.08,17.94-3.12,21.42-1.04,3.48-2.08,5.22-3.12,5.22h-40.61c-1.04,0-2.08-.13-3.12-.13s-2.08,1.47-3.12,1.47-2.08-23.56-3.12-23.56-2.08,5.11-3.12,7.23c-1.04,2.12-2.08,3.66-3.12,5.49-1.04,1.83-2.08,3.17-3.12,5.49-1.04,2.32-2.08,8.43-3.12,8.43s-2.08-7.77-3.12-11.65c-1.04-3.88-2.08-11.65-3.12-11.65s-2.08,11.29-3.12,14.32c-1.04,3.03-2.08,4.55-3.12,4.55h-40.61c-1.04,0-2.08-.04-3.12-.13s-2.08-2.01-3.12-6.02-2.08-18.83-3.12-22.76c-1.04-3.93-2.08-1.96-3.12-5.89-1.04-3.93-2.08-20.66-3.12-22.09s-2.08-2.14-3.12-2.14-2.08,5.76-3.12,10.71c-1.04,4.95-2.08,13.45-3.12,19.01s-2.08,8.57-3.12,14.32c-1.04,5.76-2.08,17-3.12,20.22s-2.08,4.37-3.12,4.82-2.08.67-3.12.67-2.08-.94-3.12-.94-2.08,2.41-3.12,2.41-2.08-.09-3.12-.27c-1.04-.18-2.08-1.34-3.12-2.95-1.04-1.61-2.08-5.98-3.12-6.69-1.04-.71-2.08-1.07-3.12-1.07h-3.12c-1.04,0-2.08,2.3-3.12,4.02s-2.08,6.29-3.12,6.29-2.08-.04-3.12-.13c-1.04-.09-2.08-1.52-3.12-1.87s-2.08-.54-3.12-.54-2.08,2.14-3.12,2.14-2.08-14.3-3.12-20.88c-1.04-6.58-2.08-12.65-3.12-18.61s-2.08-15.53-3.12-17.14-2.08-1.34-3.12-2.41c-1.04-1.07-2.08-4.02-3.12-4.02s-2.08,3.41-3.12,7.5c-1.04,4.08-2.08,11.18-3.12,17s-2.08,11.8-3.12,17.94c-1.04,6.14-2.08,16.64-3.12,18.88s-2.08,3.35-3.12,3.35-2.08-1.74-3.12-3.48c-1.04-1.74-2.08-5.44-3.12-6.96-1.04-1.52-2.08-2.28-3.12-2.28s-2.08,3.37-3.12,4.82c-1.04,1.45-2.08,2.5-3.12,3.88-1.04,1.38-2.08,4.24-3.12,4.42-1.04.18-2.08.22-3.12.27v-36.55Z"/>
      <path class="st3" d="M306.12,357.67c1.04.67,2.08,1.34,3.12,1.34s2.08-.04,3.12-.13,2.08-.8,3.12-.8,2.08.4,3.12.4,2.08-1.74,3.12-2.95c1.04-1.2,2.08-1.43,3.12-4.28,1.04-2.86,2.08-18.74,3.12-18.74s2.08,4.55,3.12,4.55,2.08-2.03,3.12-4.28c1.04-2.25,2.08-9.24,3.12-9.24s2.08,3.61,3.12,3.61,2.08-5.98,3.12-8.3,2.08-5.62,3.12-5.62,2.08,1.94,3.12,3.61c1.04,1.67,2.08,6.43,3.12,6.43s2.08-2.25,3.12-4.15c1.04-1.9,2.08-4.77,3.12-7.23s2.08-7.5,3.12-7.5,2.08,9.04,3.12,13.92c1.04,4.89,2.08,11,3.12,15.4,1.04,4.4,2.08,8.57,3.12,10.98,1.04,2.41,2.08,2.45,3.12,3.61,1.04,1.16,2.08,3.35,3.12,3.35s2.08-3.61,3.12-3.61,2.08,10.84,3.12,10.84,2.08-.04,3.12-.13c1.04-.09,2.08-.8,3.12-.8s2.08.4,3.12.4,2.08-1.52,3.12-2.95c1.04-1.43,2.08-1.94,3.12-5.62,1.04-3.68,2.08-9.28,3.12-16.47,1.04-7.19,2.08-26.64,3.12-26.64s2.08.18,3.12.54c1.04.36,2.08,3.88,3.12,3.88s2.08-7.9,3.12-7.9h3.12c1.04,0,2.08-5.49,3.12-5.49s2.08,4.98,3.12,6.43,2.08,2.28,3.12,2.28,2.08-.8,3.12-2.28c1.04-1.47,2.08-6.56,3.12-6.56s2.08,4.26,3.12,5.89c1.04,1.63,2.08,1.29,3.12,3.88s2.08,15.64,3.12,21.02c1.04,5.38,2.08,10.26,3.12,11.25s2.08,1.09,3.12,1.47c1.04.38,2.08.27,3.12.8,1.04.54,2.08,9.24,3.12,9.24h3.12c1.04,0,2.08,1.47,3.12,1.47s2.08-.67,3.12-.67,2.08.8,3.12.8,2.08-.62,3.12-1.87c1.04-1.25,2.08-16.87,3.12-19.55,1.04-2.68,2.08-4.02,3.12-4.02s2.08,1.74,3.12,5.22,2.08,15.24,3.12,22.09,2.08,13.9,3.12,19.01c1.04,5.11,2.08,11.65,3.12,11.65s2.08-6.11,3.12-8.43c1.04-2.32,2.08-3.66,3.12-5.49,1.04-1.83,2.08-1.83,3.12-5.49,1.04-3.66,2.08-12.21,3.12-19.14,1.04-6.94,2.08-16.33,3.12-22.49,1.04-6.16,2.08-12.14,3.12-14.46,1.04-2.32,2.08-3.48,3.12-3.48s2.08,5.04,3.12,9.77,2.08,14.21,3.12,18.61c1.04,4.4,2.08,6.34,3.12,7.77,1.04,1.43,2.08,1.63,3.12,2.14s2.08.31,3.12.94c1.04.62,2.08,7.36,3.12,7.36s2.08-.71,3.12-.8c1.04-.09,2.08-.04,3.12-.13s2.08-.54,3.12-.54,2.08.4,3.12.4,2.08-.85,3.12-2.54c1.04-1.7,2.08-9.26,3.12-12.58s2.08-7.1,3.12-7.36c1.04-.27,2.08-.13,3.12-.4,1.04-.27,2.08-4.69,3.12-4.69s2.08,3.28,3.12,5.22c1.04,1.94,2.08,4.8,3.12,6.43,1.04,1.63,2.08,3.35,3.12,3.35s2.08-4.24,3.12-5.89c1.04-1.65,2.08-4.02,3.12-4.02s2.08,3.59,3.12,4.95c1.04,1.36,2.08,3.21,3.12,3.21s2.08-1.7,3.12-2.68,2.08-3.21,3.12-3.21,2.08.49,3.12,1.47,2.08,3.59,3.12,6.02c1.04,2.43,2.08,8.57,3.12,8.57s2.08-4.02,3.12-4.02,2.08,1.83,3.12,2.95c1.04,1.12,2.08,2.36,3.12,3.75s2.08,4.55,3.12,4.55h3.12c1.04,0,2.08-.85,3.12-.94,1.04-.09,2.08-.04,3.12-.13s2.08-1.12,3.12-3.35c1.04-2.23,2.08-9.04,3.12-12.05,1.04-3.01,2.08-6.02,3.12-6.02s2.08,1.47,3.12,1.47,2.08-8.57,3.12-8.57,2.08,1.96,3.12,5.62,2.08,16.33,3.12,16.33,2.08-3.48,3.12-3.48,2.08,16.2,3.12,16.2,2.08-5.27,3.12-8.3c1.04-3.03,2.08-7.01,3.12-9.91,1.04-2.9,2.08-4.73,3.12-7.5,1.04-2.77,2.08-9.1,3.12-9.1s2.08.13,3.12.13,2.08-1.07,3.12-1.07,2.08,9.84,3.12,12.85,2.08,4.15,3.12,5.22c1.04,1.07,2.08.56,3.12,1.61,1.04,1.05,2.08,4.69,3.12,4.69s2.08-7.76,3.12-7.76,2.08,6.78,3.12,7.5c1.04.71,2.08,1.07,3.12,1.07s2.08-.27,3.12-.27h3.12c1.04,0,2.08-.98,3.12-2.95,1.04-1.96,2.08-16.73,3.12-16.73s2.08.13,3.12.4c1.04.27,2.08,10.55,3.12,17.81,1.04,7.25,2.08,23.47,3.12,25.7s2.08,1.12,3.12,3.35c1.04,2.23,2.08,8.52,3.12,10.04,1.04,1.52,2.08,2.28,3.12,2.28s2.08-18.45,3.12-24.37c1.04-5.91,2.08-7.1,3.12-11.11,1.04-4.02,2.08-8.75,3.12-12.99,1.04-4.24,2.08-9.33,3.12-12.45,1.04-3.12,2.08-4.82,3.12-6.29,1.04-1.47,2.08-2.54,3.12-2.54s2.08.49,3.12,1.47c1.04.98,2.08,2.72,3.12,4.95,1.04,2.23,2.08,8.43,3.12,8.43s2.08-1.07,3.12-1.07,2.08,2.16,3.12,4.55c1.04,2.39,2.08,6.08,3.12,9.77"/>
    </g>
    <g>
      <path id="recharts-area-_r_9t_" class="st28" d="M306.12,394.21h178.05c1.04,0,2.08,1.34,3.12,1.34h12.49c1.04,0,2.08-1.34,3.12-1.34h59.35c1.04,0,2.08,1.34,3.12,1.34h6.25c1.04,0,2.08-1.34,3.12-1.34h62.47c1.04,0,2.08,1.34,3.12,1.34h9.37c1.04,0,2.08-1.34,3.12-1.34h53.1c1.04,0,2.08,1.34,3.12,1.34h15.62c1.04,0,2.08-1.34,3.12-1.34h28.11-449.81Z"/>
      <path class="st1" d="M306.12,394.21h178.05c1.04,0,2.08,1.34,3.12,1.34h12.49c1.04,0,2.08-1.34,3.12-1.34h59.35c1.04,0,2.08,1.34,3.12,1.34h6.25c1.04,0,2.08-1.34,3.12-1.34h62.47c1.04,0,2.08,1.34,3.12,1.34h9.37c1.04,0,2.08-1.34,3.12-1.34h53.1c1.04,0,2.08,1.34,3.12,1.34h15.62c1.04,0,2.08-1.34,3.12-1.34h28.11"/>
    </g>
    <g>
      <path id="recharts-area-_r_9u_" class="st23" d="M306.12,394.21h178.05c1.04,0,2.08,16.78,3.12,24.77,1.04,7.99,2.08,23.16,3.12,23.16s2.08-3.82,3.12-6.29c1.04-2.48,2.08-5.06,3.12-8.57,1.04-3.5,2.08-6.94,3.12-12.45,1.04-5.51,2.08-20.62,3.12-20.62h59.35c1.04,0,2.08,8.81,3.12,11.65,1.04,2.83,2.08,5.35,3.12,5.35s2.08-11.87,3.12-13.92c1.04-2.05,2.08-3.08,3.12-3.08h62.47c1.04,0,2.08,22.45,3.12,24.5,1.04,2.05,2.08,1.96,3.12,3.08,1.04,1.12,2.08,3.61,3.12,3.61s2.08-13.14,3.12-18.34,2.08-12.85,3.12-12.85h53.1c1.04,0,2.08,2.05,3.12,6.16s2.08,12.76,3.12,20.75c1.04,7.99,2.08,25.84,3.12,27.18s2.08,2.01,3.12,2.01,2.08-10.49,3.12-19.14c1.04-8.66,2.08-30.03,3.12-32.8,1.04-2.77,2.08-4.15,3.12-4.15h28.11-449.81Z"/>
      <path class="st1" d="M306.12,394.21h178.05c1.04,0,2.08,16.78,3.12,24.77,1.04,7.99,2.08,23.16,3.12,23.16s2.08-3.82,3.12-6.29c1.04-2.48,2.08-5.06,3.12-8.57,1.04-3.5,2.08-6.94,3.12-12.45,1.04-5.51,2.08-20.62,3.12-20.62h59.35c1.04,0,2.08,8.81,3.12,11.65,1.04,2.83,2.08,5.35,3.12,5.35s2.08-11.87,3.12-13.92c1.04-2.05,2.08-3.08,3.12-3.08h62.47c1.04,0,2.08,22.45,3.12,24.5,1.04,2.05,2.08,1.96,3.12,3.08,1.04,1.12,2.08,3.61,3.12,3.61s2.08-13.14,3.12-18.34,2.08-12.85,3.12-12.85h53.1c1.04,0,2.08,2.05,3.12,6.16s2.08,12.76,3.12,20.75c1.04,7.99,2.08,25.84,3.12,27.18s2.08,2.01,3.12,2.01,2.08-10.49,3.12-19.14c1.04-8.66,2.08-30.03,3.12-32.8,1.04-2.77,2.08-4.15,3.12-4.15h28.11"/>
    </g>
  </g>
  <g>
    <g>
      <path id="recharts-area-_r_aq_" class="st20" d="M305.83,647.28h21.88c1.04,0,2.08-1.12,3.13-3.35,1.04-2.23,2.08-12,3.13-18,1.04-6,2.08-13.84,3.13-18,1.04-4.16,2.08-4.51,3.13-6.98,1.04-2.47,2.08-7.82,3.13-7.82s2.08,4.09,3.13,4.19c1.04.09,2.08.05,3.13.14,1.04.09,2.08,14.12,3.13,20.24,1.04,6.12,2.08,11.54,3.13,16.47,1.04,4.93,2.08,13.12,3.13,13.12h43.76c1.04,0,2.08-1.21,3.13-3.63,1.04-2.42,2.08-11.21,3.13-17.45,1.04-6.23,2.08-14.4,3.13-19.96s2.08-9.98,3.13-13.4,2.08-7.12,3.13-7.12,2.08.33,3.13.98c1.04.65,2.08,13.86,3.13,18.84s2.08,6.21,3.13,11.03,2.08,12.77,3.13,17.86c1.04,5.09,2.08,12.61,3.13,12.7,1.04.09,2.08.14,3.13.14h40.63c1.04,0,2.08-1.58,3.13-4.75,1.04-3.16,2.08-20.38,3.13-20.38s2.08,1.21,3.13,3.63,2.08,12.14,3.13,12.14,2.08-6.37,3.13-8.79c1.04-2.42,2.08-3.81,3.13-5.72,1.04-1.91,2.08-4.4,3.13-5.72s2.08-2.23,3.13-2.23,2.08,14.4,3.13,19.68c1.04,5.28,2.08,11.91,3.13,12,1.04.09,2.08.14,3.13.14h40.63c1.04,0,2.08-1.81,3.13-5.44,1.04-3.63,2.08-15.98,3.13-22.33,1.04-6.35,2.08-10.35,3.13-15.77s2.08-16.75,3.13-16.75,2.08,2.93,3.13,2.93,2.08-6.14,3.13-6.14,2.08,12.42,3.13,16.47c1.04,4.05,2.08,2.61,3.13,7.82,1.04,5.21,2.08,19,3.13,25.54,1.04,6.54,2.08,13.68,3.13,13.68h43.76c1.04,0,2.08-2.95,3.13-8.23,1.04-5.28,2.08-15.03,3.13-23.45,1.04-8.42,2.08-27.08,3.13-27.08s2.08,9.77,3.13,9.77,2.08-3.63,3.13-3.63,2.08,16.89,3.13,16.89,2.08-8.65,3.13-8.65,2.08.98,3.13,2.93c1.04,1.95,2.08,17.4,3.13,24.28,1.04,6.89,2.08,16.93,3.13,17.03,1.04.09,2.08.14,3.13.14h40.63c1.04,0,2.08-4.19,3.13-7.82,1.04-3.63,2.08-13.96,3.13-13.96s2.08,1.16,3.13,3.49c1.04,2.33,2.08,8.89,3.13,10.47,1.04,1.58,2.08,2.37,3.13,2.37s2.08-19.24,3.13-25.4c1.04-6.16,2.08-11.58,3.13-11.58s2.08,1.26,3.13,3.77,2.08,14.1,3.13,20.52c1.04,6.42,2.08,17.91,3.13,18,1.04.09,2.08.14,3.13.14h18.75-450.1Z"/>
      <path class="st10" d="M305.83,647.28h21.88c1.04,0,2.08-1.12,3.13-3.35,1.04-2.23,2.08-12,3.13-18,1.04-6,2.08-13.84,3.13-18,1.04-4.16,2.08-4.51,3.13-6.98,1.04-2.47,2.08-7.82,3.13-7.82s2.08,4.09,3.13,4.19c1.04.09,2.08.05,3.13.14,1.04.09,2.08,14.12,3.13,20.24,1.04,6.12,2.08,11.54,3.13,16.47,1.04,4.93,2.08,13.12,3.13,13.12h43.76c1.04,0,2.08-1.21,3.13-3.63,1.04-2.42,2.08-11.21,3.13-17.45,1.04-6.23,2.08-14.4,3.13-19.96s2.08-9.98,3.13-13.4,2.08-7.12,3.13-7.12,2.08.33,3.13.98c1.04.65,2.08,13.86,3.13,18.84s2.08,6.21,3.13,11.03,2.08,12.77,3.13,17.86c1.04,5.09,2.08,12.61,3.13,12.7,1.04.09,2.08.14,3.13.14h40.63c1.04,0,2.08-1.58,3.13-4.75,1.04-3.16,2.08-20.38,3.13-20.38s2.08,1.21,3.13,3.63,2.08,12.14,3.13,12.14,2.08-6.37,3.13-8.79c1.04-2.42,2.08-3.81,3.13-5.72,1.04-1.91,2.08-4.4,3.13-5.72s2.08-2.23,3.13-2.23,2.08,14.4,3.13,19.68c1.04,5.28,2.08,11.91,3.13,12,1.04.09,2.08.14,3.13.14h40.63c1.04,0,2.08-1.81,3.13-5.44,1.04-3.63,2.08-15.98,3.13-22.33,1.04-6.35,2.08-10.35,3.13-15.77s2.08-16.75,3.13-16.75,2.08,2.93,3.13,2.93,2.08-6.14,3.13-6.14,2.08,12.42,3.13,16.47c1.04,4.05,2.08,2.61,3.13,7.82,1.04,5.21,2.08,19,3.13,25.54,1.04,6.54,2.08,13.68,3.13,13.68h43.76c1.04,0,2.08-2.95,3.13-8.23,1.04-5.28,2.08-15.03,3.13-23.45,1.04-8.42,2.08-27.08,3.13-27.08s2.08,9.77,3.13,9.77,2.08-3.63,3.13-3.63,2.08,16.89,3.13,16.89,2.08-8.65,3.13-8.65,2.08.98,3.13,2.93c1.04,1.95,2.08,17.4,3.13,24.28,1.04,6.89,2.08,16.93,3.13,17.03,1.04.09,2.08.14,3.13.14h40.63c1.04,0,2.08-4.19,3.13-7.82,1.04-3.63,2.08-13.96,3.13-13.96s2.08,1.16,3.13,3.49c1.04,2.33,2.08,8.89,3.13,10.47,1.04,1.58,2.08,2.37,3.13,2.37s2.08-19.24,3.13-25.4c1.04-6.16,2.08-11.58,3.13-11.58s2.08,1.26,3.13,3.77,2.08,14.1,3.13,20.52c1.04,6.42,2.08,17.91,3.13,18,1.04.09,2.08.14,3.13.14h18.75"/>
    </g>
    <g>
      <path id="recharts-area-_r_ar_" class="st18" d="M305.83,647.28c1.04-.05,2.08-.09,3.13-.28,1.04-.19,2.08-3.16,3.13-4.61,1.04-1.44,2.08-2.54,3.13-4.05,1.04-1.51,2.08-5.02,3.13-5.02s2.08.79,3.13,2.37,2.08,5.44,3.13,7.26c1.04,1.81,2.08,3.63,3.13,3.63s2.08-1.16,3.13-3.49,2.08-13.28,3.13-19.68c1.04-6.4,2.08-12.63,3.13-18.7,1.04-6.07,2.08-13.47,3.13-17.73,1.04-4.26,2.08-7.82,3.13-7.82s2.08,3.07,3.13,4.19c1.04,1.12,2.08.84,3.13,2.51s2.08,11.65,3.13,17.86c1.04,6.21,2.08,12.54,3.13,19.4,1.04,6.86,2.08,21.77,3.13,21.77s2.08-2.23,3.13-2.23,2.08.19,3.13.56c1.04.37,2.08,1.86,3.13,1.95,1.04.09,2.08.14,3.13.14s2.08-4.77,3.13-6.56c1.04-1.79,2.08-4.19,3.13-4.19h3.13c1.04,0,2.08.37,3.13,1.12,1.04.74,2.08,5.3,3.13,6.98s2.08,2.88,3.13,3.07c1.04.19,2.08.28,3.13.28s2.08-2.51,3.13-2.51,2.08.98,3.13.98,2.08-.23,3.13-.7,2.08-1.67,3.13-5.02c1.04-3.35,2.08-15.07,3.13-21.07,1.04-6,2.08-9.14,3.13-14.93,1.04-5.79,2.08-14.65,3.13-19.82,1.04-5.16,2.08-11.17,3.13-11.17s2.08.74,3.13,2.23c1.04,1.49,2.08,18.93,3.13,23.03s2.08,2.05,3.13,6.14c1.04,4.09,2.08,19.54,3.13,23.73,1.04,4.19,2.08,6.19,3.13,6.28,1.04.09,2.08.14,3.13.14h40.63c1.04,0,2.08-1.58,3.13-4.75s2.08-14.93,3.13-14.93,2.08,8.09,3.13,12.14c1.04,4.05,2.08,12.14,3.13,12.14s2.08-6.37,3.13-8.79c1.04-2.42,2.08-3.81,3.13-5.72,1.04-1.91,2.08-3.51,3.13-5.72,1.04-2.21,2.08-7.54,3.13-7.54s2.08,24.56,3.13,24.56,2.08-1.54,3.13-1.54,2.08.14,3.13.14h40.63c1.04,0,2.08-1.81,3.13-5.44,1.04-3.63,2.08-15.98,3.13-22.33,1.04-6.35,2.08-13.54,3.13-15.77,1.04-2.23,2.08-3.35,3.13-3.35s2.08,3.49,3.13,3.49,2.08-6.14,3.13-6.14,2.08,12.42,3.13,16.47c1.04,4.05,2.08,2.61,3.13,7.82,1.04,5.21,2.08,25.54,3.13,25.54s2.08-.28,3.13-.28h40.63c1.04,0,2.08,13.96,3.13,13.96s2.08-2.95,3.13-8.23c1.04-5.28,2.08-15.03,3.13-23.45,1.04-8.42,2.08-27.08,3.13-27.08s2.08,9.77,3.13,9.77,2.08-3.63,3.13-3.63,2.08,16.89,3.13,16.89,2.08-8.65,3.13-8.65,2.08.98,3.13,2.93c1.04,1.95,2.08,5.77,3.13,10.33,1.04,4.56,2.08,16.93,3.13,17.03,1.04.09,2.08.14,3.13.14h3.13c1.04,0,2.08,13.96,3.13,13.96h34.38c1.04,0,2.08-4.19,3.13-7.82,1.04-3.63,2.08-13.96,3.13-13.96s2.08,1.16,3.13,3.49c1.04,2.33,2.08,8.89,3.13,10.47,1.04,1.58,2.08,2.37,3.13,2.37s2.08-19.24,3.13-25.4c1.04-6.16,2.08-11.58,3.13-11.58s2.08,1.26,3.13,3.77,2.08,14.1,3.13,20.52c1.04,6.42,2.08,17.91,3.13,18,1.04.09,2.08.14,3.13.14h3.13c1.04,0,2.08-13.96,3.13-13.96h3.13c1.04,0,2.08,13.96,3.13,13.96h6.25-18.75c-1.04,0-2.08-.05-3.13-.14-1.04-.09-2.08-11.58-3.13-18-1.04-6.42-2.08-18-3.13-20.52-1.04-2.51-2.08-3.77-3.13-3.77s-2.08,5.42-3.13,11.58c-1.04,6.16-2.08,25.4-3.13,25.4s-2.08-.79-3.13-2.37c-1.04-1.58-2.08-8.14-3.13-10.47-1.04-2.33-2.08-3.49-3.13-3.49s-2.08,10.33-3.13,13.96c-1.04,3.63-2.08,7.82-3.13,7.82h-40.63c-1.04,0-2.08-.05-3.13-.14-1.04-.09-2.08-10.14-3.13-17.03-1.04-6.89-2.08-22.33-3.13-24.28-1.04-1.95-2.08-2.93-3.13-2.93s-2.08,8.65-3.13,8.65-2.08-16.89-3.13-16.89-2.08,3.63-3.13,3.63-2.08-9.77-3.13-9.77-2.08,18.66-3.13,27.08c-1.04,8.42-2.08,18.17-3.13,23.45-1.04,5.28-2.08,8.23-3.13,8.23h-43.76c-1.04,0-2.08-7.14-3.13-13.68-1.04-6.54-2.08-20.33-3.13-25.54-1.04-5.21-2.08-3.77-3.13-7.82-1.04-4.05-2.08-16.47-3.13-16.47s-2.08,6.14-3.13,6.14-2.08-2.93-3.13-2.93-2.08,11.33-3.13,16.75c-1.04,5.42-2.08,9.42-3.13,15.77-1.04,6.35-2.08,18.7-3.13,22.33-1.04,3.63-2.08,5.44-3.13,5.44h-40.63c-1.04,0-2.08-.05-3.13-.14-1.04-.09-2.08-6.72-3.13-12-1.04-5.28-2.08-19.68-3.13-19.68s-2.08.91-3.13,2.23-2.08,3.81-3.13,5.72c-1.04,1.91-2.08,3.3-3.13,5.72-1.04,2.42-2.08,8.79-3.13,8.79s-2.08-9.72-3.13-12.14-2.08-3.63-3.13-3.63-2.08,17.21-3.13,20.38c-1.04,3.16-2.08,4.75-3.13,4.75h-40.63c-1.04,0-2.08-.05-3.13-.14-1.04-.09-2.08-7.61-3.13-12.7-1.04-5.09-2.08-13.05-3.13-17.86-1.04-4.82-2.08-6.05-3.13-11.03s-2.08-18.19-3.13-18.84c-1.04-.65-2.08-.98-3.13-.98s-2.08,3.7-3.13,7.12-2.08,7.84-3.13,13.4-2.08,13.72-3.13,19.96c-1.04,6.23-2.08,15.03-3.13,17.45-1.04,2.42-2.08,3.63-3.13,3.63h-43.76c-1.04,0-2.08-8.19-3.13-13.12s-2.08-10.35-3.13-16.47c-1.04-6.12-2.08-20.14-3.13-20.24-1.04-.09-2.08-.05-3.13-.14-1.04-.09-2.08-4.19-3.13-4.19s-2.08,5.35-3.13,7.82c-1.04,2.47-2.08,2.81-3.13,6.98-1.04,4.16-2.08,12-3.13,18-1.04,6-2.08,15.77-3.13,18-1.04,2.23-2.08,3.35-3.13,3.35h-21.88Z"/>
      <path class="st12" d="M305.83,647.28c1.04-.05,2.08-.09,3.13-.28,1.04-.19,2.08-3.16,3.13-4.61,1.04-1.44,2.08-2.54,3.13-4.05,1.04-1.51,2.08-5.02,3.13-5.02s2.08.79,3.13,2.37,2.08,5.44,3.13,7.26c1.04,1.81,2.08,3.63,3.13,3.63s2.08-1.16,3.13-3.49,2.08-13.28,3.13-19.68c1.04-6.4,2.08-12.63,3.13-18.7,1.04-6.07,2.08-13.47,3.13-17.73,1.04-4.26,2.08-7.82,3.13-7.82s2.08,3.07,3.13,4.19c1.04,1.12,2.08.84,3.13,2.51s2.08,11.65,3.13,17.86c1.04,6.21,2.08,12.54,3.13,19.4,1.04,6.86,2.08,21.77,3.13,21.77s2.08-2.23,3.13-2.23,2.08.19,3.13.56c1.04.37,2.08,1.86,3.13,1.95,1.04.09,2.08.14,3.13.14s2.08-4.77,3.13-6.56c1.04-1.79,2.08-4.19,3.13-4.19h3.13c1.04,0,2.08.37,3.13,1.12,1.04.74,2.08,5.3,3.13,6.98s2.08,2.88,3.13,3.07c1.04.19,2.08.28,3.13.28s2.08-2.51,3.13-2.51,2.08.98,3.13.98,2.08-.23,3.13-.7,2.08-1.67,3.13-5.02c1.04-3.35,2.08-15.07,3.13-21.07,1.04-6,2.08-9.14,3.13-14.93,1.04-5.79,2.08-14.65,3.13-19.82,1.04-5.16,2.08-11.17,3.13-11.17s2.08.74,3.13,2.23c1.04,1.49,2.08,18.93,3.13,23.03s2.08,2.05,3.13,6.14c1.04,4.09,2.08,19.54,3.13,23.73,1.04,4.19,2.08,6.19,3.13,6.28,1.04.09,2.08.14,3.13.14h40.63c1.04,0,2.08-1.58,3.13-4.75s2.08-14.93,3.13-14.93,2.08,8.09,3.13,12.14c1.04,4.05,2.08,12.14,3.13,12.14s2.08-6.37,3.13-8.79c1.04-2.42,2.08-3.81,3.13-5.72,1.04-1.91,2.08-3.51,3.13-5.72,1.04-2.21,2.08-7.54,3.13-7.54s2.08,24.56,3.13,24.56,2.08-1.54,3.13-1.54,2.08.14,3.13.14h40.63c1.04,0,2.08-1.81,3.13-5.44,1.04-3.63,2.08-15.98,3.13-22.33,1.04-6.35,2.08-13.54,3.13-15.77,1.04-2.23,2.08-3.35,3.13-3.35s2.08,3.49,3.13,3.49,2.08-6.14,3.13-6.14,2.08,12.42,3.13,16.47c1.04,4.05,2.08,2.61,3.13,7.82,1.04,5.21,2.08,25.54,3.13,25.54s2.08-.28,3.13-.28h40.63c1.04,0,2.08,13.96,3.13,13.96s2.08-2.95,3.13-8.23c1.04-5.28,2.08-15.03,3.13-23.45,1.04-8.42,2.08-27.08,3.13-27.08s2.08,9.77,3.13,9.77,2.08-3.63,3.13-3.63,2.08,16.89,3.13,16.89,2.08-8.65,3.13-8.65,2.08.98,3.13,2.93c1.04,1.95,2.08,5.77,3.13,10.33,1.04,4.56,2.08,16.93,3.13,17.03,1.04.09,2.08.14,3.13.14h3.13c1.04,0,2.08,13.96,3.13,13.96h34.38c1.04,0,2.08-4.19,3.13-7.82,1.04-3.63,2.08-13.96,3.13-13.96s2.08,1.16,3.13,3.49c1.04,2.33,2.08,8.89,3.13,10.47,1.04,1.58,2.08,2.37,3.13,2.37s2.08-19.24,3.13-25.4c1.04-6.16,2.08-11.58,3.13-11.58s2.08,1.26,3.13,3.77,2.08,14.1,3.13,20.52c1.04,6.42,2.08,17.91,3.13,18,1.04.09,2.08.14,3.13.14h3.13c1.04,0,2.08-13.96,3.13-13.96h3.13c1.04,0,2.08,13.96,3.13,13.96h6.25"/>
    </g>
    <g>
      <path id="recharts-area-_r_as_" class="st17" d="M305.83,647.28c1.04-.05,2.08-.09,3.13-.28,1.04-.19,2.08-3.16,3.13-4.61,1.04-1.44,2.08-2.54,3.13-4.05,1.04-1.51,2.08-5.02,3.13-5.02s2.08.79,3.13,2.37,2.08,5.44,3.13,7.26c1.04,1.81,2.08,3.63,3.13,3.63s2.08-1.16,3.13-3.49,2.08-13.28,3.13-19.68c1.04-6.4,2.08-12.63,3.13-18.7,1.04-6.07,2.08-13.47,3.13-17.73,1.04-4.26,2.08-7.82,3.13-7.82s2.08,3.07,3.13,4.19c1.04,1.12,2.08.84,3.13,2.51s2.08,11.65,3.13,17.86c1.04,6.21,2.08,12.54,3.13,19.4,1.04,6.86,2.08,21.77,3.13,21.77s2.08-2.23,3.13-2.23,2.08.19,3.13.56c1.04.37,2.08,1.86,3.13,1.95,1.04.09,2.08.14,3.13.14s2.08-4.77,3.13-6.56c1.04-1.79,2.08-4.19,3.13-4.19h3.13c1.04,0,2.08.37,3.13,1.12,1.04.74,2.08,5.3,3.13,6.98s2.08,2.88,3.13,3.07c1.04.19,2.08.28,3.13.28s2.08-2.51,3.13-2.51,2.08.98,3.13.98,2.08-.23,3.13-.7,2.08-1.67,3.13-5.02c1.04-3.35,2.08-15.07,3.13-21.07,1.04-6,2.08-9.14,3.13-14.93,1.04-5.79,2.08-14.65,3.13-19.82,1.04-5.16,2.08-11.17,3.13-11.17s2.08.74,3.13,2.23c1.04,1.49,2.08,18.93,3.13,23.03s2.08,2.05,3.13,6.14c1.04,4.09,2.08,19.54,3.13,23.73,1.04,4.19,2.08,6.19,3.13,6.28,1.04.09,2.08.14,3.13.14h40.63c1.04,0,2.08-1.58,3.13-4.75s2.08-14.93,3.13-14.93,2.08,8.09,3.13,12.14c1.04,4.05,2.08,12.14,3.13,12.14s2.08-6.37,3.13-8.79c1.04-2.42,2.08-3.81,3.13-5.72,1.04-1.91,2.08-1.91,3.13-5.72s2.08-12.72,3.13-19.96c1.04-7.23,2.08-17.03,3.13-23.45s2.08-15.07,3.13-15.07,2.08,74.11,3.13,74.11h40.63c1.04,0,2.08-1.81,3.13-5.44,1.04-3.63,2.08-15.98,3.13-22.33,1.04-6.35,2.08-13.54,3.13-15.77,1.04-2.23,2.08-3.35,3.13-3.35s2.08,3.49,3.13,3.49,2.08-4.42,3.13-6.14,2.08-4.19,3.13-4.19,2.08,4.42,3.13,13.26c1.04,8.84,2.08,40.75,3.13,40.75s2.08-.28,3.13-.28h40.63c1.04,0,2.08,13.96,3.13,13.96s2.08-2.95,3.13-8.23c1.04-5.28,2.08-15.03,3.13-23.45,1.04-8.42,2.08-27.08,3.13-27.08s2.08,9.77,3.13,9.77,2.08-3.63,3.13-3.63,2.08,16.89,3.13,16.89,2.08-5.49,3.13-8.65c1.04-3.16,2.08-7.3,3.13-10.33,1.04-3.02,2.08-4.93,3.13-7.82s2.08-9.49,3.13-9.49,2.08,58.06,3.13,58.06h3.13c1.04,0,2.08,13.96,3.13,13.96h34.38c1.04,0,2.08-4.19,3.13-7.82,1.04-3.63,2.08-13.96,3.13-13.96s2.08,1.16,3.13,3.49c1.04,2.33,2.08,8.89,3.13,10.47,1.04,1.58,2.08,2.37,3.13,2.37s2.08-19.24,3.13-25.4c1.04-6.16,2.08-7.4,3.13-11.58,1.04-4.19,2.08-9.12,3.13-13.54,1.04-4.42,2.08-9.72,3.13-12.98,1.04-3.26,2.08-6.56,3.13-6.56s2.08,32.08,3.13,44.66c1.04,12.58,2.08,30.84,3.13,30.84s2.08-13.96,3.13-13.96h3.13c1.04,0,2.08,13.96,3.13,13.96h6.25-6.25c-1.04,0-2.08-13.96-3.13-13.96h-3.13c-1.04,0-2.08,13.96-3.13,13.96h-3.13c-1.04,0-2.08-.05-3.13-.14-1.04-.09-2.08-11.58-3.13-18-1.04-6.42-2.08-18-3.13-20.52-1.04-2.51-2.08-3.77-3.13-3.77s-2.08,5.42-3.13,11.58c-1.04,6.16-2.08,25.4-3.13,25.4s-2.08-.79-3.13-2.37c-1.04-1.58-2.08-8.14-3.13-10.47-1.04-2.33-2.08-3.49-3.13-3.49s-2.08,10.33-3.13,13.96c-1.04,3.63-2.08,7.82-3.13,7.82h-34.38c-1.04,0-2.08-13.96-3.13-13.96h-3.13c-1.04,0-2.08-.05-3.13-.14-1.04-.09-2.08-12.47-3.13-17.03-1.04-4.56-2.08-8.37-3.13-10.33-1.04-1.95-2.08-2.93-3.13-2.93s-2.08,8.65-3.13,8.65-2.08-16.89-3.13-16.89-2.08,3.63-3.13,3.63-2.08-9.77-3.13-9.77-2.08,18.66-3.13,27.08c-1.04,8.42-2.08,18.17-3.13,23.45-1.04,5.28-2.08,8.23-3.13,8.23s-2.08-13.96-3.13-13.96h-40.63c-1.04,0-2.08.28-3.13.28s-2.08-20.33-3.13-25.54c-1.04-5.21-2.08-3.77-3.13-7.82-1.04-4.05-2.08-16.47-3.13-16.47s-2.08,6.14-3.13,6.14-2.08-3.49-3.13-3.49-2.08,1.12-3.13,3.35c-1.04,2.23-2.08,9.42-3.13,15.77-1.04,6.35-2.08,18.7-3.13,22.33-1.04,3.63-2.08,5.44-3.13,5.44h-40.63c-1.04,0-2.08-.14-3.13-.14s-2.08,1.54-3.13,1.54-2.08-24.56-3.13-24.56-2.08,5.33-3.13,7.54c-1.04,2.21-2.08,3.81-3.13,5.72-1.04,1.91-2.08,3.3-3.13,5.72-1.04,2.42-2.08,8.79-3.13,8.79s-2.08-8.1-3.13-12.14c-1.04-4.05-2.08-12.14-3.13-12.14s-2.08,11.77-3.13,14.93-2.08,4.75-3.13,4.75h-40.63c-1.04,0-2.08-.05-3.13-.14-1.04-.09-2.08-2.09-3.13-6.28-1.04-4.19-2.08-19.63-3.13-23.73-1.04-4.09-2.08-2.05-3.13-6.14s-2.08-21.54-3.13-23.03c-1.04-1.49-2.08-2.23-3.13-2.23s-2.08,6-3.13,11.17c-1.04,5.16-2.08,14.03-3.13,19.82-1.04,5.79-2.08,8.93-3.13,14.93-1.04,6-2.08,17.73-3.13,21.07-1.04,3.35-2.08,4.56-3.13,5.02s-2.08.7-3.13.7-2.08-.98-3.13-.98-2.08,2.51-3.13,2.51-2.08-.09-3.13-.28c-1.04-.19-2.08-1.4-3.13-3.07s-2.08-6.23-3.13-6.98-2.08-1.12-3.13-1.12h-3.13c-1.04,0-2.08,2.4-3.13,4.19-1.04,1.79-2.08,6.56-3.13,6.56s-2.08-.05-3.13-.14c-1.04-.09-2.08-1.58-3.13-1.95-1.04-.37-2.08-.56-3.13-.56s-2.08,2.23-3.13,2.23-2.08-14.91-3.13-21.77c-1.04-6.86-2.08-13.19-3.13-19.4-1.04-6.21-2.08-16.19-3.13-17.86s-2.08-1.4-3.13-2.51c-1.04-1.12-2.08-4.19-3.13-4.19s-2.08,3.56-3.13,7.82c-1.04,4.26-2.08,11.65-3.13,17.72-1.04,6.07-2.08,12.31-3.13,18.7-1.04,6.4-2.08,17.35-3.13,19.68s-2.08,3.49-3.13,3.49-2.08-1.81-3.13-3.63c-1.04-1.81-2.08-5.68-3.13-7.26s-2.08-2.37-3.13-2.37-2.08,3.51-3.13,5.02c-1.04,1.51-2.08,2.61-3.13,4.05-1.04,1.44-2.08,4.42-3.13,4.61-1.04.19-2.08.23-3.13.28Z"/>
      <path class="st15" d="M305.83,647.28c1.04-.05,2.08-.09,3.13-.28,1.04-.19,2.08-3.16,3.13-4.61,1.04-1.44,2.08-2.54,3.13-4.05,1.04-1.51,2.08-5.02,3.13-5.02s2.08.79,3.13,2.37,2.08,5.44,3.13,7.26c1.04,1.81,2.08,3.63,3.13,3.63s2.08-1.16,3.13-3.49,2.08-13.28,3.13-19.68c1.04-6.4,2.08-12.63,3.13-18.7,1.04-6.07,2.08-13.47,3.13-17.73,1.04-4.26,2.08-7.82,3.13-7.82s2.08,3.07,3.13,4.19c1.04,1.12,2.08.84,3.13,2.51s2.08,11.65,3.13,17.86c1.04,6.21,2.08,12.54,3.13,19.4,1.04,6.86,2.08,21.77,3.13,21.77s2.08-2.23,3.13-2.23,2.08.19,3.13.56c1.04.37,2.08,1.86,3.13,1.95,1.04.09,2.08.14,3.13.14s2.08-4.77,3.13-6.56c1.04-1.79,2.08-4.19,3.13-4.19h3.13c1.04,0,2.08.37,3.13,1.12,1.04.74,2.08,5.3,3.13,6.98s2.08,2.88,3.13,3.07c1.04.19,2.08.28,3.13.28s2.08-2.51,3.13-2.51,2.08.98,3.13.98,2.08-.23,3.13-.7,2.08-1.67,3.13-5.02c1.04-3.35,2.08-15.07,3.13-21.07,1.04-6,2.08-9.14,3.13-14.93,1.04-5.79,2.08-14.65,3.13-19.82,1.04-5.16,2.08-11.17,3.13-11.17s2.08.74,3.13,2.23c1.04,1.49,2.08,18.93,3.13,23.03s2.08,2.05,3.13,6.14c1.04,4.09,2.08,19.54,3.13,23.73,1.04,4.19,2.08,6.19,3.13,6.28,1.04.09,2.08.14,3.13.14h40.63c1.04,0,2.08-1.58,3.13-4.75s2.08-14.93,3.13-14.93,2.08,8.09,3.13,12.14c1.04,4.05,2.08,12.14,3.13,12.14s2.08-6.37,3.13-8.79c1.04-2.42,2.08-3.81,3.13-5.72,1.04-1.91,2.08-1.91,3.13-5.72s2.08-12.72,3.13-19.96c1.04-7.23,2.08-17.03,3.13-23.45s2.08-15.07,3.13-15.07,2.08,74.11,3.13,74.11h40.63c1.04,0,2.08-1.81,3.13-5.44,1.04-3.63,2.08-15.98,3.13-22.33,1.04-6.35,2.08-13.54,3.13-15.77,1.04-2.23,2.08-3.35,3.13-3.35s2.08,3.49,3.13,3.49,2.08-4.42,3.13-6.14,2.08-4.19,3.13-4.19,2.08,4.42,3.13,13.26c1.04,8.84,2.08,40.75,3.13,40.75s2.08-.28,3.13-.28h40.63c1.04,0,2.08,13.96,3.13,13.96s2.08-2.95,3.13-8.23c1.04-5.28,2.08-15.03,3.13-23.45,1.04-8.42,2.08-27.08,3.13-27.08s2.08,9.77,3.13,9.77,2.08-3.63,3.13-3.63,2.08,16.89,3.13,16.89,2.08-5.49,3.13-8.65c1.04-3.16,2.08-7.3,3.13-10.33,1.04-3.02,2.08-4.93,3.13-7.82s2.08-9.49,3.13-9.49,2.08,58.06,3.13,58.06h3.13c1.04,0,2.08,13.96,3.13,13.96h34.38c1.04,0,2.08-4.19,3.13-7.82,1.04-3.63,2.08-13.96,3.13-13.96s2.08,1.16,3.13,3.49c1.04,2.33,2.08,8.89,3.13,10.47,1.04,1.58,2.08,2.37,3.13,2.37s2.08-19.24,3.13-25.4c1.04-6.16,2.08-7.4,3.13-11.58,1.04-4.19,2.08-9.12,3.13-13.54,1.04-4.42,2.08-9.72,3.13-12.98,1.04-3.26,2.08-6.56,3.13-6.56s2.08,32.08,3.13,44.66c1.04,12.58,2.08,30.84,3.13,30.84s2.08-13.96,3.13-13.96h3.13c1.04,0,2.08,13.96,3.13,13.96h6.25"/>
    </g>
    <g>
      <path id="recharts-area-_r_at_" class="st22" d="M305.83,609.18c1.04.7,2.08,1.4,3.13,1.4s2.08-.05,3.13-.14c1.04-.09,2.08-.84,3.13-.84s2.08.42,3.13.42,2.08-1.81,3.13-3.07c1.04-1.26,2.08-1.49,3.13-4.47,1.04-2.98,2.08-19.54,3.13-19.54s2.08,4.75,3.13,4.75,2.08-2.12,3.13-4.47,2.08-9.63,3.13-9.63,2.08,3.77,3.13,3.77,2.08-6.23,3.13-8.65c1.04-2.42,2.08-5.86,3.13-5.86s2.08,2.02,3.13,3.77c1.04,1.74,2.08,6.7,3.13,6.7s2.08-2.35,3.13-4.33,2.08-4.98,3.13-7.54c1.04-2.56,2.08-7.82,3.13-7.82s2.08,9.42,3.13,14.52c1.04,5.09,2.08,11.47,3.13,16.05,1.04,4.58,2.08,8.93,3.13,11.44s2.08,2.56,3.13,3.77c1.04,1.21,2.08,3.49,3.13,3.49s2.08-3.77,3.13-3.77,2.08,11.31,3.13,11.31,2.08-.05,3.13-.14c1.04-.09,2.08-.84,3.13-.84s2.08.42,3.13.42,2.08-1.58,3.13-3.07,2.08-2.02,3.13-5.86c1.04-3.84,2.08-9.68,3.13-17.17s2.08-27.77,3.13-27.77,2.08.19,3.13.56c1.04.37,2.08,4.05,3.13,4.05s2.08-8.23,3.13-8.23h3.13c1.04,0,2.08-5.72,3.13-5.72s2.08,5.19,3.13,6.7c1.04,1.51,2.08,2.37,3.13,2.37s2.08-.84,3.13-2.37c1.04-1.54,2.08-6.84,3.13-6.84s2.08,4.44,3.13,6.14,2.08,1.35,3.13,4.05c1.04,2.7,2.08,16.31,3.13,21.91s2.08,10.7,3.13,11.72c1.04,1.02,2.08,1.14,3.13,1.54s2.08.28,3.13.84c1.04.56,2.08,9.63,3.13,9.63h3.13c1.04,0,2.08,1.54,3.13,1.54s2.08-.7,3.13-.7,2.08.84,3.13.84,2.08-.65,3.13-1.95c1.04-1.3,2.08-17.59,3.13-20.38,1.04-2.79,2.08-4.19,3.13-4.19s2.08,1.81,3.13,5.44,2.08,15.89,3.13,23.03c1.04,7.14,2.08,14.49,3.13,19.82s2.08,12.14,3.13,12.14,2.08-6.37,3.13-8.79c1.04-2.42,2.08-3.81,3.13-5.72,1.04-1.91,2.08-1.91,3.13-5.72s2.08-12.72,3.13-19.96c1.04-7.23,2.08-17.03,3.13-23.45s2.08-12.65,3.13-15.07c1.04-2.42,2.08-3.63,3.13-3.63s2.08,5.26,3.13,10.19,2.08,14.82,3.13,19.4c1.04,4.58,2.08,6.61,3.13,8.1s2.08,1.7,3.13,2.23,2.08.33,3.13.98c1.04.65,2.08,7.68,3.13,7.68s2.08-.74,3.13-.84c1.04-.09,2.08-.05,3.13-.14,1.04-.09,2.08-.56,3.13-.56s2.08.42,3.13.42,2.08-.88,3.13-2.65c1.04-1.77,2.08-9.65,3.13-13.12s2.08-7.4,3.13-7.68c1.04-.28,2.08-.14,3.13-.42,1.04-.28,2.08-4.89,3.13-4.89s2.08,3.42,3.13,5.44c1.04,2.02,2.08,5,3.13,6.7,1.04,1.7,2.08,3.49,3.13,3.49s2.08-4.42,3.13-6.14,2.08-4.19,3.13-4.19,2.08,3.75,3.13,5.16,2.08,3.35,3.13,3.35,2.08-1.77,3.13-2.79c1.04-1.02,2.08-3.35,3.13-3.35s2.08.51,3.13,1.54c1.04,1.02,2.08,3.74,3.13,6.28,1.04,2.54,2.08,8.93,3.13,8.93s2.08-4.19,3.13-4.19,2.08,1.91,3.13,3.07,2.08,2.47,3.13,3.91c1.04,1.44,2.08,4.75,3.13,4.75h3.13c1.04,0,2.08-.88,3.13-.98s2.08-.05,3.13-.14c1.04-.09,2.08-1.16,3.13-3.49s2.08-9.42,3.13-12.56c1.04-3.14,2.08-6.28,3.13-6.28s2.08,1.54,3.13,1.54,2.08-8.93,3.13-8.93,2.08,2.05,3.13,5.86,2.08,17.03,3.13,17.03,2.08-3.63,3.13-3.63,2.08,16.89,3.13,16.89,2.08-5.49,3.13-8.65c1.04-3.16,2.08-7.3,3.13-10.33,1.04-3.02,2.08-4.93,3.13-7.82s2.08-9.49,3.13-9.49,2.08.14,3.13.14,2.08-1.12,3.13-1.12,2.08,10.26,3.13,13.4c1.04,3.14,2.08,4.33,3.13,5.44,1.04,1.12,2.08.58,3.13,1.67,1.04,1.09,2.08,4.89,3.13,4.89s2.08-8.09,3.13-8.09,2.08,7.07,3.13,7.82c1.04.74,2.08,1.12,3.13,1.12s2.08-.28,3.13-.28h3.13c1.04,0,2.08-1.02,3.13-3.07,1.04-2.05,2.08-17.45,3.13-17.45s2.08.14,3.13.42,2.08,11,3.13,18.56c1.04,7.56,2.08,24.47,3.13,26.8s2.08,1.16,3.13,3.49c1.04,2.33,2.08,8.89,3.13,10.47,1.04,1.58,2.08,2.37,3.13,2.37s2.08-19.24,3.13-25.4c1.04-6.16,2.08-7.4,3.13-11.58,1.04-4.19,2.08-9.12,3.13-13.54,1.04-4.42,2.08-9.72,3.13-12.98,1.04-3.26,2.08-5.02,3.13-6.56,1.04-1.54,2.08-2.65,3.13-2.65s2.08.51,3.13,1.54c1.04,1.02,2.08,2.84,3.13,5.16,1.04,2.33,2.08,8.79,3.13,8.79s2.08-1.12,3.13-1.12,2.08,2.26,3.13,4.75,2.08,6.34,3.13,10.19v48.85h-6.25c-1.04,0-2.08-13.96-3.13-13.96h-3.13c-1.04,0-2.08,13.96-3.13,13.96s-2.08-18.26-3.13-30.84c-1.04-12.58-2.08-44.66-3.13-44.66s-2.08,3.3-3.13,6.56c-1.04,3.26-2.08,8.56-3.13,12.98-1.04,4.42-2.08,9.35-3.13,13.54-1.04,4.19-2.08,5.42-3.13,11.58-1.04,6.16-2.08,25.4-3.13,25.4s-2.08-.79-3.13-2.37c-1.04-1.58-2.08-8.14-3.13-10.47-1.04-2.33-2.08-3.49-3.13-3.49s-2.08,10.33-3.13,13.96c-1.04,3.63-2.08,7.82-3.13,7.82h-34.38c-1.04,0-2.08-13.96-3.13-13.96h-3.13c-1.04,0-2.08-58.06-3.13-58.06s-2.08,6.61-3.13,9.49-2.08,4.79-3.13,7.82c-1.04,3.02-2.08,7.16-3.13,10.33-1.04,3.16-2.08,8.65-3.13,8.65s-2.08-16.89-3.13-16.89-2.08,3.63-3.13,3.63-2.08-9.77-3.13-9.77-2.08,18.66-3.13,27.08c-1.04,8.42-2.08,18.17-3.13,23.45-1.04,5.28-2.08,8.23-3.13,8.23s-2.08-13.96-3.13-13.96h-40.63c-1.04,0-2.08.28-3.13.28s-2.08-31.91-3.13-40.75c-1.04-8.84-2.08-13.26-3.13-13.26s-2.08,2.47-3.13,4.19c-1.04,1.72-2.08,6.14-3.13,6.14s-2.08-3.49-3.13-3.49-2.08,1.12-3.13,3.35c-1.04,2.23-2.08,9.42-3.13,15.77-1.04,6.35-2.08,18.7-3.13,22.33-1.04,3.63-2.08,5.44-3.13,5.44h-40.63c-1.04,0-2.08-74.11-3.13-74.11s-2.08,8.65-3.13,15.07-2.08,16.21-3.13,23.45c-1.04,7.23-2.08,16.14-3.13,19.96s-2.08,3.81-3.13,5.72c-1.04,1.91-2.08,3.3-3.13,5.72-1.04,2.42-2.08,8.79-3.13,8.79s-2.08-8.1-3.13-12.14c-1.04-4.05-2.08-12.14-3.13-12.14s-2.08,11.77-3.13,14.93-2.08,4.75-3.13,4.75h-40.63c-1.04,0-2.08-.05-3.13-.14-1.04-.09-2.08-2.09-3.13-6.28-1.04-4.19-2.08-19.63-3.13-23.73-1.04-4.09-2.08-2.05-3.13-6.14s-2.08-21.54-3.13-23.03c-1.04-1.49-2.08-2.23-3.13-2.23s-2.08,6-3.13,11.17c-1.04,5.16-2.08,14.03-3.13,19.82-1.04,5.79-2.08,8.93-3.13,14.93-1.04,6-2.08,17.73-3.13,21.07-1.04,3.35-2.08,4.56-3.13,5.02s-2.08.7-3.13.7-2.08-.98-3.13-.98-2.08,2.51-3.13,2.51-2.08-.09-3.13-.28c-1.04-.19-2.08-1.4-3.13-3.07s-2.08-6.23-3.13-6.98-2.08-1.12-3.13-1.12h-3.13c-1.04,0-2.08,2.4-3.13,4.19-1.04,1.79-2.08,6.56-3.13,6.56s-2.08-.05-3.13-.14c-1.04-.09-2.08-1.58-3.13-1.95-1.04-.37-2.08-.56-3.13-.56s-2.08,2.23-3.13,2.23-2.08-14.91-3.13-21.77c-1.04-6.86-2.08-13.19-3.13-19.4-1.04-6.21-2.08-16.19-3.13-17.86s-2.08-1.4-3.13-2.51c-1.04-1.12-2.08-4.19-3.13-4.19s-2.08,3.56-3.13,7.82c-1.04,4.26-2.08,11.65-3.13,17.72-1.04,6.07-2.08,12.31-3.13,18.7-1.04,6.4-2.08,17.35-3.13,19.68s-2.08,3.49-3.13,3.49-2.08-1.81-3.13-3.63c-1.04-1.81-2.08-5.68-3.13-7.26s-2.08-2.37-3.13-2.37-2.08,3.51-3.13,5.02c-1.04,1.51-2.08,2.61-3.13,4.05-1.04,1.44-2.08,4.42-3.13,4.61-1.04.19-2.08.23-3.13.28v-38.1Z"/>
      <path class="st8" d="M305.83,609.18c1.04.7,2.08,1.4,3.13,1.4s2.08-.05,3.13-.14c1.04-.09,2.08-.84,3.13-.84s2.08.42,3.13.42,2.08-1.81,3.13-3.07c1.04-1.26,2.08-1.49,3.13-4.47,1.04-2.98,2.08-19.54,3.13-19.54s2.08,4.75,3.13,4.75,2.08-2.12,3.13-4.47,2.08-9.63,3.13-9.63,2.08,3.77,3.13,3.77,2.08-6.23,3.13-8.65c1.04-2.42,2.08-5.86,3.13-5.86s2.08,2.02,3.13,3.77c1.04,1.74,2.08,6.7,3.13,6.7s2.08-2.35,3.13-4.33,2.08-4.98,3.13-7.54c1.04-2.56,2.08-7.82,3.13-7.82s2.08,9.42,3.13,14.52c1.04,5.09,2.08,11.47,3.13,16.05,1.04,4.58,2.08,8.93,3.13,11.44s2.08,2.56,3.13,3.77c1.04,1.21,2.08,3.49,3.13,3.49s2.08-3.77,3.13-3.77,2.08,11.31,3.13,11.31,2.08-.05,3.13-.14c1.04-.09,2.08-.84,3.13-.84s2.08.42,3.13.42,2.08-1.58,3.13-3.07,2.08-2.02,3.13-5.86c1.04-3.84,2.08-9.68,3.13-17.17s2.08-27.77,3.13-27.77,2.08.19,3.13.56c1.04.37,2.08,4.05,3.13,4.05s2.08-8.23,3.13-8.23h3.13c1.04,0,2.08-5.72,3.13-5.72s2.08,5.19,3.13,6.7c1.04,1.51,2.08,2.37,3.13,2.37s2.08-.84,3.13-2.37c1.04-1.54,2.08-6.84,3.13-6.84s2.08,4.44,3.13,6.14,2.08,1.35,3.13,4.05c1.04,2.7,2.08,16.31,3.13,21.91s2.08,10.7,3.13,11.72c1.04,1.02,2.08,1.14,3.13,1.54s2.08.28,3.13.84c1.04.56,2.08,9.63,3.13,9.63h3.13c1.04,0,2.08,1.54,3.13,1.54s2.08-.7,3.13-.7,2.08.84,3.13.84,2.08-.65,3.13-1.95c1.04-1.3,2.08-17.59,3.13-20.38,1.04-2.79,2.08-4.19,3.13-4.19s2.08,1.81,3.13,5.44,2.08,15.89,3.13,23.03c1.04,7.14,2.08,14.49,3.13,19.82s2.08,12.14,3.13,12.14,2.08-6.37,3.13-8.79c1.04-2.42,2.08-3.81,3.13-5.72,1.04-1.91,2.08-1.91,3.13-5.72s2.08-12.72,3.13-19.96c1.04-7.23,2.08-17.03,3.13-23.45s2.08-12.65,3.13-15.07c1.04-2.42,2.08-3.63,3.13-3.63s2.08,5.26,3.13,10.19,2.08,14.82,3.13,19.4c1.04,4.58,2.08,6.61,3.13,8.1s2.08,1.7,3.13,2.23,2.08.33,3.13.98c1.04.65,2.08,7.68,3.13,7.68s2.08-.74,3.13-.84c1.04-.09,2.08-.05,3.13-.14,1.04-.09,2.08-.56,3.13-.56s2.08.42,3.13.42,2.08-.88,3.13-2.65c1.04-1.77,2.08-9.65,3.13-13.12s2.08-7.4,3.13-7.68c1.04-.28,2.08-.14,3.13-.42,1.04-.28,2.08-4.89,3.13-4.89s2.08,3.42,3.13,5.44c1.04,2.02,2.08,5,3.13,6.7,1.04,1.7,2.08,3.49,3.13,3.49s2.08-4.42,3.13-6.14,2.08-4.19,3.13-4.19,2.08,3.75,3.13,5.16,2.08,3.35,3.13,3.35,2.08-1.77,3.13-2.79c1.04-1.02,2.08-3.35,3.13-3.35s2.08.51,3.13,1.54c1.04,1.02,2.08,3.74,3.13,6.28,1.04,2.54,2.08,8.93,3.13,8.93s2.08-4.19,3.13-4.19,2.08,1.91,3.13,3.07,2.08,2.47,3.13,3.91c1.04,1.44,2.08,4.75,3.13,4.75h3.13c1.04,0,2.08-.88,3.13-.98s2.08-.05,3.13-.14c1.04-.09,2.08-1.16,3.13-3.49s2.08-9.42,3.13-12.56c1.04-3.14,2.08-6.28,3.13-6.28s2.08,1.54,3.13,1.54,2.08-8.93,3.13-8.93,2.08,2.05,3.13,5.86,2.08,17.03,3.13,17.03,2.08-3.63,3.13-3.63,2.08,16.89,3.13,16.89,2.08-5.49,3.13-8.65c1.04-3.16,2.08-7.3,3.13-10.33,1.04-3.02,2.08-4.93,3.13-7.82s2.08-9.49,3.13-9.49,2.08.14,3.13.14,2.08-1.12,3.13-1.12,2.08,10.26,3.13,13.4c1.04,3.14,2.08,4.33,3.13,5.44,1.04,1.12,2.08.58,3.13,1.67,1.04,1.09,2.08,4.89,3.13,4.89s2.08-8.09,3.13-8.09,2.08,7.07,3.13,7.82c1.04.74,2.08,1.12,3.13,1.12s2.08-.28,3.13-.28h3.13c1.04,0,2.08-1.02,3.13-3.07,1.04-2.05,2.08-17.45,3.13-17.45s2.08.14,3.13.42,2.08,11,3.13,18.56c1.04,7.56,2.08,24.47,3.13,26.8s2.08,1.16,3.13,3.49c1.04,2.33,2.08,8.89,3.13,10.47,1.04,1.58,2.08,2.37,3.13,2.37s2.08-19.24,3.13-25.4c1.04-6.16,2.08-7.4,3.13-11.58,1.04-4.19,2.08-9.12,3.13-13.54,1.04-4.42,2.08-9.72,3.13-12.98,1.04-3.26,2.08-5.02,3.13-6.56,1.04-1.54,2.08-2.65,3.13-2.65s2.08.51,3.13,1.54c1.04,1.02,2.08,2.84,3.13,5.16,1.04,2.33,2.08,8.79,3.13,8.79s2.08-1.12,3.13-1.12,2.08,2.26,3.13,4.75,2.08,6.34,3.13,10.19"/>
    </g>
    <g>
      <path id="recharts-area-_r_au_" class="st28" d="M305.83,647.28h450.1-450.1Z"/>
      <path class="st6" d="M305.83,647.28h450.1"/>
    </g>
    <g>
      <path id="recharts-area-_r_av_" class="st16" d="M305.83,647.28h450.1-450.1Z"/>
      <path class="st6" d="M305.83,647.28h450.1"/>
    </g>
  </g>
  <g>
    <circle class="st21" cx="945" cy="128.78" r="18.65"/>
    <g>
      <path class="st25" d="M952.04,120.28h-4.81c-.12,0-.21-.09-.21-.21s.09-.21.21-.21h4.6v-.39l-5.14-1.52c-.11-.03-.17-.15-.14-.26.03-.11.15-.17.26-.14l5.29,1.56c.09.03.15.11.15.2v.76c0,.12-.09.21-.21.21Z"/>
      <path class="st25" d="M954.85,125.8h-6.56c-.12,0-.21-.09-.21-.21s.09-.21.21-.21h6.35v-.39l-6.84-1.89c-.11-.03-.18-.15-.15-.26.03-.11.15-.18.26-.15l7,1.93c.09.03.15.11.15.2v.76c0,.12-.09.21-.21.21Z"/>
      <path class="st25" d="M954.17,127.97c-.6,0-1.09-.49-1.09-1.09s.49-1.09,1.09-1.09,1.09.49,1.09,1.09-.49,1.09-1.09,1.09ZM954.17,126.21c-.37,0-.67.3-.67.67s.3.67.67.67.67-.3.67-.67-.3-.67-.67-.67Z"/>
      <path class="st25" d="M950.74,122.16c-.6,0-1.09-.49-1.09-1.09s.49-1.09,1.09-1.09,1.09.49,1.09,1.09-.49,1.09-1.09,1.09ZM950.74,120.4c-.37,0-.67.3-.67.67s.3.67.67.67.67-.3.67-.67-.3-.67-.67-.67Z"/>
      <path class="st25" d="M950.74,122.16c-.6,0-1.09-.49-1.09-1.09s.49-1.09,1.09-1.09,1.09.49,1.09,1.09-.49,1.09-1.09,1.09ZM950.74,120.4c-.37,0-.67.3-.67.67s.3.67.67.67.67-.3.67-.67-.3-.67-.67-.67Z"/>
      <path class="st25" d="M942.77,120.28h-4.81c-.12,0-.21-.09-.21-.21v-.76c0-.09.06-.17.15-.2l5.29-1.56c.11-.03.23.03.26.14.03.11-.03.23-.14.26l-5.14,1.52v.39h4.6c.12,0,.21.09.21.21s-.09.21-.21.21Z"/>
      <path class="st25" d="M941.71,125.8h-6.56c-.12,0-.21-.09-.21-.21v-.76c0-.09.06-.18.15-.2l7-1.93c.11-.03.23.03.26.15.03.11-.03.23-.15.26l-6.84,1.89v.39h6.35c.12,0,.21.09.21.21s-.09.21-.21.21Z"/>
      <path class="st25" d="M935.83,127.97c-.6,0-1.09-.49-1.09-1.09s.49-1.09,1.09-1.09,1.09.49,1.09,1.09-.49,1.09-1.09,1.09ZM935.83,126.21c-.37,0-.67.3-.67.67s.3.67.67.67.67-.3.67-.67-.3-.67-.67-.67Z"/>
      <path class="st25" d="M939.26,122.16c-.6,0-1.09-.49-1.09-1.09s.49-1.09,1.09-1.09,1.09.49,1.09,1.09-.49,1.09-1.09,1.09ZM939.26,120.4c-.37,0-.67.3-.67.67s.3.67.67.67.67-.3.67-.67-.3-.67-.67-.67Z"/>
      <path class="st25" d="M939.26,122.16c-.6,0-1.09-.49-1.09-1.09s.49-1.09,1.09-1.09,1.09.49,1.09,1.09-.49,1.09-1.09,1.09ZM939.26,120.4c-.37,0-.67.3-.67.67s.3.67.67.67.67-.3.67-.67-.3-.67-.67-.67Z"/>
      <path class="st25" d="M938.69,141.09s-.07,0-.1-.03c-.08-.04-.12-.13-.11-.22l4.67-23.86c-.01-.05,0-.11.03-.16l.04-.18c.02-.1.1-.17.2-.17h3.11c.1,0,.19.07.2.17l.03.16c.05.06.06.13.04.2l4.68,23.84c.02.09-.03.18-.11.22-.08.04-.18.03-.25-.04l-6.1-6.02-6.21,6.02s-.09.06-.15.06ZM940.86,130.89l-1.84,9.38,5.72-5.55-3.88-3.83ZM945.34,134.72l5.61,5.54-1.81-9.22-3.8,3.69ZM941.03,130.47l4.01,3.96,3.93-3.81-4.01-3.89-3.94,3.74ZM945.27,126.44l3.67,3.56-1.17-5.95-2.51,2.38ZM942.2,124.05l-1.14,5.82,3.61-3.43-2.47-2.39ZM942.48,123.74l2.49,2.41,2.62-2.49-2.57-3.86-2.54,3.93ZM943.48,117.5l-1.1,5.63,2.39-3.7-1.28-1.93ZM945.27,119.42l2.27,3.41-1.04-5.32-1.23,1.9ZM943.6,116.92l1.42,2.13,1.36-2.11v-.04h-2.78v.02Z"/>
    </g>
  </g>
  <g>
    <circle class="st27" cx="997.66" cy="128.78" r="18.65"/>
    <g>
      <path class="st25" d="M1005.72,135.31h-9.64c-.08,0-.15-.04-.19-.11l-3.83-6.74c-.04-.07-.04-.15,0-.22.04-.07.11-.11.19-.11h9.64c.08,0,.15.04.19.11l3.83,6.74c.04.07.04.15,0,.22-.04.07-.11.11-.19.11ZM1003.97,134.86h1.36l-.71-1.24s-.03,0-.05,0h-1.31l.67,1.16s.02.05.03.07ZM1002.13,134.86h1.34l-.72-1.24h-1.33l.67,1.16s.02.05.03.07ZM999.94,134.86h1.69l-.72-1.24h-1.67l.67,1.16s.02.05.03.07ZM998.1,134.86h1.34l-.72-1.24h-1.32l.67,1.16s.02.05.03.07ZM996.21,134.86h1.39l-.72-1.24h-1.38l.7,1.24ZM994.55,131.94l.7,1.24s.02,0,.03,0h1.34l-.72-1.24h-1.36ZM1003.01,133.17h1.37l-.71-1.24s-.03,0-.04,0h-1.34l.72,1.24ZM1001.17,133.17h1.33l-.72-1.24h-1.33l.72,1.24ZM998.98,133.17h1.67l-.72-1.24h-1.67l.72,1.24ZM997.14,133.17h1.32l-.72-1.24h-1.32l.72,1.24ZM993.59,130.25l.71,1.24s.03,0,.04,0h1.32l-.72-1.24h-1.34ZM1002.03,131.49h1.38l-.71-1.25s-.05.01-.08.01h-1.31l.72,1.24ZM1000.19,131.49h1.33l-.72-1.24h-1.33l.72,1.24ZM998.01,131.49h1.67l-.72-1.24h-1.67l.72,1.24ZM996.16,131.49h1.32l-.72-1.24h-1.32l.72,1.24ZM1001.06,129.8h1.4l-.7-1.24h-1.41l.72,1.24ZM999.22,129.8h1.33l-.67-1.16s-.02-.05-.03-.08h-1.34l.72,1.24ZM997.03,129.8h1.67l-.67-1.16s-.02-.05-.03-.08h-1.69l.72,1.24ZM995.19,129.8h1.32l-.67-1.16s-.02-.05-.03-.08h-1.34l.72,1.24ZM993.33,129.8h1.34l-.67-1.16s-.02-.05-.03-.08h-1.34l.7,1.24Z"/>
      <path class="st25" d="M1008.36,136.44"/>
      <path class="st25" d="M995.46,136.61c-.08,0-.15-.04-.19-.11l-5.16-9.07c-.06-.11-.02-.24.08-.3.11-.06.24-.02.3.08l5.16,9.07c.06.11.02.24-.08.3-.03.02-.07.03-.11.03Z"/>
      <path class="st25" d="M1007.79,136.61c-.08,0-.15-.04-.19-.11l-5.09-8.96h-12.06l-5.09,8.96c-.06.11-.2.14-.3.08-.11-.06-.14-.2-.08-.3l5.16-9.07c.04-.07.11-.11.19-.11h12.32c.08,0,.15.04.19.11l5.16,9.07c.06.11.02.24-.08.3-.03.02-.07.03-.11.03Z"/>
      <path class="st25" d="M1004.39,130.4c-.08,0-.15-.04-.19-.11-.06-.11-.03-.24.07-.31.94-.58,1.5-1.58,1.5-2.68,0-1.73-1.41-3.14-3.14-3.14s-3.14,1.41-3.14,3.14c0,.12-.1.22-.22.22s-.22-.1-.22-.22c0-1.98,1.61-3.59,3.59-3.59s3.59,1.61,3.59,3.59c0,1.26-.64,2.4-1.72,3.06-.04.02-.08.03-.12.03Z"/>
      <g>
        <g id="_x3C_Radial_Repeat_x3E_">
          <path class="st25" d="M997.71,125.78s-.05,0-.08-.01l-3.03-1.12c-.12-.04-.17-.17-.13-.29.04-.12.17-.18.29-.13l3.03,1.12c.12.04.17.17.13.29-.03.09-.12.15-.21.15Z"/>
        </g>
        <g id="_x3C_Radial_Repeat_x3E_1" data-name="_x3C_Radial_Repeat_x3E_">
          <path class="st25" d="M1000.33,122.96c-.08,0-.17-.05-.2-.13l-1.35-2.93c-.05-.11,0-.24.11-.3.11-.05.24,0,.3.11l1.35,2.93c.05.11,0,.24-.11.3-.03.01-.06.02-.09.02Z"/>
        </g>
        <g id="_x3C_Radial_Repeat_x3E_2" data-name="_x3C_Radial_Repeat_x3E_">
          <path class="st25" d="M1004.17,122.82s-.05,0-.08-.01c-.12-.04-.17-.17-.13-.29l1.12-3.03c.04-.12.17-.18.29-.13.12.04.17.17.13.29l-1.12,3.03c-.03.09-.12.15-.21.15Z"/>
        </g>
        <g id="_x3C_Radial_Repeat_x3E_3" data-name="_x3C_Radial_Repeat_x3E_">
          <path class="st25" d="M1007,125.43c-.08,0-.17-.05-.2-.13-.05-.11,0-.24.11-.3l2.93-1.35c.11-.05.24,0,.3.11.05.11,0,.24-.11.3l-2.93,1.35s-.06.02-.09.02Z"/>
        </g>
        <g id="_x3C_Radial_Repeat_x3E_4" data-name="_x3C_Radial_Repeat_x3E_">
          <path class="st25" d="M1010.17,130.4s-.05,0-.08-.01l-3.03-1.12c-.12-.04-.17-.17-.13-.29.04-.12.17-.18.29-.13l3.03,1.12c.12.04.17.17.13.29-.03.09-.12.15-.21.15Z"/>
        </g>
      </g>
    </g>
  </g>
  <g>
    <circle class="st18" cx="1050.31" cy="128.78" r="18.65"/>
    <g>
      <path class="st25" d="M1044.97,142.84l1.45-17.41c.01-.16-.1-.29-.26-.31-.16-.01-.29.1-.31.26l-1.45,17.41c-.01.16.1.29.26.31.16.01.29-.1.31-.26"/>
      <path class="st25" d="M1048.45,142.6l-1.41-17.22c-.01-.16-.15-.27-.31-.26-.16.01-.27.15-.26.31l1.41,17.22c.01.16.15.27.31.26.16-.01.27-.15.26-.31"/>
      <path class="st25" d="M1047.32,124.49h.28c0-.64-.52-1.17-1.17-1.17s-1.17.52-1.17,1.17.52,1.17,1.17,1.17,1.17-.52,1.17-1.17h-.57c0,.33-.27.6-.6.6-.33,0-.6-.27-.6-.6,0-.33.27-.6.6-.6.33,0,.6.27.6.6h.29Z"/>
      <path class="st25" d="M1045.78,125.1c-.74.6-1.71,1.27-2.92,1.86-.9.44-1.87.82-2.7,1.09-.82.27-1.52.42-1.78.42h-.07s-.05.18-.05.18l.17-.07-.11-.11-.05.18.17-.07-.21.09h.22s-.02-.09-.02-.09l-.21.09h.22s-.16,0-.16,0l.14.08.02-.08h-.16l.14.08h0s.16-.17.42-.35c.79-.55,2.71-1.62,6.65-3.6.14-.07.2-.24.13-.38-.07-.14-.24-.2-.38-.13-2.9,1.45-4.7,2.42-5.79,3.06-.55.32-.91.56-1.15.74-.12.09-.21.17-.28.25-.07.08-.14.16-.14.32l.03.14c.06.14.18.19.25.21l.23.03c.41,0,1.1-.17,1.96-.44.85-.28,1.84-.66,2.77-1.12,1.25-.61,2.26-1.31,3.02-1.92.12-.1.14-.28.04-.4-.1-.12-.28-.14-.4-.04Z"/>
      <path class="st25" d="M1047.3,124.75c.89.34,1.95.85,3.07,1.6.94.63,1.85,1.38,2.53,2.01.34.32.61.6.8.82.09.11.16.21.2.27l.04.07h0s.11-.02.11-.02h-.12v.03s.12-.03.12-.03h-.12.21l-.17-.12-.04.12h.21l-.17-.12.23.17-.23-.17.17.13-.07-.21-.1.07.17.13-.07-.21.04.12v-.13h-.04s.04.13.04.13v-.13s-.17-.03-.45-.16c-.84-.39-2.73-1.5-6.5-3.99-.13-.09-.31-.05-.4.08-.09.13-.05.31.08.39,2.52,1.66,4.2,2.71,5.31,3.35.55.32.96.54,1.27.68.31.14.49.21.69.22.08,0,.22-.02.31-.14h0s.07-.22.07-.22c0-.16-.06-.24-.12-.35-.22-.36-.71-.87-1.37-1.47-.66-.59-1.48-1.25-2.33-1.82-1.16-.78-2.26-1.3-3.18-1.66-.15-.06-.31.02-.37.16-.06.15.02.31.16.37Z"/>
      <path class="st25" d="M1046.2,123.56c-.11-.68-.19-1.49-.19-2.4,0-.34.01-.69.04-1.06.08-1.17.28-2.39.5-3.3.11-.46.22-.84.32-1.09.05-.13.1-.22.13-.27l.02-.02h0s-.13-.13-.13-.13v.17l.13-.04-.13-.13v.17-.25l-.05.25h.05s0-.25,0-.25l-.05.25h.02s.02-.2.02-.2l-.16.14.13.07.02-.2-.16.14.07-.06-.08.05h.01s.07-.05.07-.05l-.08.05.03.12c.05.24.09.78.09,1.72,0,1.26-.07,3.24-.25,6.26,0,.16.11.29.27.3.16,0,.29-.11.3-.27.18-3.03.25-5.01.25-6.29,0-.77-.02-1.29-.07-1.63-.02-.17-.05-.3-.09-.41l-.09-.16c-.04-.05-.13-.11-.23-.13l-.03.28.06-.28h-.06c-.12,0-.2.05-.25.09-.1.09-.14.18-.2.29-.19.39-.39,1.07-.57,1.93-.18.85-.33,1.87-.4,2.86-.03.38-.04.75-.04,1.1,0,.94.08,1.78.19,2.48.02.16.17.26.33.24.16-.02.26-.17.24-.33Z"/>
      <path class="st25" d="M1054.62,143.53l.87-10.49c0-.12-.08-.23-.2-.24-.12,0-.23.08-.24.2l-.87,10.49c-.01.12.08.23.2.24.12.01.23-.08.24-.2"/>
      <path class="st25" d="M1056.71,143.38l-.85-10.38c-.01-.12-.12-.21-.24-.2-.12,0-.21.12-.2.24l.85,10.38c0,.12.12.21.24.2.12,0,.21-.12.2-.24"/>
      <path class="st25" d="M1055.98,132.47h.22c0-.41-.34-.75-.75-.75-.41,0-.75.34-.75.75s.34.75.75.75.75-.34.75-.75h-.44c0,.17-.14.31-.31.31s-.31-.14-.31-.31.14-.31.31-.31c.17,0,.31.14.31.31h.22Z"/>
      <path class="st25" d="M1055.03,132.8c-.44.36-1.02.76-1.75,1.11-.54.26-1.12.49-1.62.65-.49.16-.91.25-1.06.25h-.03s0,0,0,0l-.04.15.14-.06c-.04-.09-.1-.09-.1-.1l-.04.15.14-.06h0s-.17.07-.17.07h.18l-.02-.07-.17.07h.18-.14l.13.07.02-.07h-.14l.13.07-.03-.02.03.02h0s-.03-.02-.03-.02l.03.02s.09-.09.24-.2c.47-.33,1.63-.98,4-2.16.11-.05.15-.19.1-.29-.05-.11-.19-.15-.29-.1-1.75.87-2.83,1.46-3.49,1.84-.33.19-.55.34-.7.45l-.18.16c-.04.05-.09.1-.1.23l.02.1h0c.05.1.13.14.18.15l.15.02c.26,0,.67-.1,1.19-.27.51-.17,1.11-.4,1.68-.68.76-.37,1.37-.79,1.83-1.17.09-.08.11-.21.03-.31-.08-.09-.21-.11-.31-.03Z"/>
      <path class="st25" d="M1055.96,132.67c.53.21,1.17.51,1.84.96.56.38,1.11.83,1.52,1.21.2.19.37.36.48.49l.12.16.02.04h.02s-.02,0-.02,0h0s.02,0,.02,0h-.02s.12-.02.12-.02h-.12s0,.03,0,.03l.12-.03h-.12s.17,0,.17,0l-.14-.1-.03.1h.17l-.14-.1.18.13-.18-.13.12.09v-.16l-.12.07.12.09v-.16h0s0,0,0,0h0s0,0,0,0c-.02,0-.13-.03-.3-.12-.53-.25-1.66-.93-3.86-2.38-.1-.07-.24-.04-.3.06-.07.1-.04.24.06.3,1.52,1,2.53,1.64,3.2,2.02.33.19.58.32.77.41.19.08.3.13.43.13.06,0,.15-.01.23-.11h0s.05-.16.05-.16c0-.11-.04-.17-.08-.24-.14-.22-.44-.53-.84-.89-.4-.36-.89-.75-1.41-1.1-.7-.47-1.37-.79-1.92-1-.11-.04-.24.01-.28.13-.04.11.01.24.13.28Z"/>
      <path class="st25" d="M1055.35,131.9c-.06-.41-.11-.89-.11-1.44,0-.2,0-.42.02-.63.05-.7.17-1.43.3-1.98.07-.27.13-.5.19-.65l.07-.15h0s-.06-.06-.06-.06l.04.06h.02s-.06-.06-.06-.06l.04.06-.09-.14v.17l.09-.03-.09-.14v.17-.2l-.04.19h.04s0-.19,0-.19l-.04.19h.01s.02-.17.02-.17l-.13.11.11.06.02-.17-.13.11.08-.07-.09.05v.02s.09-.07.09-.07l-.09.05h.01s-.02,0-.02,0h0s.01,0,.01,0h-.02s.03.13.05.3c.02.18.02.44.02.79,0,.76-.04,1.95-.15,3.77,0,.12.08.22.21.23.12,0,.22-.09.23-.21.11-1.82.15-3.02.15-3.79,0-.47-.02-.78-.04-.99-.01-.1-.03-.18-.06-.26l-.06-.11-.17-.09-.03.22.04-.22h-.04c-.09,0-.15.04-.18.07l-.13.19c-.12.24-.24.65-.35,1.17-.11.52-.2,1.13-.24,1.73-.02.23-.02.45-.02.66,0,.57.05,1.08.12,1.5.02.12.13.2.25.18.12-.02.2-.13.18-.25"/>
    </g>
  </g>
  <circle class="st24" cx="1102.97" cy="128.45" r="18.65"/>
  <g>
    <circle class="st32" cx="1156.71" cy="128.78" r="18.65"/>
    <path class="st26" d="M1148.61,133.84c2.36,2.36,4.72,4.72,7.08,7.08.13.13.25.26.39.38.4.33.87.32,1.27,0,.1-.08.19-.18.28-.27,2.43-2.43,4.87-4.87,7.3-7.3.13-.13.26-.26.35-.41.28-.46.02-1.04-.51-1.14-.2-.04-.41-.03-.62-.03-.8,0-1.6,0-2.41,0-.23,0-.46-.02-.79-.04,0-.37-.02-.65-.02-.93,0-4.3,0-8.59,0-12.88,0-.28,0-.57-.03-.85-.1-.74-.71-1.32-1.45-1.4-.2-.02-.41-.02-.62-.02-1.29,0-2.59,0-3.88,0-.28,0-.57-.01-.85,0-.89.06-1.55.71-1.61,1.59-.02.23,0,.47,0,.7,0,4.29,0,8.59,0,12.88,0,.28.05.57-.08.89-.18.02-.38.06-.58.06-.83,0-1.66,0-2.48,0-.21,0-.42,0-.62.02-.62.09-.89.71-.53,1.22.12.17.28.31.42.45Z"/>
    <path class="st32" d="M1158.91,127.75l-2.48,7.96c-.02.07-.09.12-.17.12-.01,0-.02,0-.03,0-.09-.01-.15-.09-.15-.17v-5.95h-1.54c-.06,0-.11-.03-.14-.07-.04-.05-.04-.11-.02-.16.99-2.87,2.46-7.24,2.51-7.56h0c0-.1.08-.17.18-.17s.18.09.18.19v5.6h1.5c.05,0,.11.02.14.07.03.05.04.1.02.16Z"/>
  </g>
  <g>
    <path class="st25" d="M1107.84,117.37h-1.58c-.04-1.02-.88-1.84-1.92-1.84h-2.74c-1.03,0-1.89.83-1.92,1.84h-1.58c-1.22,0-2.23,1-2.23,2.23v19.56c0,1.22,1,2.23,2.23,2.23h9.73c1.22,0,2.21-1,2.21-2.23v-19.56c0-1.22-.99-2.23-2.21-2.23ZM1109.32,138.59c0,1.22-.99,2.21-2.23,2.21h-8.24c-1.22,0-2.21-.99-2.21-2.21v-16.64h12.67v16.64Z"/>
    <rect class="st25" x="1097.66" y="137.6" width="10.62" height="2.03" rx=".81" ry=".81"/>
    <rect class="st25" x="1097.66" y="134.5" width="10.62" height="2.03" rx=".81" ry=".81"/>
    <rect class="st25" x="1097.66" y="131.39" width="10.62" height="2.03" rx=".81" ry=".81"/>
    <rect class="st25" x="1097.66" y="128.29" width="10.62" height="2.03" rx=".81" ry=".81"/>
  </g>
</svg>