<?xml version="1.0" encoding="UTF-8"?>
<svg id="Layer_2" data-name="Layer 2" xmlns="http://www.w3.org/2000/svg" viewBox="0 0 1280 800">
  <defs>
    <style>
      .cls-1 {
        stroke: #95a5a6;
      }

      .cls-1, .cls-2, .cls-3, .cls-4, .cls-5, .cls-6 {
        fill: none;
      }

      .cls-7 {
        letter-spacing: 0em;
      }

      .cls-2 {
        stroke: #e6e6e6;
        stroke-dasharray: 3 3;
      }

      .cls-8 {
        letter-spacing: -.02em;
      }

      .cls-9 {
        letter-spacing: -.13em;
      }

      .cls-10 {
        letter-spacing: 0em;
      }

      .cls-11, .cls-12, .cls-13 {
        isolation: isolate;
      }

      .cls-14 {
        letter-spacing: 0em;
      }

      .cls-15 {
        letter-spacing: -.01em;
      }

      .cls-16 {
        fill: #fff;
      }

      .cls-16, .cls-6 {
        stroke: #00aeef;
        stroke-width: 2px;
      }

      .cls-17 {
        letter-spacing: 0em;
      }

      .cls-12 {
        fill: #95a5a6;
        font-family: Stolzl-Light, Stolzl;
        font-size: 9px;
        font-weight: 300;
      }

      .cls-18 {
        letter-spacing: -.09em;
      }

      .cls-19 {
        letter-spacing: -.09em;
      }

      .cls-20 {
        letter-spacing: 0em;
      }

      .cls-13 {
        fill: #e84393;
        font-family: Stolzl-Regular, Stolzl;
        font-size: 10px;
      }

      .cls-4 {
        stroke: #e84393;
        stroke-dasharray: 4 4;
        stroke-width: 1.5px;
      }

      .cls-5 {
        stroke: #666;
      }

      .cls-21 {
        letter-spacing: -.02em;
      }

      .cls-22 {
        fill: rgba(0, 174, 239, .15);
      }
    </style>
  </defs>
  <g>
    <g>
      <line class="cls-2" x1="334.81" y1="669.11" x2="1048.81" y2="669.11"/>
      <line class="cls-2" x1="334.81" y1="542.11" x2="1048.81" y2="542.11"/>
      <line class="cls-2" x1="334.81" y1="415.11" x2="1048.81" y2="415.11"/>
      <line class="cls-2" x1="334.81" y1="288.11" x2="1048.81" y2="288.11"/>
      <line class="cls-2" x1="334.81" y1="161.11" x2="1048.81" y2="161.11"/>
    </g>
    <g>
      <line class="cls-2" x1="364.56" y1="161.11" x2="364.56" y2="669.11"/>
      <line class="cls-2" x1="394.31" y1="161.11" x2="394.31" y2="669.11"/>
      <line class="cls-2" x1="424.06" y1="161.11" x2="424.06" y2="669.11"/>
      <line class="cls-2" x1="483.56" y1="161.11" x2="483.56" y2="669.11"/>
      <line class="cls-2" x1="513.31" y1="161.11" x2="513.31" y2="669.11"/>
      <line class="cls-2" x1="453.81" y1="161.11" x2="453.81" y2="669.11"/>
      <line class="cls-2" x1="572.81" y1="161.11" x2="572.81" y2="669.11"/>
      <line class="cls-2" x1="691.81" y1="161.11" x2="691.81" y2="669.11"/>
      <line class="cls-2" x1="810.81" y1="161.11" x2="810.81" y2="669.11"/>
      <line class="cls-2" x1="929.81" y1="161.11" x2="929.81" y2="669.11"/>
      <line class="cls-2" x1="1019.06" y1="161.11" x2="1019.06" y2="669.11"/>
      <line class="cls-2" x1="543.06" y1="161.11" x2="543.06" y2="669.11"/>
      <line class="cls-2" x1="602.56" y1="161.11" x2="602.56" y2="669.11"/>
      <line class="cls-2" x1="632.31" y1="161.11" x2="632.31" y2="669.11"/>
      <line class="cls-2" x1="662.06" y1="161.11" x2="662.06" y2="669.11"/>
      <line class="cls-2" x1="721.56" y1="161.11" x2="721.56" y2="669.11"/>
      <line class="cls-2" x1="751.31" y1="161.11" x2="751.31" y2="669.11"/>
      <line class="cls-2" x1="781.06" y1="161.11" x2="781.06" y2="669.11"/>
      <line class="cls-2" x1="840.56" y1="161.11" x2="840.56" y2="669.11"/>
      <line class="cls-2" x1="870.31" y1="161.11" x2="870.31" y2="669.11"/>
      <line class="cls-2" x1="900.06" y1="161.11" x2="900.06" y2="669.11"/>
      <line class="cls-2" x1="959.56" y1="161.11" x2="959.56" y2="669.11"/>
      <line class="cls-2" x1="989.31" y1="161.11" x2="989.31" y2="669.11"/>
      <line class="cls-2" x1="1048.81" y1="161.11" x2="1048.81" y2="669.11"/>
      <line class="cls-2" x1="334.81" y1="161.11" x2="334.81" y2="669.11"/>
    </g>
  </g>
  <g>
    <line class="cls-4" x1="557.9" y1="161.11" x2="557.9" y2="669.11"/>
    <text class="cls-13" transform="translate(561.9 173.11)"><tspan class="cls-8" x="0" y="0">P</tspan><tspan x="6.42" y="0">ayback ~</tspan><tspan class="cls-9" x="54.6" y="0">7</tspan><tspan class="cls-8" x="58.79" y="0">.</tspan><tspan x="61.65" y="0">5yr</tspan></text>
  </g>
  <g>
    <path id="recharts-area-_r_gm_" data-name="recharts-area- r gm " class="cls-22" d="M334.81,659.45c9.92-4.94,19.83-9.88,29.75-14.88,9.92-5,19.83-10.05,29.75-15.14,9.92-5.09,19.83-10.22,29.75-15.39s19.83-10.39,29.75-15.64c9.92-5.25,19.83-10.52,29.75-15.86,9.92-5.33,19.83-10.71,29.75-16.13,9.92-5.42,19.83-10.87,29.75-16.37,9.92-5.5,19.83-11.04,29.75-16.61,9.92-5.58,19.83-12.28,29.75-16.85,9.92-4.57,19.83-5.9,29.75-10.55,9.92-4.64,19.83-11.69,29.75-17.31,9.92-5.62,19.83-10.69,29.75-16.39s19.83-11.8,29.75-17.76c9.92-5.96,19.83-15.12,29.75-17.98s19.83-1.43,29.75-4.3c9.92-2.87,19.83-12.24,29.75-18.42,9.92-6.17,19.83-12.39,29.75-18.63s19.83-12.53,29.75-18.84c9.92-6.32,19.83-12.67,29.75-19.05s19.83-12.8,29.75-19.26c9.92-6.45,19.83-12.94,29.75-19.46,9.92-6.52,19.83-13.08,29.75-19.66,9.92-6.59,19.83-13.21,29.75-19.86,9.92-6.65,19.83-13.35,29.75-20.06v282.71H334.81v117.68Z"/>
    <path class="cls-6" d="M334.81,659.45c9.92-4.94,19.83-9.88,29.75-14.88,9.92-5,19.83-10.05,29.75-15.14,9.92-5.09,19.83-10.22,29.75-15.39s19.83-10.39,29.75-15.64c9.92-5.25,19.83-10.52,29.75-15.86,9.92-5.33,19.83-10.71,29.75-16.13,9.92-5.42,19.83-10.87,29.75-16.37,9.92-5.5,19.83-11.04,29.75-16.61,9.92-5.58,19.83-12.28,29.75-16.85,9.92-4.57,19.83-5.9,29.75-10.55,9.92-4.64,19.83-11.69,29.75-17.31,9.92-5.62,19.83-10.69,29.75-16.39s19.83-11.8,29.75-17.76c9.92-5.96,19.83-15.12,29.75-17.98s19.83-1.43,29.75-4.3c9.92-2.87,19.83-12.24,29.75-18.42,9.92-6.17,19.83-12.39,29.75-18.63s19.83-12.53,29.75-18.84c9.92-6.32,19.83-12.67,29.75-19.05s19.83-12.8,29.75-19.26c9.92-6.45,19.83-12.94,29.75-19.46,9.92-6.52,19.83-13.08,29.75-19.66,9.92-6.59,19.83-13.21,29.75-19.86,9.92-6.65,19.83-13.35,29.75-20.06"/>
  </g>
  <g>
    <line class="cls-1" x1="334.81" y1="542.11" x2="1048.81" y2="542.11"/>
    <path id="recharts-line-_r_gn_" data-name="recharts-line- r gn " class="cls-3" d="M334.81,659.9c9.92-4.94,19.83-9.89,29.75-14.89,9.92-5.01,19.83-10.06,29.75-15.15,9.92-5.09,19.83-10.23,29.75-15.4s19.83-10.4,29.75-15.65,19.83-10.54,29.75-15.87,19.83-10.72,29.75-16.14c9.92-5.42,19.83-10.88,29.75-16.39,9.92-5.5,19.83-11.04,29.75-16.62s19.83-12.29,29.75-16.86,19.83-5.91,29.75-10.56,19.83-11.71,29.75-17.33,19.83-10.7,29.75-16.4c9.92-5.7,19.83-11.82,29.75-17.78,9.92-5.96,19.83-15.13,29.75-18,9.92-2.87,19.83-1.43,29.75-4.3s19.83-12.26,29.75-18.44,19.83-12.4,29.75-18.65,19.83-12.54,29.75-18.86c9.92-6.32,19.83-12.68,29.75-19.07,9.92-6.39,19.83-12.82,29.75-19.28s19.83-12.95,29.75-19.48c9.92-6.53,19.83-13.09,29.75-19.68,9.92-6.59,19.83-13.22,29.75-19.88,9.92-6.66,19.83-13.37,29.75-20.07"/>
  </g>
  <g>
    <g>
      <line class="cls-5" x1="334.81" y1="669.11" x2="1048.81" y2="669.11"/>
      <g>
        <line class="cls-5" x1="334.81" y1="675.11" x2="334.81" y2="669.11"/>
        <line class="cls-5" x1="364.56" y1="675.11" x2="364.56" y2="669.11"/>
        <line class="cls-5" x1="394.31" y1="675.11" x2="394.31" y2="669.11"/>
        <line class="cls-5" x1="424.06" y1="675.11" x2="424.06" y2="669.11"/>
        <line class="cls-5" x1="453.81" y1="675.11" x2="453.81" y2="669.11"/>
        <line class="cls-5" x1="483.56" y1="675.11" x2="483.56" y2="669.11"/>
        <line class="cls-5" x1="513.31" y1="675.11" x2="513.31" y2="669.11"/>
        <line class="cls-5" x1="543.06" y1="675.11" x2="543.06" y2="669.11"/>
        <line class="cls-5" x1="572.81" y1="675.11" x2="572.81" y2="669.11"/>
        <line class="cls-5" x1="602.56" y1="675.11" x2="602.56" y2="669.11"/>
        <line class="cls-5" x1="632.31" y1="675.11" x2="632.31" y2="669.11"/>
        <line class="cls-5" x1="662.06" y1="675.11" x2="662.06" y2="669.11"/>
        <line class="cls-5" x1="691.81" y1="675.11" x2="691.81" y2="669.11"/>
        <line class="cls-5" x1="721.56" y1="675.11" x2="721.56" y2="669.11"/>
        <line class="cls-5" x1="751.31" y1="675.11" x2="751.31" y2="669.11"/>
        <line class="cls-5" x1="781.06" y1="675.11" x2="781.06" y2="669.11"/>
        <line class="cls-5" x1="810.81" y1="675.11" x2="810.81" y2="669.11"/>
        <line class="cls-5" x1="840.56" y1="675.11" x2="840.56" y2="669.11"/>
        <line class="cls-5" x1="870.31" y1="675.11" x2="870.31" y2="669.11"/>
        <line class="cls-5" x1="900.06" y1="675.11" x2="900.06" y2="669.11"/>
        <line class="cls-5" x1="929.81" y1="675.11" x2="929.81" y2="669.11"/>
        <line class="cls-5" x1="959.56" y1="675.11" x2="959.56" y2="669.11"/>
        <line class="cls-5" x1="989.31" y1="675.11" x2="989.31" y2="669.11"/>
        <line class="cls-5" x1="1019.06" y1="675.11" x2="1019.06" y2="669.11"/>
        <line class="cls-5" x1="1048.81" y1="675.11" x2="1048.81" y2="669.11"/>
      </g>
    </g>
    <g>
      <line class="cls-5" x1="334.81" y1="161.11" x2="334.81" y2="669.11"/>
      <g>
        <line class="cls-5" x1="328.81" y1="669.11" x2="334.81" y2="669.11"/>
        <line class="cls-5" x1="328.81" y1="542.11" x2="334.81" y2="542.11"/>
        <line class="cls-5" x1="328.81" y1="415.11" x2="334.81" y2="415.11"/>
        <line class="cls-5" x1="328.81" y1="288.11" x2="334.81" y2="288.11"/>
        <line class="cls-5" x1="328.81" y1="161.11" x2="334.81" y2="161.11"/>
      </g>
    </g>
  </g>
  <g>
    <circle class="cls-16" cx="334.81" cy="659.9" r="4"/>
    <circle class="cls-16" cx="364.56" cy="645.01" r="4"/>
    <circle class="cls-16" cx="394.31" cy="629.86" r="4"/>
    <circle class="cls-16" cx="424.06" cy="614.46" r="4"/>
    <circle class="cls-16" cx="453.81" cy="598.81" r="4"/>
    <circle class="cls-16" cx="483.56" cy="582.94" r="4"/>
    <circle class="cls-16" cx="513.31" cy="566.79" r="4"/>
    <circle class="cls-16" cx="543.06" cy="550.4" r="4"/>
    <circle class="cls-16" cx="572.81" cy="533.78" r="4"/>
    <circle class="cls-16" cx="602.56" cy="516.92" r="4"/>
    <circle class="cls-16" cx="632.31" cy="506.36" r="4"/>
    <circle class="cls-16" cx="662.06" cy="489.04" r="4"/>
    <circle class="cls-16" cx="691.81" cy="472.64" r="4"/>
    <circle class="cls-16" cx="721.56" cy="454.86" r="4"/>
    <circle class="cls-16" cx="751.31" cy="436.86" r="4"/>
    <circle class="cls-16" cx="781.06" cy="432.55" r="4"/>
    <circle class="cls-16" cx="810.81" cy="414.12" r="4"/>
    <circle class="cls-16" cx="840.56" cy="395.47" r="4"/>
    <circle class="cls-16" cx="870.31" cy="376.61" r="4"/>
    <circle class="cls-16" cx="900.06" cy="357.54" r="4"/>
    <circle class="cls-16" cx="929.81" cy="338.26" r="4"/>
    <circle class="cls-16" cx="959.56" cy="318.78" r="4"/>
    <circle class="cls-16" cx="989.31" cy="299.1" r="4"/>
    <circle class="cls-16" cx="1019.06" cy="279.22" r="4"/>
    <circle class="cls-16" cx="1048.81" cy="259.15" r="4"/>
  </g>
  <g>
    <g>
      <g class="cls-11">
        <text class="cls-12" transform="translate(323.59 683.5)"><tspan class="cls-17" x="0" y="0">2</tspan><tspan class="cls-7" x="5.44" y="0">0</tspan><tspan x="11.46" y="0">26</tspan></text>
      </g>
      <g class="cls-11">
        <text class="cls-12" transform="translate(353.75 683.5)"><tspan class="cls-17" x="0" y="0">2</tspan><tspan class="cls-7" x="5.44" y="0">0</tspan><tspan class="cls-21" x="11.46" y="0">2</tspan><tspan x="16.77" y="0">7</tspan></text>
      </g>
      <g class="cls-11">
        <text class="cls-12" transform="translate(383.11 683.5)"><tspan class="cls-17" x="0" y="0">2</tspan><tspan class="cls-7" x="5.44" y="0">0</tspan><tspan x="11.46" y="0">28</tspan></text>
      </g>
      <g class="cls-11">
        <text class="cls-12" transform="translate(412.84 683.5)"><tspan class="cls-17" x="0" y="0">2</tspan><tspan class="cls-7" x="5.44" y="0">0</tspan><tspan x="11.46" y="0">29</tspan></text>
      </g>
      <g class="cls-11">
        <text class="cls-12" transform="translate(442.29 683.5)"><tspan class="cls-17" x="0" y="0">2</tspan><tspan x="5.44" y="0">030</tspan></text>
      </g>
      <g class="cls-11">
        <text class="cls-12" transform="translate(473.5 683.5)"><tspan class="cls-17" x="0" y="0">2</tspan><tspan x="5.44" y="0">031</tspan></text>
      </g>
      <g class="cls-11">
        <text class="cls-12" transform="translate(502.05 683.5)"><tspan class="cls-17" x="0" y="0">2</tspan><tspan x="5.44" y="0">032</tspan></text>
      </g>
      <g class="cls-11">
        <text class="cls-12" transform="translate(531.82 683.5)"><tspan class="cls-17" x="0" y="0">2</tspan><tspan x="5.44" y="0">033</tspan></text>
      </g>
      <g class="cls-11">
        <text class="cls-12" transform="translate(561.52 683.5)"><tspan class="cls-17" x="0" y="0">2</tspan><tspan x="5.44" y="0">034</tspan></text>
      </g>
      <g class="cls-11">
        <text class="cls-12" transform="translate(591.3 683.5)"><tspan class="cls-17" x="0" y="0">2</tspan><tspan x="5.44" y="0">035</tspan></text>
      </g>
      <g class="cls-11">
        <text class="cls-12" transform="translate(621.08 683.5)"><tspan class="cls-17" x="0" y="0">2</tspan><tspan x="5.44" y="0">036</tspan></text>
      </g>
      <g class="cls-11">
        <text class="cls-12" transform="translate(651.14 683.5)"><tspan class="cls-17" x="0" y="0">2</tspan><tspan x="5.44" y="0">037</tspan></text>
      </g>
      <g class="cls-11">
        <text class="cls-12" transform="translate(680.61 683.5)"><tspan class="cls-17" x="0" y="0">2</tspan><tspan x="5.44" y="0">038</tspan></text>
      </g>
      <g class="cls-11">
        <text class="cls-12" transform="translate(710.33 683.5)"><tspan class="cls-17" x="0" y="0">2</tspan><tspan x="5.44" y="0">039</tspan></text>
      </g>
      <g class="cls-11">
        <text class="cls-12" transform="translate(739.74 683.5)"><tspan class="cls-17" x="0" y="0">2</tspan><tspan x="5.44" y="0">040</tspan></text>
      </g>
      <g class="cls-11">
        <text class="cls-12" transform="translate(771 683.5)"><tspan class="cls-17" x="0" y="0">2</tspan><tspan x="5.44" y="0">0</tspan><tspan class="cls-15" x="11.49" y="0">4</tspan><tspan x="17" y="0">1</tspan></text>
      </g>
      <g class="cls-11">
        <text class="cls-12" transform="translate(799.5 683.5)"><tspan class="cls-17" x="0" y="0">2</tspan><tspan x="5.44" y="0">042</tspan></text>
      </g>
      <g class="cls-11">
        <text class="cls-12" transform="translate(829.27 683.5)"><tspan class="cls-17" x="0" y="0">2</tspan><tspan x="5.44" y="0">043</tspan></text>
      </g>
      <g class="cls-11">
        <text class="cls-12" transform="translate(858.95 683.5)"><tspan class="cls-17" x="0" y="0">2</tspan><tspan x="5.44" y="0">0</tspan><tspan class="cls-14" x="11.49" y="0">4</tspan><tspan class="cls-10" x="17.13" y="0">4</tspan></text>
      </g>
      <g class="cls-11">
        <text class="cls-12" transform="translate(888.75 683.5)"><tspan class="cls-17" x="0" y="0">2</tspan><tspan x="5.44" y="0">045</tspan></text>
      </g>
      <g class="cls-11">
        <text class="cls-12" transform="translate(918.53 683.5)"><tspan class="cls-17" x="0" y="0">2</tspan><tspan x="5.44" y="0">046</tspan></text>
      </g>
      <g class="cls-11">
        <text class="cls-12" transform="translate(948.59 683.5)"><tspan class="cls-17" x="0" y="0">2</tspan><tspan x="5.44" y="0">047</tspan></text>
      </g>
      <g class="cls-11">
        <text class="cls-12" transform="translate(978.06 683.5)"><tspan class="cls-17" x="0" y="0">2</tspan><tspan x="5.44" y="0">048</tspan></text>
      </g>
      <g class="cls-11">
        <text class="cls-12" transform="translate(1007.82 683.5)"><tspan class="cls-17" x="0" y="0">2</tspan><tspan x="5.44" y="0">0</tspan><tspan class="cls-20" x="11.49" y="0">4</tspan><tspan x="17.02" y="0">9</tspan></text>
      </g>
      <g class="cls-11">
        <text class="cls-12" transform="translate(1037.28 683.5)"><tspan class="cls-17" x="0" y="0">2</tspan><tspan x="5.44" y="0">050</tspan></text>
      </g>
    </g>
    <g>
      <g class="cls-11">
        <text class="cls-12" transform="translate(294.41 672.31)"><tspan class="cls-18" x="0" y="0">-</tspan><tspan x="3.73" y="0">£550k</tspan></text>
      </g>
      <g class="cls-11">
        <text class="cls-12" transform="translate(314.31 545.31)"><tspan x="0" y="0">£0</tspan></text>
      </g>
      <g class="cls-11">
        <text class="cls-12" transform="translate(298.14 418.31)"><tspan x="0" y="0">£550k</tspan></text>
      </g>
      <g class="cls-11">
        <text class="cls-12" transform="translate(305.19 291.31)"><tspan x="0" y="0">£1</tspan><tspan class="cls-19" x="9.58" y="0">.</tspan><tspan x="11.19" y="0">1M</tspan></text>
      </g>
      <g class="cls-11">
        <text class="cls-12" transform="translate(302 164.31)"><tspan x="0" y="0">£1.6M</tspan></text>
      </g>
    </g>
  </g>
</svg>