<?xml version="1.0" encoding="UTF-8"?>
<svg id="Layer_1" xmlns="http://www.w3.org/2000/svg" version="1.1" viewBox="0 0 400 200">
  <!-- Generator: Adobe Illustrator 29.5.0, SVG Export Plug-In . SVG Version: 2.1.0 Build 137)  -->
  <defs>
    <style>
      .st0 {
        fill: #214e40;
      }

      .st1 {
        fill: #235546;
      }

      .st2 {
        fill: #e28f2c;
      }
    </style>
  </defs>
  <path class="st1" d="M59.2,83.35h6.23v57.75h-6.23v-8.33c-1.6,2.85-3.78,5.09-6.52,6.71-2.75,1.62-5.88,2.44-9.38,2.44-5.6,0-10.21-2.01-13.84-6.04-3.63-4.02-5.44-9.16-5.44-15.41s1.81-11.39,5.44-15.41c3.62-4.02,8.24-6.04,13.84-6.04,3.5,0,6.62.83,9.38,2.47,2.75,1.65,4.92,3.93,6.52,6.83v-24.97ZM44.5,136c4.25,0,7.77-1.46,10.58-4.39,2.8-2.93,4.2-6.64,4.2-11.14s-1.4-8.21-4.2-11.14c-2.8-2.92-6.33-4.39-10.58-4.39s-7.55,1.46-10.2,4.39c-2.65,2.92-3.98,6.64-3.98,11.14s1.32,8.28,3.98,11.17c2.65,2.9,6.05,4.35,10.2,4.35Z"/>
  <path class="st1" d="M95.95,99.02c6.4,0,11.5,2.17,15.3,6.53,3.8,4.35,5.57,9.95,5.33,16.8h-35.33c.3,4.25,1.82,7.6,4.58,10.05,2.75,2.45,6.23,3.67,10.42,3.67,6.15,0,10.45-2.4,12.9-7.2h6.45c-1.7,4.25-4.27,7.49-7.73,9.71-3.45,2.23-7.4,3.34-11.85,3.34-6.15,0-11.21-1.99-15.19-5.96-3.97-3.97-5.96-9.09-5.96-15.34s1.97-11.41,5.93-15.49c3.95-4.07,9-6.11,15.15-6.11ZM95.95,104.87c-3.7,0-6.84,1.08-9.41,3.23-2.58,2.15-4.24,4.95-4.99,8.4h28.27c-.7-3.5-2.28-6.31-4.73-8.44-2.45-2.12-5.5-3.19-9.15-3.19Z"/>
  <path class="st1" d="M145.3,141.92c-6.05,0-11.11-2.04-15.19-6.11-4.08-4.07-6.11-9.19-6.11-15.34s2.04-11.26,6.11-15.34,9.14-6.11,15.19-6.11c4.9,0,9.2,1.38,12.9,4.12,3.7,2.75,6.07,6.45,7.12,11.1h-6.45c-.95-2.9-2.65-5.2-5.1-6.9-2.45-1.7-5.28-2.55-8.47-2.55-4.35,0-7.94,1.47-10.76,4.42-2.83,2.95-4.24,6.7-4.24,11.25s1.41,8.3,4.24,11.25c2.82,2.95,6.41,4.42,10.76,4.42,3.2,0,6.01-.85,8.44-2.55,2.42-1.7,4.14-4,5.14-6.9h6.45c-1.1,4.7-3.5,8.41-7.2,11.14-3.7,2.73-7.98,4.09-12.82,4.09Z"/>
  <path class="st1" d="M193.6,99.02c5.95,0,10.99,2.04,15.11,6.11,4.12,4.08,6.19,9.19,6.19,15.34s-2.05,11.26-6.15,15.34c-4.1,4.08-9.15,6.11-15.15,6.11s-10.98-2.05-15.08-6.15c-4.1-4.1-6.15-9.2-6.15-15.3s2.06-11.2,6.19-15.3,9.14-6.15,15.04-6.15ZM204.25,109.33c-2.9-2.92-6.45-4.39-10.65-4.39s-7.74,1.46-10.61,4.39c-2.88,2.92-4.31,6.64-4.31,11.14s1.44,8.21,4.31,11.14c2.87,2.92,6.41,4.39,10.61,4.39s7.81-1.46,10.69-4.39c2.88-2.93,4.31-6.64,4.31-11.14s-1.45-8.21-4.35-11.14Z"/>
  <path class="st1" d="M258.1,83.35h6.22v57.75h-6.22v-8.33c-1.6,2.85-3.78,5.09-6.53,6.71-2.75,1.62-5.88,2.44-9.38,2.44-5.6,0-10.21-2.01-13.84-6.04-3.63-4.02-5.44-9.16-5.44-15.41s1.81-11.39,5.44-15.41c3.62-4.02,8.24-6.04,13.84-6.04,3.5,0,6.62.83,9.38,2.47,2.75,1.65,4.92,3.93,6.53,6.83v-24.97ZM243.4,136c4.25,0,7.77-1.46,10.58-4.39,2.8-2.93,4.2-6.64,4.2-11.14s-1.4-8.21-4.2-11.14c-2.8-2.92-6.33-4.39-10.58-4.39s-7.55,1.46-10.2,4.39-3.97,6.64-3.97,11.14,1.32,8.28,3.97,11.17c2.65,2.9,6.05,4.35,10.2,4.35Z"/>
  <path class="st2" d="M314.16,89.69h-29.89v18.38h27.9v6.54h-27.9v19.95h29.89v6.54h-36.76v-57.95h36.76v6.54Z"/>
  <path class="st2" d="M344.7,83.15c8.5,0,15.58,2.73,21.23,8.2,5.66,5.46,8.49,12.39,8.49,20.78s-2.84,15.25-8.53,20.74c-5.68,5.49-12.75,8.24-21.19,8.24h-19.62v-57.95h19.62ZM344.79,134.56c6.51,0,11.92-2.11,16.23-6.33,4.3-4.22,6.48-9.59,6.54-16.1,0-6.51-2.17-11.88-6.5-16.1-4.33-4.22-9.76-6.33-16.27-6.33h-12.83v44.87h12.83Z"/>
  <g>
    <polygon class="st0" points="368.37 70.92 277 70.92 277 65.52 322.68 59.74 368.37 65.52 368.37 70.92"/>
    <polygon class="st0" points="377.83 64.62 322.68 55.34 267.54 64.62 267.54 59.9 322.68 40.99 377.83 59.9 377.83 64.62"/>
    <g>
      <path class="st2" d="M375.31,84.41c-.31,0-.55-.25-.55-.55v-18.68c0-.31.25-.55.55-.55s.55.25.55.55v18.68c0,.31-.25.55-.55.55Z"/>
      <circle class="st2" cx="375.31" cy="79.87" r="1.46"/>
      <path class="st2" d="M376.93,85.79c0-1.91-.73-3.46-1.62-3.46s-1.62,1.55-1.62,3.46"/>
    </g>
  </g>
</svg>