<?xml version="1.0" encoding="UTF-8"?>
<svg xmlns="http://www.w3.org/2000/svg" version="1.1" viewBox="0 0 485.74 166.43">
  <!-- Generator: Adobe Illustrator 29.5.0, SVG Export Plug-In . SVG Version: 2.1.0 Build 137)  -->
  <g id="net">
    <path d="M51.19,71.47L20.36,28.04v43.43H6.59V6.81h14.17l29.97,41.88V6.81h13.78v64.7h-13.29l-.04-.04h.01Z"/>
    <path d="M79.66,71.48V6.82h45.78v11.84h-32v14.08h31.33v11.84h-31.33v15.02h32v11.9h-45.78v-.02h0Z"/>
    <path d="M153.55,71.48V18.92h-18.92V6.82h51.6v12.1h-18.81v52.56h-13.87Z"/>
  </g>
  <g id="zero">
    <path d="M228.92,71.48v-11.16l30.56-41.4h-30.56V6.82h48.6v11.05l-30.56,41.51h31.24v12.1h-49.28Z"/>
    <path d="M291.06,71.5V6.8h45.78v11.84h-32v14.08h31.33v11.84h-31.33v15.02h32v11.9h-45.78v.04-.02Z"/>
    <path d="M386.58,71.5l-12.68-23.19h-10.1v23.19h-13.78V6.8h30.28c13.46,0,21.7,8.82,21.7,20.85s-7.16,17.53-14.17,19.19l14.54,24.66h-15.81.01ZM378.21,18.66h-14.45v17.84h14.45c5.52,0,9.7-3.49,9.7-8.92s-4.17-8.92-9.7-8.92h0Z"/>
    <path d="M445.45,5.68c19.6,0,33.84,13.97,33.84,33.47s-14.24,33.47-33.84,33.47-33.74-13.97-33.74-33.47,14.24-33.47,33.74-33.47ZM445.45,17.9c-11.94,0-19.6,9.12-19.6,21.23s7.66,21.25,19.6,21.25,19.7-9.23,19.7-21.25-7.76-21.23-19.7-21.23Z"/>
  </g>
  <g id="advisory">
    <path d="M60.57,159.45l-7.16-17.36H17.34l-7.16,17.36h-3.59l26.96-64.7h3.7l26.96,64.7h-3.62,0ZM35.34,98.32l-16.85,40.82h33.74l-16.85-40.82h-.04Z"/>
    <path d="M77.16,159.45v-64.7h19.19c20.07,0,32.17,15.13,32.17,32.38s-12.1,32.28-32.17,32.28h-19.19v.04ZM80.23,156.53h16.11c18.31,0,28.83-12.99,28.83-29.39s-10.48-29.5-28.83-29.5h-16.11v58.9h0Z"/>
    <path d="M164.41,159.45l-26.96-64.7h3.59l25.22,61.11,25.22-61.11h3.59l-26.96,64.7h-3.72.02,0Z"/>
    <path d="M208.08,159.45v-64.7h3.09v64.7h-3.09Z"/>
    <path d="M229.78,148.1c3.96,4.85,10.79,9.61,20.07,9.61,14.96,0,18.71-8.55,18.71-14.64,0-10.48-9.4-13.29-19.02-16.01-9.99-2.82-20.28-5.63-20.28-16.85,0-10.48,9.61-16.51,20.28-16.51,9.5,0,16.4,3.49,20.95,9.12l-2.41,2.24c-4.55-5.93-11.05-8.44-18.51-8.44-9.4,0-16.85,5.63-16.85,13.57,0,8.72,8.72,11.16,17.95,13.78,10.37,2.99,21.36,6.31,21.36,19.09,0,7.26-4.64,17.53-22.11,17.53-10.1,0-17.95-4.38-22.59-10.27l2.52-2.24h-.04l-.04.07h0v-.04h-.01Z"/>
    <path d="M317.34,93.63c18.71,0,30.73,14.75,30.73,33.47s-12,33.47-30.73,33.47-30.76-14.75-30.76-33.47,11.9-33.47,30.76-33.47ZM317.34,96.55c-16.74,0-27.32,12.78-27.32,30.56s10.58,30.56,27.32,30.56,27.32-12.99,27.32-30.56-10.79-30.56-27.32-30.56Z"/>
    <path d="M403.68,159.45l-19.7-27.94h-15.53v27.94h-3.09v-64.7h22.31c10.48,0,19.09,6.51,19.09,18.31s-8.61,18.42-19.09,18.42l19.98,27.94h-3.96v.04h-.01ZM387.67,97.68h-19.19v30.93h19.19c9.5,0,15.73-6.61,15.73-15.53s-6.2-15.43-15.73-15.43h0v.04h0Z"/>
    <path d="M442.05,159.45v-28.04l-26.01-36.66h3.96l23.56,33.57,23.56-33.57h3.96l-26.01,36.66v28.04h-3.09.05Z"/>
  </g>
</svg>