<?xml version="1.0" encoding="UTF-8"?>
<svg id="Layer_1" xmlns="http://www.w3.org/2000/svg" version="1.1" viewBox="0 0 759.78 212.62">
  <!-- Generator: Adobe Illustrator 29.5.0, SVG Export Plug-In . SVG Version: 2.1.0 Build 137)  -->
  <g>
    <g>
      <g id="net">
        <path d="M292.12,89.69l-33-46.49v46.49h-14.74V20.47h15.17l32.08,44.83V20.47h14.75v69.26h-14.23l-.04-.04h.01Z"/>
        <path d="M322.6,89.7V20.48h49.01v12.67h-34.26v15.07h33.54v12.67h-33.54v16.08h34.26v12.74h-49.01v-.02h0Z"/>
        <path d="M401.7,89.7v-56.26h-20.25v-12.95h55.24v12.95h-20.14v56.26h-14.85Z"/>
      </g>
      <g id="zero">
        <path d="M482.38,89.7v-11.95l32.71-44.32h-32.71v-12.95h52.02v11.83l-32.71,44.44h33.44v12.95h-52.75Z"/>
        <path d="M548.9,89.72V20.46h49.01v12.67h-34.26v15.07h33.54v12.67h-33.54v16.08h34.26v12.74h-49.01v.04-.02h0Z"/>
        <path d="M651.15,89.72l-13.57-24.82h-10.81v24.82h-14.75V20.46h32.41c14.41,0,23.23,9.44,23.23,22.32s-7.66,18.77-15.17,20.54l15.56,26.4h-16.92.02,0ZM642.19,33.16h-15.47v19.1h15.47c5.91,0,10.38-3.74,10.38-9.55s-4.46-9.55-10.38-9.55h0Z"/>
        <path d="M714.17,19.26c20.98,0,36.22,14.95,36.22,35.83s-15.24,35.83-36.22,35.83-36.12-14.95-36.12-35.83,15.24-35.83,36.12-35.83ZM714.17,32.34c-12.78,0-20.98,9.76-20.98,22.73s8.2,22.75,20.98,22.75,21.09-9.88,21.09-22.75-8.31-22.73-21.09-22.73Z"/>
      </g>
    </g>
    <g id="advisory">
      <path d="M302.16,190.24l-7.66-18.58h-38.61l-7.66,18.58h-3.84l28.86-69.26h3.96l28.86,69.26h-3.9ZM275.16,124.8l-18.04,43.7h36.12l-18.04-43.7h-.04Z"/>
      <path d="M319.92,190.24v-69.26h20.54c21.48,0,34.44,16.2,34.44,34.66s-12.95,34.55-34.44,34.55h-20.54v.04ZM323.21,187.11h17.25c19.6,0,30.86-13.91,30.86-31.46s-11.22-31.58-30.86-31.58h-17.25v63.05h0Z"/>
      <path d="M413.32,190.24l-28.86-69.26h3.84l27,65.42,27-65.42h3.84l-28.86,69.26h-3.98.02Z"/>
      <path d="M460.07,190.24v-69.26h3.31v69.26h-3.31Z"/>
      <path d="M483.3,178.09c4.24,5.19,11.55,10.29,21.48,10.29,16.01,0,20.03-9.15,20.03-15.67,0-11.22-10.06-14.23-20.36-17.14-10.69-3.02-21.71-6.03-21.71-18.04,0-11.22,10.29-17.67,21.71-17.67,10.17,0,17.56,3.74,22.43,9.76l-2.58,2.4c-4.87-6.35-11.83-9.03-19.81-9.03-10.06,0-18.04,6.03-18.04,14.53,0,9.33,9.33,11.95,19.21,14.75,11.1,3.2,22.87,6.75,22.87,20.44,0,7.77-4.97,18.77-23.67,18.77-10.81,0-19.21-4.69-24.18-10.99l2.7-2.4h-.04l-.04.07h0v-.04h.02-.01Z"/>
      <path d="M577.03,119.78c20.03,0,32.9,15.79,32.9,35.83s-12.85,35.83-32.9,35.83-32.93-15.79-32.93-35.83,12.74-35.83,32.93-35.83ZM577.03,122.9c-17.92,0-29.25,13.68-29.25,32.71s11.33,32.71,29.25,32.71,29.25-13.91,29.25-32.71-11.55-32.71-29.25-32.71Z"/>
      <path d="M669.45,190.24l-21.09-29.91h-16.62v29.91h-3.31v-69.26h23.88c11.22,0,20.44,6.97,20.44,19.6s-9.22,19.72-20.44,19.72l21.39,29.91h-4.24v.04h-.01ZM652.31,124.11h-20.54v33.11h20.54c10.17,0,16.84-7.08,16.84-16.62s-6.64-16.52-16.84-16.52h0v.04h0Z"/>
      <path d="M710.53,190.24v-30.02l-27.84-39.24h4.24l25.22,35.94,25.22-35.94h4.24l-27.84,39.24v30.02h-3.31.07Z"/>
    </g>
  </g>
  <g>
    <g id="circle">
      <path d="M104.12,205.78c-55.37,0-100.42-45.05-100.42-100.42S48.74,4.94,104.12,4.94s100.42,45.05,100.42,100.42-45.05,100.42-100.42,100.42h0ZM104.12,12.45C52.89,12.45,11.21,54.13,11.21,105.36s41.68,92.91,92.91,92.91,92.91-41.68,92.91-92.91S155.35,12.45,104.12,12.45h0Z"/>
    </g>
    <g id="bottom-triangle">
      <path d="M151.25,118.54l-6.05-7.52-40.79-50.71c-.15-.19-.44-.19-.59,0l-40.79,50.71-6.05,7.52-27.61,34.31c-.19.25-.02.61.29.61h148.9c.32,0,.49-.36.29-.61l-27.61-34.31h.02ZM45.36,145.94c-.32,0-.49-.36-.29-.61l21.55-26.79,6.05-7.52,31.14-38.71c.15-.19.44-.19.59,0l31.14,38.71,6.05,7.52,21.55,26.79c.19.25.02.61-.29.61H45.36Z"/>
    </g>
    <g id="mid-triangle">
      <path d="M120.98,112.52h-9.66l-6.91-8.6c-.15-.19-.44-.19-.59,0l-6.91,8.6h-9.66l16.57-20.59c.15-.19.44-.19.59,0l16.57,20.59h-.02Z"/>
    </g>
    <g id="top-triangle">
      <path d="M103.82,26.9L29.36,119.43c-.19.25-.02.61.29.61h148.9c.32,0,.49-.36.29-.61L104.4,26.9c-.15-.19-.44-.19-.59,0h.01ZM45.07,111.91l58.75-73.01c.15-.19.44-.19.59,0l58.75,73.01c.19.25.02.61-.29.61H45.36c-.32,0-.49-.36-.29-.61Z"/>
    </g>
  </g>
</svg>