<?xml version="1.0" encoding="UTF-8"?>
<svg xmlns="http://www.w3.org/2000/svg" viewBox="0 0 266.99 267">
  <g id="circle">
    <path d="M133.49,267C59.88,267,0,207.11,0,133.5S59.88,0,133.49,0s133.5,59.89,133.5,133.5-59.89,133.5-133.5,133.5ZM133.49,9.98c-68.11,0-123.52,55.41-123.52,123.52s55.41,123.52,123.52,123.52,123.52-55.41,123.52-123.52S201.6,9.98,133.5,9.98h0Z"/>
  </g>
  <g id="bottom-triangle">
    <path d="M196.16,151.02l-8.05-10-54.23-67.41c-.2-.25-.58-.25-.78,0l-54.23,67.41-8.05,10-36.7,45.61c-.26.33-.03.81.39.81h197.95c.42,0,.65-.49.39-.81l-36.7-45.61ZM55.39,187.44c-.42,0-.65-.49-.39-.81l28.65-35.61,8.05-10,41.4-51.46c.2-.25.58-.25.78,0l41.4,51.46,8.05,10,28.65,35.61c.26.33.03.81-.39.81H55.39Z"/>
  </g>
  <g id="mid-triangle">
    <path d="M155.91,143.02h-12.84l-9.19-11.43c-.2-.25-.58-.25-.78,0l-9.19,11.43h-12.84l22.03-27.38c.2-.25.58-.25.78,0l22.03,27.38Z"/>
  </g>
  <g id="top-triangle">
    <path d="M133.1,29.19l-98.98,123.01c-.26.33-.03.81.39.81h197.95c.42,0,.65-.49.39-.81L133.88,29.19c-.2-.25-.58-.25-.78,0ZM55,142.21l78.1-97.06c.2-.25.58-.25.78,0l78.1,97.06c.26.33.03.81-.39.81H55.39c-.42,0-.65-.49-.39-.81Z"/>
  </g>
</svg>