<?xml version="1.0" encoding="UTF-8"?>
<svg id="Layer_1" xmlns="http://www.w3.org/2000/svg" version="1.1" viewBox="0 0 400 200">
  <!-- Generator: Adobe Illustrator 29.5.0, SVG Export Plug-In . SVG Version: 2.1.0 Build 137)  -->
  <path d="M192.26,116.64l-.13-4c.76-.05,1.51-.07,2.31-.07s1.59.02,2.39.07l-.12,4h-4.44Z"/>
  <path d="M196.7,114.64h-4.44c.75-.05,2.33-.13,4.44,0Z"/>
  <path d="M300.33,116.29c-16.75,0-30.37-13.62-30.37-30.37s13.46-30.17,30.01-30.35c.12,0,.23-.01.36-.01h88.89c2.48,0,4.5,2.02,4.5,4.5s-2.02,4.5-4.5,4.5h-67.33c5.59,5.64,8.8,13.29,8.8,21.36,0,16.75-13.62,30.37-30.36,30.37ZM300.33,64.56c-11.78,0-21.37,9.58-21.37,21.36s9.59,21.37,21.37,21.37,21.36-9.59,21.36-21.37-9.58-21.36-21.36-21.36Z"/>
  <path d="M389.22,57.56h-88.89c-.09,0-.17,0-.26,0-15.52.13-28.11,12.8-28.11,28.35s12.73,28.37,28.37,28.37,28.36-12.73,28.36-28.37c0-9.68-4.88-18.25-12.3-23.36h72.83c1.38,0,2.5-1.12,2.5-2.5s-1.12-2.5-2.5-2.5h0ZM323.69,85.92c0,12.89-10.48,23.37-23.36,23.37s-23.37-10.48-23.37-23.37,10.48-23.36,23.37-23.36,23.36,10.48,23.36,23.36Z"/>
  <path d="M192.03,111.64l-.14-4c.8-.06,1.67-.08,2.6-.08s1.84.03,2.78.08l-.12,4h-5.12Z"/>
  <path d="M197.15,109.64h-5.12c1.14-.08,2.91-.13,5.12,0Z"/>
  <path d="M213.23,180.02c-12.11,0-23.17-8.46-26.88-20.57-.05-.18-.09-.34-.12-.5l-7.48-42.31h-11.2l.13,41.47c0,2.49-2.01,4.51-4.49,4.51s-4.51-2.01-4.51-4.49l-.13-41.49h-20.13l-22.61,43.56c-.78,1.5-2.31,2.42-4,2.42-.38,0-.75-.05-1.1-.14-1.99-.48-3.4-2.28-3.4-4.36v-93.85H10.78c-2.48,0-4.5-2.02-4.5-4.5s2.02-4.5,4.5-4.5h96.54v-28.82c0-1.66.91-3.18,2.37-3.96.63-.35,1.38-.54,2.13-.54.88,0,1.73.25,2.46.73l51.02,33.3c.14.09.35.23.56.44.36.32.67.7.91,1.11.3.54.49,1.1.56,1.66.03.19.05.43.04.67l.15,47.78h10.81c2.21-16.15,16.25-28.54,32.73-28.54s30.52,12.39,32.73,28.54h2.27V24.48c0-2.48,2.02-4.5,4.5-4.5s4.5,2.02,4.5,4.5v83.16h28.2c2.48,0,4.5,2.02,4.5,4.5s-2.02,4.5-4.5,4.5h-60.98c1.58,1.19,3.08,2.49,4.49,3.9,15.07,14.98,13.28,34.35,12.76,38.17-.02.2-.07.42-.12.61-3.13,10.98-12.04,19-22.71,20.45-1.12.16-2.29.24-3.47.24ZM195.03,157.06c2.64,8.23,10.1,13.96,18.2,13.96.75,0,1.51-.05,2.26-.15,7.03-.96,12.97-6.32,15.17-13.67.29-2.45,1.68-18.46-10.22-30.28-8.27-8.22-18.5-9.97-23.85-10.28-.73-.04-1.45-.07-2.15-.07s-1.37.02-2.04.07h-.13s-4.37,0-4.37,0l7.13,40.42ZM116.32,139.69l39.15-75.42h-39.15v75.42ZM234.69,107.64c-2.11-11.28-11.91-19.54-23.62-19.54s-21.5,8.26-23.61,19.54h47.23ZM158.53,107.64l-.1-29.55-15.34,29.55h15.43ZM147.75,55.27l-31.43-20.51v20.51h31.43Z"/>
  <path d="M283.27,109.64h-30.2V24.48c0-1.38-1.12-2.5-2.5-2.5s-2.5,1.12-2.5,2.5v85.16h-6.06c-1.27-15.94-14.66-28.54-30.94-28.54s-29.67,12.6-30.94,28.54h-14.6l-.16-49.84c0-.12,0-.24-.02-.36-.04-.32-.15-.63-.3-.9-.14-.24-.32-.46-.54-.65-.09-.09-.19-.16-.3-.23l-51.03-33.3c-.76-.5-1.75-.54-2.55-.1-.81.43-1.31,1.28-1.31,2.19v30.82H10.78c-1.38,0-2.5,1.12-2.5,2.5s1.12,2.5,2.5,2.5h98.54v95.85c0,1.16.79,2.16,1.91,2.43.19.05.39.07.59.07.91,0,1.78-.5,2.22-1.34l23.17-44.64h23.34l.14,43.49c0,1.38,1.12,2.49,2.5,2.49h0c1.38,0,2.49-1.12,2.49-2.5l-.14-43.48h14.88l7.76,43.92c.02.1.04.2.07.3,3.49,11.38,13.88,19.16,24.97,19.16,1.06,0,2.13-.07,3.2-.22,9.89-1.35,18.15-8.81,21.05-18.99.03-.11.06-.23.07-.34.5-3.58,2.25-22.17-12.18-36.51-3.19-3.17-6.58-5.55-9.94-7.32h67.84c1.38,0,2.5-1.12,2.5-2.5s-1.12-2.5-2.5-2.5h0ZM114.32,31.07l40.15,26.2h-40.15v-26.2ZM133.49,110.95h0l-19.17,36.93V62.27h44.44l-25.27,48.68ZM139.81,109.64l20.6-39.69.13,39.69h-20.73ZM221.85,125.5c12.69,12.62,11.11,29.49,10.77,32.11-2.39,8.19-9,14.16-16.87,15.24-9.79,1.33-19.51-5.24-22.67-15.31l-7.57-42.9h6.75c.75-.05,2.33-.13,4.44,0,6.05.35,16.55,2.31,25.15,10.86ZM185.16,109.64c1.26-13.19,12.39-23.54,25.91-23.54s24.66,10.35,25.92,23.54h-51.83Z"/>
</svg>